Russolo-10ptBold.ufo
<glyph name="exclam" format="2">
  <advance width="557.8888888888889"/>
  <unicode hex="0021"/>
  <note>
exclam
</note>
  <outline>
    <contour>
      <point x="216.44444444444446" y="415.55555555555554" type="curve"/>
      <point x="342.44444444444446" y="415.55555555555554" type="line"/>
      <point x="331.66666666666663" y="743.4444444444445"/>
      <point x="428.55555555555554" y="1033.0"/>
      <point x="428.55555555555554" y="1185.3333333333333" type="curve" smooth="yes"/>
      <point x="428.55555555555554" y="1323.5555555555557"/>
      <point x="309.8888888888889" y="1256.7777777777778"/>
      <point x="358.6666666666667" y="1464.6666666666667" type="curve"/>
      <point x="200.66666666666666" y="1464.6666666666667" type="line"/>
      <point x="249.44444444444446" y="1257.3333333333333"/>
      <point x="129.33333333333331" y="1323.5555555555557"/>
      <point x="129.33333333333331" y="1185.3333333333333" type="curve" smooth="yes"/>
      <point x="129.33333333333331" y="1032.4444444444443"/>
      <point x="226.77777777777777" y="743.4444444444445"/>
    </contour>
    <contour>
      <point x="279.22222222222223" y="-24.333333333333336" type="curve" smooth="yes"/>
      <point x="373.77777777777777" y="-24.333333333333336"/>
      <point x="440.1111111111111" y="47.333333333333336"/>
      <point x="440.1111111111111" y="145.0" type="curve" smooth="yes"/>
      <point x="440.1111111111111" y="242.22222222222223"/>
      <point x="373.77777777777777" y="313.44444444444446"/>
      <point x="279.22222222222223" y="313.44444444444446" type="curve" smooth="yes"/>
      <point x="184.66666666666666" y="313.44444444444446"/>
      <point x="118.33333333333333" y="242.22222222222223"/>
      <point x="118.33333333333333" y="145.0" type="curve" smooth="yes"/>
      <point x="118.33333333333333" y="47.333333333333336"/>
      <point x="184.66666666666666" y="-24.333333333333336"/>
    </contour>
  </outline>
</glyph>
<glyph name="quotedbl" format="2">
  <advance width="773.1111111111111"/>
  <unicode hex="0022"/>
  <note>
quotedbl
</note>
  <outline>
    <contour>
      <point x="459.1111111111111" y="773.8888888888889" type="line"/>
      <point x="631.1111111111111" y="773.8888888888889" type="line"/>
      <point x="655.7777777777778" y="1365.3333333333333" type="line"/>
      <point x="439.55555555555554" y="1365.3333333333333" type="line"/>
    </contour>
    <contour>
      <point x="138.44444444444446" y="773.8888888888889" type="line"/>
      <point x="308.44444444444446" y="773.8888888888889" type="line"/>
      <point x="334.1111111111111" y="1365.3333333333333" type="line"/>
      <point x="118.33333333333333" y="1365.3333333333333" type="line"/>
    </contour>
  </outline>
</glyph>
<glyph name="numbersign" format="2">
  <advance width="1522.3333333333333"/>
  <unicode hex="0023"/>
  <note>
numbersign
</note>
  <outline>
    <contour>
      <point x="766.7777777777778" y="-0.5555555555555556" type="line"/>
      <point x="992.7777777777778" y="-0.5555555555555556" type="line"/>
      <point x="1313.4444444444443" y="1435.2222222222222" type="line"/>
      <point x="1087.4444444444443" y="1435.2222222222222" type="line"/>
    </contour>
    <contour>
      <point x="122.44444444444444" y="434.55555555555554" type="line"/>
      <point x="1335.5555555555557" y="434.55555555555554" type="line"/>
      <point x="1335.5555555555557" y="600.4444444444445" type="line"/>
      <point x="122.44444444444444" y="600.4444444444445" type="line"/>
    </contour>
    <contour>
      <point x="200.55555555555554" y="-0.5555555555555556" type="line"/>
      <point x="427.1111111111111" y="-0.5555555555555556" type="line"/>
      <point x="750.3333333333334" y="1435.2222222222222" type="line"/>
      <point x="523.7777777777778" y="1435.2222222222222" type="line"/>
    </contour>
    <contour>
      <point x="185.77777777777777" y="845.4444444444445" type="line"/>
      <point x="1399.888888888889" y="845.4444444444445" type="line"/>
      <point x="1399.888888888889" y="1012.8888888888889" type="line"/>
      <point x="185.77777777777777" y="1012.8888888888889" type="line"/>
    </contour>
  </outline>
</glyph>
<glyph name="percent" format="2">
  <advance width="1662.4444444444443"/>
  <unicode hex="0025"/>
  <note>
percent
</note>
  <outline>
    <contour>
      <point x="194.88888888888889" y="-16.88888888888889" type="line"/>
      <point x="427.6666666666667" y="-16.88888888888889" type="line"/>
      <point x="1456.7777777777778" y="1437.111111111111" type="line"/>
      <point x="1224.4444444444443" y="1437.111111111111" type="line"/>
    </contour>
    <contour>
      <point x="1193.5555555555557" y="-31.555555555555557" type="curve" smooth="yes"/>
      <point x="1393.0" y="-31.555555555555557"/>
      <point x="1525.6666666666667" y="136.77777777777777"/>
      <point x="1525.6666666666667" y="380.6666666666667" type="curve" smooth="yes"/>
      <point x="1525.6666666666667" y="618.3333333333334"/>
      <point x="1385.7777777777778" y="794.4444444444445"/>
      <point x="1193.5555555555557" y="794.4444444444445" type="curve" smooth="yes"/>
      <point x="1004.3333333333334" y="794.4444444444445"/>
      <point x="861.8888888888889" y="615.2222222222222"/>
      <point x="861.8888888888889" y="380.6666666666667" type="curve" smooth="yes"/>
      <point x="861.8888888888889" y="136.77777777777777"/>
      <point x="995.5555555555555" y="-31.555555555555557"/>
    </contour>
    <contour>
      <point x="1193.5555555555557" y="129.33333333333334" type="curve" smooth="yes"/>
      <point x="1122.5555555555557" y="129.33333333333334"/>
      <point x="1088.5555555555557" y="223.33333333333331"/>
      <point x="1088.5555555555557" y="380.6666666666667" type="curve" smooth="yes"/>
      <point x="1088.5555555555557" y="540.5555555555555"/>
      <point x="1122.5555555555557" y="632.8888888888889"/>
      <point x="1193.5555555555557" y="632.8888888888889" type="curve" smooth="yes"/>
      <point x="1265.0" y="632.8888888888889"/>
      <point x="1300.0" y="538.4444444444445"/>
      <point x="1300.0" y="380.6666666666667" type="curve" smooth="yes"/>
      <point x="1300.0" y="223.88888888888889"/>
      <point x="1266.0" y="129.33333333333334"/>
    </contour>
    <contour>
      <point x="470.55555555555554" y="628.5555555555555" type="curve" smooth="yes"/>
      <point x="669.5555555555555" y="628.5555555555555"/>
      <point x="802.6666666666666" y="796.4444444444445"/>
      <point x="802.6666666666666" y="1041.7777777777778" type="curve" smooth="yes"/>
      <point x="802.6666666666666" y="1276.888888888889"/>
      <point x="661.7777777777778" y="1454.0"/>
      <point x="470.55555555555554" y="1454.0" type="curve" smooth="yes"/>
      <point x="279.3333333333333" y="1454.0"/>
      <point x="137.33333333333334" y="1275.3333333333333"/>
      <point x="137.33333333333334" y="1041.7777777777778" type="curve" smooth="yes"/>
      <point x="137.33333333333334" y="797.4444444444445"/>
      <point x="271.0" y="628.5555555555555"/>
    </contour>
    <contour>
      <point x="470.55555555555554" y="790.0" type="curve" smooth="yes"/>
      <point x="399.0" y="790.0"/>
      <point x="365.55555555555554" y="881.8888888888889"/>
      <point x="365.55555555555554" y="1041.7777777777778" type="curve" smooth="yes"/>
      <point x="365.55555555555554" y="1203.2222222222222"/>
      <point x="399.0" y="1293.111111111111"/>
      <point x="470.55555555555554" y="1293.111111111111" type="curve" smooth="yes"/>
      <point x="541.0" y="1293.111111111111"/>
      <point x="576.0" y="1198.0"/>
      <point x="576.0" y="1041.7777777777778" type="curve" smooth="yes"/>
      <point x="576.0" y="886.1111111111111"/>
      <point x="541.0" y="790.0"/>
    </contour>
  </outline>
</glyph>
<glyph name="ampersand" format="2">
  <advance width="1536.3333333333335"/>
  <unicode hex="0026"/>
  <note>
ampersand
</note>
  <outline>
    <contour>
      <point x="674.6666666666666" y="-32.22222222222222" type="curve" smooth="yes"/>
      <point x="827.0" y="-32.22222222222222"/>
      <point x="957.8888888888889" y="-3.888888888888889"/>
      <point x="1045.5555555555557" y="57.55555555555556" type="curve"/>
      <point x="926.6666666666666" y="197.66666666666669" type="line"/>
      <point x="903.0" y="170.66666666666669"/>
      <point x="731.7777777777778" y="131.44444444444446"/>
      <point x="668.6666666666666" y="131.44444444444446" type="curve" smooth="yes"/>
      <point x="500.66666666666663" y="131.44444444444446"/>
      <point x="448.3333333333333" y="257.0"/>
      <point x="448.3333333333333" y="415.3333333333333" type="curve" smooth="yes"/>
      <point x="448.3333333333333" y="604.2222222222222"/>
      <point x="536.2222222222222" y="691.8888888888889"/>
      <point x="694.1111111111111" y="688.6666666666666" type="curve"/>
      <point x="703.5555555555555" y="856.4444444444445" type="line"/>
      <point x="592.2222222222222" y="847.6666666666666"/>
      <point x="528.3333333333333" y="926.1111111111111"/>
      <point x="528.3333333333333" y="1066.111111111111" type="curve" smooth="yes"/>
      <point x="528.3333333333333" y="1205.0"/>
      <point x="600.8888888888889" y="1299.0"/>
      <point x="710.1111111111111" y="1299.0" type="curve" smooth="yes"/>
      <point x="921.3333333333334" y="1299.0" type="line"/>
      <point x="921.3333333333334" y="1462.6666666666667" type="line"/>
      <point x="706.1111111111111" y="1462.6666666666667" type="line" smooth="yes"/>
      <point x="392.1111111111111" y="1462.6666666666667"/>
      <point x="235.11111111111111" y="1329.5555555555557"/>
      <point x="235.11111111111111" y="1066.111111111111" type="curve" smooth="yes"/>
      <point x="235.11111111111111" y="946.5555555555555"/>
      <point x="273.6666666666667" y="849.7777777777778"/>
      <point x="338.6666666666667" y="787.4444444444445" type="curve"/>
      <point x="220.55555555555554" y="714.6666666666666"/>
      <point x="135.77777777777777" y="577.5555555555555"/>
      <point x="135.77777777777777" y="409.3333333333333" type="curve" smooth="yes"/>
      <point x="135.77777777777777" y="137.44444444444446"/>
      <point x="328.77777777777777" y="-32.22222222222222"/>
    </contour>
    <contour>
      <point x="1145.111111111111" y="-30.22222222222222" type="curve" smooth="yes"/>
      <point x="1252.0" y="-30.22222222222222"/>
      <point x="1332.7777777777778" y="-14.555555555555555"/>
      <point x="1400.888888888889" y="22.11111111111111" type="curve"/>
      <point x="1400.888888888889" y="228.77777777777777" type="line"/>
      <point x="1271.3333333333333" y="151.77777777777777"/>
      <point x="1248.0" y="140.55555555555554"/>
      <point x="1202.111111111111" y="140.55555555555554" type="curve" smooth="yes"/>
      <point x="1192.5555555555557" y="140.55555555555554"/>
      <point x="1200.111111111111" y="378.22222222222223"/>
      <point x="1200.111111111111" y="464.3333333333333" type="curve" smooth="yes"/>
      <point x="1200.111111111111" y="688.6666666666666" type="line"/>
      <point x="1345.111111111111" y="688.6666666666666" type="line"/>
      <point x="1345.111111111111" y="855.4444444444445" type="line"/>
      <point x="1200.111111111111" y="855.4444444444445" type="line"/>
      <point x="1200.111111111111" y="1147.6666666666667" type="line"/>
      <point x="1025.5555555555557" y="1147.6666666666667" type="line"/>
      <point x="1056.888888888889" y="953.8888888888889"/>
      <point x="959.7777777777778" y="855.4444444444445"/>
      <point x="766.1111111111111" y="855.4444444444445" type="curve" smooth="yes"/>
      <point x="674.3333333333334" y="855.4444444444445" type="line"/>
      <point x="654.6666666666666" y="688.6666666666666" type="line"/>
      <point x="895.8888888888889" y="688.6666666666666" type="line"/>
      <point x="895.8888888888889" y="237.22222222222223" type="line" smooth="yes"/>
      <point x="895.8888888888889" y="76.33333333333333"/>
      <point x="976.7777777777778" y="-30.22222222222222"/>
    </contour>
  </outline>
</glyph>
<glyph name="quotesingle" format="2">
  <advance width="451.0"/>
  <unicode hex="0027"/>
  <note>
quotesingle
</note>
  <outline>
    <contour>
      <point x="138.44444444444446" y="773.8888888888889" type="line"/>
      <point x="308.44444444444446" y="773.8888888888889" type="line"/>
      <point x="334.1111111111111" y="1365.3333333333333" type="line"/>
      <point x="118.33333333333333" y="1365.3333333333333" type="line"/>
    </contour>
  </outline>
</glyph>
<glyph name="parenleft" format="2">
  <advance width="700.4444444444445"/>
  <unicode hex="0028"/>
  <note>
parenleft
</note>
  <outline>
    <contour>
      <point x="489.6666666666667" y="-390.55555555555554" type="curve"/>
      <point x="603.2222222222222" y="-330.22222222222223" type="line"/>
      <point x="426.3333333333333" y="-14.666666666666657"/>
      <point x="332.55555555555554" y="286.0"/>
      <point x="332.55555555555554" y="590.4444444444445" type="curve" smooth="yes"/>
      <point x="332.55555555555554" y="893.6666666666666"/>
      <point x="426.44444444444446" y="1187.5555555555557"/>
      <point x="604.0" y="1530.4444444444443" type="curve"/>
      <point x="486.77777777777777" y="1575.6666666666667" type="line"/>
      <point x="227.33333333333334" y="1272.111111111111"/>
      <point x="103.33333333333333" y="959.7777777777778"/>
      <point x="103.33333333333333" y="599.3333333333334" type="curve" smooth="yes"/>
      <point x="103.33333333333333" y="245.55555555555554"/>
      <point x="224.0" y="-62.111111111111114"/>
    </contour>
  </outline>
</glyph>
<glyph name="parenright" format="2">
  <advance width="701.0"/>
  <unicode hex="0029"/>
  <note>
parenright
</note>
  <outline>
    <contour>
      <point x="211.77777777777777" y="-390.55555555555554" type="line"/>
      <point x="478.0" y="-62.111111111111114"/>
      <point x="597.6666666666666" y="245.55555555555554"/>
      <point x="597.6666666666666" y="599.3333333333334" type="curve" smooth="yes"/>
      <point x="597.6666666666666" y="958.7777777777778"/>
      <point x="473.55555555555554" y="1272.111111111111"/>
      <point x="213.66666666666669" y="1576.111111111111" type="curve"/>
      <point x="96.44444444444444" y="1530.4444444444443" type="line"/>
      <point x="275.44444444444446" y="1187.111111111111"/>
      <point x="368.3333333333333" y="891.4444444444445"/>
      <point x="368.3333333333333" y="590.4444444444445" type="curve" smooth="yes"/>
      <point x="368.3333333333333" y="284.44444444444446"/>
      <point x="273.55555555555554" y="-16.77777777777777"/>
      <point x="97.22222222222223" y="-330.22222222222223" type="curve"/>
    </contour>
  </outline>
</glyph>
<glyph name="asterisk" format="2">
  <advance width="917.3333333333334"/>
  <unicode hex="002A"/>
  <note>
asterisk
</note>
  <outline>
    <contour>
      <point x="474.6666666666667" y="1102.111111111111" type="line"/>
      <point x="622.4444444444445" y="1183.6666666666667"/>
      <point x="686.7777777777778" y="1173.5555555555557"/>
      <point x="733.3333333333334" y="1200.3333333333333" type="curve" smooth="yes"/>
      <point x="759.6666666666666" y="1215.7777777777778"/>
      <point x="742.5555555555555" y="1250.888888888889"/>
      <point x="794.4444444444445" y="1280.888888888889" type="curve"/>
      <point x="757.6666666666666" y="1345.0" type="line"/>
      <point x="705.7777777777778" y="1315.0"/>
      <point x="684.5555555555555" y="1344.888888888889"/>
      <point x="658.6666666666666" y="1329.3333333333333" type="curve" smooth="yes"/>
      <point x="612.1111111111111" y="1302.5555555555557"/>
      <point x="586.4444444444445" y="1244.5555555555557"/>
      <point x="443.22222222222223" y="1157.3333333333333" type="curve"/>
    </contour>
    <contour>
      <point x="160.22222222222223" y="914.4444444444445" type="line"/>
      <point x="211.66666666666666" y="944.0"/>
      <point x="233.88888888888889" y="912.0"/>
      <point x="260.22222222222223" y="927.5555555555555" type="curve" smooth="yes"/>
      <point x="306.77777777777777" y="954.3333333333334"/>
      <point x="330.44444444444446" y="1014.8888888888889"/>
      <point x="474.6666666666667" y="1102.111111111111" type="curve"/>
      <point x="443.22222222222223" y="1157.3333333333333" type="line"/>
      <point x="295.44444444444446" y="1076.2222222222222"/>
      <point x="232.55555555555554" y="1082.888888888889"/>
      <point x="185.55555555555554" y="1056.5555555555557" type="curve" smooth="yes"/>
      <point x="160.11111111111111" y="1041.5555555555557"/>
      <point x="174.77777777777777" y="1008.5555555555555"/>
      <point x="122.88888888888889" y="978.5555555555555" type="curve"/>
    </contour>
    <contour>
      <point x="421.3333333333333" y="762.0" type="curve"/>
      <point x="495.0" y="762.0" type="line"/>
      <point x="495.0" y="821.5555555555555"/>
      <point x="533.8888888888889" y="824.6666666666666"/>
      <point x="533.8888888888889" y="855.6666666666666" type="curve" smooth="yes"/>
      <point x="533.8888888888889" y="909.6666666666666"/>
      <point x="493.6666666666667" y="959.6666666666666"/>
      <point x="490.1111111111111" y="1128.4444444444443" type="curve"/>
      <point x="426.22222222222223" y="1128.4444444444443" type="line"/>
      <point x="422.6666666666667" y="960.1111111111111"/>
      <point x="385.0" y="909.2222222222222"/>
      <point x="385.0" y="855.6666666666666" type="curve" smooth="yes"/>
      <point x="385.0" y="824.2222222222222"/>
      <point x="421.3333333333333" y="821.5555555555555"/>
    </contour>
    <contour>
      <point x="442.22222222222223" y="1102.111111111111" type="curve"/>
      <point x="474.6666666666667" y="1156.7777777777778" type="line"/>
      <point x="330.8888888888889" y="1244.5555555555557"/>
      <point x="305.22222222222223" y="1302.5555555555557"/>
      <point x="259.22222222222223" y="1329.3333333333333" type="curve" smooth="yes"/>
      <point x="232.77777777777777" y="1344.888888888889"/>
      <point x="211.11111111111111" y="1314.4444444444443"/>
      <point x="159.22222222222223" y="1344.0" type="curve"/>
      <point x="122.88888888888889" y="1280.888888888889" type="line"/>
      <point x="174.33333333333334" y="1250.888888888889"/>
      <point x="157.66666666666666" y="1215.7777777777778"/>
      <point x="184.55555555555554" y="1200.3333333333333" type="curve" smooth="yes"/>
      <point x="230.55555555555554" y="1173.5555555555557"/>
      <point x="294.44444444444446" y="1182.6666666666667"/>
    </contour>
    <contour>
      <point x="657.1111111111111" y="927.5555555555555" type="curve" smooth="yes"/>
      <point x="684.0" y="912.0"/>
      <point x="706.2222222222222" y="944.0"/>
      <point x="757.1111111111111" y="914.4444444444445" type="curve"/>
      <point x="794.4444444444445" y="977.5555555555555" type="line"/>
      <point x="742.5555555555555" y="1007.5555555555555"/>
      <point x="757.7777777777778" y="1041.5555555555557"/>
      <point x="731.7777777777778" y="1056.5555555555557" type="curve" smooth="yes"/>
      <point x="685.3333333333334" y="1082.888888888889"/>
      <point x="622.0" y="1076.2222222222222"/>
      <point x="474.6666666666667" y="1156.7777777777778" type="curve"/>
      <point x="442.22222222222223" y="1102.111111111111" type="line"/>
      <point x="586.8888888888889" y="1013.8888888888889"/>
      <point x="611.1111111111111" y="954.3333333333334"/>
    </contour>
    <contour>
      <point x="426.22222222222223" y="1128.4444444444443" type="curve"/>
      <point x="490.1111111111111" y="1128.4444444444443" type="line"/>
      <point x="493.6666666666667" y="1297.2222222222222"/>
      <point x="533.8888888888889" y="1346.7777777777778"/>
      <point x="533.8888888888889" y="1401.2222222222222" type="curve" smooth="yes"/>
      <point x="533.8888888888889" y="1432.2222222222222"/>
      <point x="495.0" y="1435.3333333333333"/>
      <point x="495.0" y="1494.888888888889" type="curve"/>
      <point x="421.3333333333333" y="1494.888888888889" type="line"/>
      <point x="421.3333333333333" y="1434.888888888889"/>
      <point x="385.0" y="1432.2222222222222"/>
      <point x="385.0" y="1401.2222222222222" type="curve" smooth="yes"/>
      <point x="385.0" y="1347.6666666666667"/>
      <point x="422.6666666666667" y="1296.7777777777778"/>
    </contour>
  </outline>
</glyph>
<glyph name="plus" format="2">
  <advance width="1160.888888888889"/>
  <unicode hex="002B"/>
  <note>
plus
</note>
  <outline>
    <contour>
      <point x="141.11111111111111" y="527.1111111111111" type="line"/>
      <point x="1019.7777777777778" y="527.1111111111111" type="line"/>
      <point x="1019.7777777777778" y="808.2222222222222" type="line"/>
      <point x="141.11111111111111" y="808.2222222222222" type="line"/>
    </contour>
    <contour>
      <point x="478.0" y="228.33333333333334" type="line"/>
      <point x="682.3333333333334" y="228.33333333333334" type="line"/>
      <point x="682.3333333333334" y="1107.0" type="line"/>
      <point x="478.0" y="1107.0" type="line"/>
    </contour>
  </outline>
</glyph>
<glyph name="comma" format="2">
  <advance width="646.6666666666666"/>
  <unicode hex="002C"/>
  <note>
comma
</note>
  <outline>
    <contour>
      <point x="125.77777777777777" y="-178.66666666666666" type="curve"/>
      <point x="348.66666666666663" y="-178.66666666666666" type="line"/>
      <point x="417.1111111111111" y="-63.55555555555556"/>
      <point x="490.1111111111111" y="110.11111111111111"/>
      <point x="523.3333333333334" y="242.77777777777777" type="curve"/>
      <point x="253.33333333333334" y="242.77777777777777" type="line"/>
      <point x="206.44444444444446" y="149.55555555555554"/>
      <point x="147.88888888888889" y="-34.77777777777778"/>
    </contour>
  </outline>
</glyph>
<glyph name="hyphen" format="2">
  <advance width="834.7777777777778"/>
  <unicode hex="002D"/>
  <note>
hyphen
</note>
  <outline>
    <contour>
      <point x="77.66666666666667" y="416.1111111111111" type="line"/>
      <point x="669.8888888888889" y="416.1111111111111" type="line"/>
      <point x="757.5555555555555" y="669.5555555555555" type="line"/>
      <point x="163.33333333333331" y="669.5555555555555" type="line"/>
    </contour>
  </outline>
</glyph>
<glyph name="period" format="2">
  <advance width="664.8888888888889"/>
  <unicode hex="002E"/>
  <note>
period
</note>
  <outline>
    <contour>
      <point x="332.44444444444446" y="-18.555555555555557" type="curve" smooth="yes"/>
      <point x="431.44444444444446" y="-18.555555555555557"/>
      <point x="504.8888888888889" y="51.33333333333333"/>
      <point x="504.8888888888889" y="154.33333333333331" type="curve" smooth="yes"/>
      <point x="504.8888888888889" y="257.33333333333337"/>
      <point x="431.44444444444446" y="327.22222222222223"/>
      <point x="332.44444444444446" y="327.22222222222223" type="curve" smooth="yes"/>
      <point x="233.44444444444446" y="327.22222222222223"/>
      <point x="160.0" y="257.33333333333337"/>
      <point x="160.0" y="154.33333333333331" type="curve" smooth="yes"/>
      <point x="160.0" y="51.77777777777778"/>
      <point x="233.0" y="-18.555555555555557"/>
    </contour>
  </outline>
</glyph>
<glyph name="slash" format="2">
  <advance width="855.2222222222222"/>
  <unicode hex="002F"/>
  <note>
slash
</note>
  <outline>
    <contour>
      <point x="71.33333333333333" y="-385.22222222222223" type="line"/>
      <point x="259.22222222222223" y="-385.22222222222223" type="line"/>
      <point x="783.8888888888889" y="1495.5555555555557" type="line"/>
      <point x="596.4444444444445" y="1495.5555555555557" type="line"/>
    </contour>
  </outline>
</glyph>
<glyph name="zero" format="2">
  <advance width="1487.6666666666667"/>
  <unicode hex="0030"/>
  <note>
zero
</note>
  <anchor x="733.5555555555555" y="714.4444444444445" name="center"/>
  <outline>
    <contour>
      <point x="743.5555555555555" y="-31.22222222222222" type="curve" smooth="yes"/>
      <point x="1109.3333333333333" y="-31.22222222222222"/>
      <point x="1383.888888888889" y="289.0"/>
      <point x="1383.888888888889" y="714.4444444444445" type="curve" smooth="yes"/>
      <point x="1383.888888888889" y="1118.5555555555557"/>
      <point x="1089.0" y="1462.3333333333333"/>
      <point x="743.5555555555555" y="1462.3333333333333" type="curve" smooth="yes"/>
      <point x="394.55555555555554" y="1462.3333333333333"/>
      <point x="103.77777777777777" y="1121.6666666666667"/>
      <point x="103.77777777777777" y="714.4444444444445" type="curve" smooth="yes"/>
      <point x="103.77777777777777" y="295.77777777777777"/>
      <point x="383.55555555555554" y="-31.22222222222222"/>
    </contour>
    <contour>
      <point x="743.5555555555555" y="135.0" type="curve" smooth="yes"/>
      <point x="554.0" y="135.0"/>
      <point x="418.77777777777777" y="375.55555555555554"/>
      <point x="418.77777777777777" y="714.4444444444445" type="curve" smooth="yes"/>
      <point x="418.77777777777777" y="1052.888888888889"/>
      <point x="554.0" y="1296.0"/>
      <point x="743.5555555555555" y="1296.0" type="curve" smooth="yes"/>
      <point x="933.1111111111111" y="1296.0"/>
      <point x="1069.0" y="1050.888888888889"/>
      <point x="1069.0" y="714.4444444444445" type="curve" smooth="yes"/>
      <point x="1069.0" y="378.1111111111111"/>
      <point x="934.1111111111111" y="135.0"/>
    </contour>
  </outline>
</glyph>
<glyph name="one" format="2">
  <advance width="769.2222222222222"/>
  <unicode hex="0031"/>
  <note>
one
</note>
  <outline>
    <contour>
      <point x="339.0" y="-0.4444444444444444" type="line"/>
      <point x="635.8888888888889" y="-0.4444444444444444" type="line"/>
      <point x="635.8888888888889" y="1422.6666666666667" type="line"/>
      <point x="495.22222222222223" y="1422.6666666666667" type="line"/>
      <point x="94.33333333333333" y="897.3333333333334" type="line"/>
      <point x="184.11111111111111" y="821.8888888888889" type="line"/>
      <point x="400.6666666666667" y="1058.111111111111" type="line"/>
      <point x="339.0" y="1106.3333333333333" type="line"/>
    </contour>
  </outline>
</glyph>
<glyph name="two" format="2">
  <advance width="1290.5555555555557"/>
  <unicode hex="0032"/>
  <note>
two
</note>
  <outline>
    <contour>
      <point x="94.33333333333333" y="0.0" type="line"/>
      <point x="1188.111111111111" y="0.0" type="line"/>
      <point x="1188.111111111111" y="229.77777777777777" type="line"/>
      <point x="418.22222222222223" y="229.77777777777777" type="line"/>
      <point x="382.77777777777777" y="127.0" type="line"/>
      <point x="674.8888888888889" y="338.55555555555554"/>
      <point x="876.1111111111111" y="525.4444444444445"/>
      <point x="928.2222222222222" y="574.6666666666666" type="curve" smooth="yes"/>
      <point x="1046.111111111111" y="691.4444444444445"/>
      <point x="1156.4444444444443" y="803.0"/>
      <point x="1156.4444444444443" y="1005.3333333333334" type="curve" smooth="yes"/>
      <point x="1156.4444444444443" y="1274.4444444444443"/>
      <point x="977.7777777777778" y="1462.6666666666667"/>
      <point x="665.2222222222222" y="1462.6666666666667" type="curve" smooth="yes"/>
      <point x="359.0" y="1462.6666666666667"/>
      <point x="168.44444444444446" y="1284.0"/>
      <point x="168.44444444444446" y="1078.0" type="curve" smooth="yes"/>
      <point x="168.44444444444446" y="1058.888888888889"/>
      <point x="170.0" y="1031.5555555555557"/>
      <point x="179.22222222222223" y="970.5555555555555" type="curve"/>
      <point x="438.1111111111111" y="975.7777777777778" type="line"/>
      <point x="438.1111111111111" y="1055.0" type="line" smooth="yes"/>
      <point x="438.1111111111111" y="1159.111111111111"/>
      <point x="492.55555555555554" y="1310.0"/>
      <point x="650.1111111111111" y="1310.0" type="curve" smooth="yes"/>
      <point x="743.4444444444445" y="1310.0"/>
      <point x="867.4444444444445" y="1268.7777777777778"/>
      <point x="867.4444444444445" y="1077.4444444444443" type="curve" smooth="yes"/>
      <point x="867.4444444444445" y="939.2222222222222"/>
      <point x="789.2222222222222" y="697.2222222222222"/>
      <point x="554.1111111111111" y="460.77777777777777" type="curve" smooth="yes"/>
    </contour>
  </outline>
</glyph>
<glyph name="three" format="2">
  <advance width="1237.3333333333333"/>
  <unicode hex="0033"/>
  <note>
three
</note>
  <outline>
    <contour>
      <point x="592.7777777777778" y="-24.11111111111111" type="curve" smooth="yes"/>
      <point x="929.1111111111111" y="-24.11111111111111"/>
      <point x="1135.5555555555557" y="142.66666666666666"/>
      <point x="1135.5555555555557" y="407.55555555555554" type="curve" smooth="yes"/>
      <point x="1135.5555555555557" y="615.1111111111111"/>
      <point x="1006.0" y="755.0"/>
      <point x="775.5555555555555" y="809.6666666666666" type="curve"/>
      <point x="724.4444444444445" y="684.5555555555555" type="line"/>
      <point x="955.3333333333333" y="717.0"/>
      <point x="1100.888888888889" y="863.7777777777778"/>
      <point x="1100.888888888889" y="1071.3333333333333" type="curve" smooth="yes"/>
      <point x="1100.888888888889" y="1303.6666666666667"/>
      <point x="925.4444444444445" y="1462.3333333333333"/>
      <point x="627.7777777777778" y="1462.3333333333333" type="curve" smooth="yes"/>
      <point x="303.44444444444446" y="1462.3333333333333"/>
      <point x="135.11111111111111" y="1277.2222222222222"/>
      <point x="128.44444444444446" y="1058.111111111111" type="curve"/>
      <point x="384.55555555555554" y="1056.5555555555557" type="line"/>
      <point x="380.8888888888889" y="1127.888888888889"/>
      <point x="432.77777777777777" y="1310.111111111111"/>
      <point x="622.7777777777778" y="1310.111111111111" type="curve" smooth="yes"/>
      <point x="765.7777777777778" y="1310.111111111111"/>
      <point x="832.0" y="1203.111111111111"/>
      <point x="832.0" y="1060.5555555555557" type="curve" smooth="yes"/>
      <point x="832.0" y="895.8888888888889"/>
      <point x="742.5555555555555" y="807.0"/>
      <point x="578.2222222222222" y="807.0" type="curve" smooth="yes"/>
      <point x="342.44444444444446" y="807.0" type="line"/>
      <point x="342.44444444444446" y="684.5555555555555" type="line"/>
      <point x="582.2222222222222" y="684.5555555555555" type="line" smooth="yes"/>
      <point x="733.7777777777778" y="684.5555555555555"/>
      <point x="840.8888888888889" y="584.8888888888889"/>
      <point x="840.8888888888889" y="411.3333333333333" type="curve" smooth="yes"/>
      <point x="840.8888888888889" y="255.0"/>
      <point x="753.6666666666666" y="121.77777777777777"/>
      <point x="598.7777777777778" y="121.77777777777777" type="curve" smooth="yes"/>
      <point x="461.22222222222223" y="121.77777777777777"/>
      <point x="377.1111111111111" y="228.22222222222223"/>
      <point x="377.1111111111111" y="368.8888888888889" type="curve" smooth="yes"/>
      <point x="377.1111111111111" y="396.55555555555554" type="line"/>
      <point x="99.33333333333333" y="396.55555555555554" type="line"/>
      <point x="99.33333333333333" y="365.22222222222223" type="line" smooth="yes"/>
      <point x="99.33333333333333" y="122.77777777777777"/>
      <point x="276.22222222222223" y="-24.11111111111111"/>
    </contour>
  </outline>
</glyph>
<glyph name="four" format="2">
  <advance width="1297.7777777777778"/>
  <unicode hex="0034"/>
  <note>
four
</note>
  <outline>
    <contour>
      <point x="762.5555555555555" y="0.0" type="line"/>
      <point x="1009.3333333333334" y="0.0" type="line"/>
      <point x="1009.3333333333334" y="475.8888888888889" type="line"/>
      <point x="816.7777777777778" y="325.55555555555554" type="line"/>
      <point x="1198.3333333333333" y="325.55555555555554" type="line"/>
      <point x="1198.3333333333333" y="521.1111111111111" type="line"/>
      <point x="816.7777777777778" y="521.1111111111111" type="line"/>
      <point x="1009.3333333333334" y="354.77777777777777" type="line"/>
      <point x="1009.3333333333334" y="818.3333333333334" type="line"/>
      <point x="762.5555555555555" y="818.3333333333334" type="line"/>
      <point x="762.5555555555555" y="354.77777777777777" type="line"/>
      <point x="913.7777777777778" y="521.1111111111111" type="line"/>
      <point x="281.55555555555554" y="521.1111111111111" type="line"/>
      <point x="385.22222222222223" y="429.55555555555554" type="line"/>
      <point x="522.1111111111111" y="767.0"/>
      <point x="638.6666666666666" y="1084.3333333333333"/>
      <point x="752.8888888888889" y="1455.5555555555557" type="curve"/>
      <point x="524.7777777777778" y="1455.5555555555557" type="line"/>
      <point x="392.8888888888889" y="1055.888888888889"/>
      <point x="259.22222222222223" y="707.0"/>
      <point x="94.88888888888889" y="325.55555555555554" type="curve"/>
      <point x="913.7777777777778" y="325.55555555555554" type="line"/>
      <point x="762.5555555555555" y="475.8888888888889" type="line"/>
    </contour>
  </outline>
</glyph>
<glyph name="five" format="2">
  <advance width="1183.4444444444443"/>
  <unicode hex="0035"/>
  <note>
five
</note>
  <outline>
    <contour>
      <point x="536.0" y="-35.888888888888886" type="curve" smooth="yes"/>
      <point x="857.5555555555555" y="-35.888888888888886"/>
      <point x="1083.111111111111" y="193.44444444444446"/>
      <point x="1083.111111111111" y="465.55555555555554" type="curve" smooth="yes"/>
      <point x="1083.111111111111" y="729.5555555555555"/>
      <point x="849.2222222222222" y="894.1111111111111"/>
      <point x="582.3333333333334" y="894.1111111111111" type="curve" smooth="yes"/>
      <point x="426.77777777777777" y="894.1111111111111"/>
      <point x="341.44444444444446" y="831.5555555555555"/>
      <point x="262.0" y="753.7777777777778" type="curve"/>
      <point x="339.8888888888889" y="746.3333333333334" type="line"/>
      <point x="441.77777777777777" y="1308.5555555555557" type="line"/>
      <point x="267.44444444444446" y="1202.2222222222222" type="line"/>
      <point x="977.1111111111111" y="1202.2222222222222" type="line"/>
      <point x="977.1111111111111" y="1430.0" type="line"/>
      <point x="292.6666666666667" y="1430.0" type="line"/>
      <point x="163.33333333333334" y="711.7777777777778" type="line"/>
      <point x="272.44444444444446" y="646.1111111111111" type="line"/>
      <point x="342.44444444444446" y="696.6666666666666"/>
      <point x="458.55555555555554" y="715.3333333333334"/>
      <point x="519.0" y="715.3333333333334" type="curve" smooth="yes"/>
      <point x="722.3333333333334" y="715.3333333333334"/>
      <point x="805.4444444444445" y="619.3333333333334"/>
      <point x="805.4444444444445" y="440.44444444444446" type="curve" smooth="yes"/>
      <point x="805.4444444444445" y="238.11111111111111"/>
      <point x="687.4444444444445" y="141.33333333333334"/>
      <point x="528.0" y="141.33333333333334" type="curve" smooth="yes"/>
      <point x="386.22222222222223" y="141.33333333333334"/>
      <point x="234.88888888888889" y="212.33333333333331"/>
      <point x="158.55555555555554" y="263.8888888888889" type="curve"/>
      <point x="94.88888888888889" y="127.66666666666667" type="line"/>
      <point x="200.44444444444446" y="47.33333333333333"/>
      <point x="345.0" y="-35.888888888888886"/>
    </contour>
  </outline>
</glyph>
<glyph name="six" format="2">
  <advance width="1244.0"/>
  <unicode hex="0036"/>
  <note>
six
</note>
  <outline>
    <contour>
      <point x="623.7777777777778" y="-32.44444444444444" type="curve" smooth="yes"/>
      <point x="972.6666666666666" y="-33.333333333333336"/>
      <point x="1142.111111111111" y="160.0"/>
      <point x="1142.111111111111" y="448.6666666666667" type="curve" smooth="yes"/>
      <point x="1142.111111111111" y="736.0"/>
      <point x="966.7777777777778" y="929.8888888888889"/>
      <point x="653.5555555555555" y="929.8888888888889" type="curve" smooth="yes"/>
      <point x="531.2222222222222" y="929.8888888888889"/>
      <point x="353.44444444444446" y="883.4444444444445"/>
      <point x="241.0" y="680.8888888888889" type="curve"/>
      <point x="358.55555555555554" y="707.6666666666666" type="line"/>
      <point x="365.44444444444446" y="831.6666666666666"/>
      <point x="386.55555555555554" y="898.6666666666666"/>
      <point x="455.44444444444446" y="1009.6666666666666" type="curve" smooth="yes"/>
      <point x="517.6666666666666" y="1129.5555555555557"/>
      <point x="645.6666666666666" y="1254.888888888889"/>
      <point x="868.8888888888889" y="1273.7777777777778" type="curve"/>
      <point x="865.7777777777778" y="1473.6666666666667" type="line"/>
      <point x="513.1111111111111" y="1457.4444444444443"/>
      <point x="336.22222222222223" y="1241.5555555555557"/>
      <point x="261.55555555555554" y="1114.111111111111" type="curve" smooth="yes"/>
      <point x="114.0" y="888.4444444444445"/>
      <point x="105.33333333333333" y="618.2222222222222"/>
      <point x="105.33333333333333" y="519.4444444444445" type="curve" smooth="yes"/>
      <point x="105.33333333333333" y="107.0"/>
      <point x="328.55555555555554" y="-31.555555555555557"/>
    </contour>
    <contour>
      <point x="631.8888888888889" y="152.11111111111111" type="curve" smooth="yes"/>
      <point x="473.22222222222223" y="153.0"/>
      <point x="386.22222222222223" y="283.77777777777777"/>
      <point x="387.1111111111111" y="458.8888888888889" type="curve" smooth="yes"/>
      <point x="388.0" y="665.4444444444445"/>
      <point x="521.8888888888889" y="736.0"/>
      <point x="648.4444444444445" y="736.0" type="curve" smooth="yes"/>
      <point x="817.8888888888889" y="736.0"/>
      <point x="871.2222222222222" y="605.6666666666666"/>
      <point x="871.2222222222222" y="448.3333333333333" type="curve" smooth="yes"/>
      <point x="871.2222222222222" y="245.44444444444446"/>
      <point x="766.5555555555555" y="151.66666666666669"/>
    </contour>
  </outline>
</glyph>
<glyph name="seven" format="2">
  <advance width="1233.888888888889"/>
  <unicode hex="0037"/>
  <note>
seven
</note>
  <outline>
    <contour>
      <point x="345.77777777777777" y="0.0" type="curve"/>
      <point x="613.2222222222222" y="0.0" type="line"/>
      <point x="725.2222222222222" y="569.1111111111111"/>
      <point x="910.1111111111111" y="1049.111111111111"/>
      <point x="1139.5555555555557" y="1421.7777777777778" type="curve"/>
      <point x="101.0" y="1421.7777777777778" type="line"/>
      <point x="101.0" y="1178.888888888889" type="line"/>
      <point x="909.7777777777778" y="1178.888888888889" type="line"/>
      <point x="827.3333333333334" y="1294.7777777777778" type="line"/>
      <point x="674.8888888888889" y="1060.0"/>
      <point x="491.3333333333333" y="600.8888888888889"/>
    </contour>
  </outline>
</glyph>
<glyph name="eight" format="2">
  <advance width="1228.7777777777778"/>
  <unicode hex="0038"/>
  <note>
eight
</note>
  <outline>
    <contour>
      <point x="599.0" y="-31.555555555555557" type="curve" smooth="yes"/>
      <point x="925.1111111111111" y="-31.555555555555557"/>
      <point x="1128.4444444444443" y="134.22222222222223"/>
      <point x="1128.4444444444443" y="399.6666666666667" type="curve" smooth="yes"/>
      <point x="1128.4444444444443" y="629.5555555555555"/>
      <point x="960.5555555555555" y="782.0"/>
      <point x="652.6666666666666" y="877.1111111111111" type="curve" smooth="yes"/>
      <point x="487.44444444444446" y="929.1111111111111"/>
      <point x="418.55555555555554" y="1002.4444444444445"/>
      <point x="418.55555555555554" y="1107.4444444444443" type="curve" smooth="yes"/>
      <point x="418.55555555555554" y="1225.2222222222222"/>
      <point x="502.55555555555554" y="1304.888888888889"/>
      <point x="651.5555555555555" y="1304.888888888889" type="curve" smooth="yes"/>
      <point x="795.5555555555555" y="1304.888888888889"/>
      <point x="864.5555555555555" y="1209.7777777777778"/>
      <point x="864.5555555555555" y="1100.2222222222222" type="curve" smooth="yes"/>
      <point x="864.5555555555555" y="1017.6666666666666"/>
      <point x="842.8888888888889" y="905.7777777777778"/>
      <point x="462.44444444444446" y="806.2222222222222" type="curve"/>
      <point x="754.0" y="740.7777777777778" type="line"/>
      <point x="922.5555555555555" y="798.6666666666666"/>
      <point x="1048.3333333333333" y="932.1111111111111"/>
      <point x="1048.3333333333333" y="1098.7777777777778" type="curve" smooth="yes"/>
      <point x="1048.3333333333333" y="1311.5555555555557"/>
      <point x="851.1111111111111" y="1450.3333333333333"/>
      <point x="614.4444444444445" y="1449.7777777777778" type="curve" smooth="yes"/>
      <point x="347.0" y="1448.7777777777778"/>
      <point x="166.88888888888889" y="1300.0"/>
      <point x="166.88888888888889" y="1072.111111111111" type="curve" smooth="yes"/>
      <point x="166.88888888888889" y="873.3333333333334"/>
      <point x="326.55555555555554" y="728.4444444444445"/>
      <point x="539.6666666666666" y="660.4444444444445" type="curve" smooth="yes"/>
      <point x="785.8888888888889" y="580.2222222222222"/>
      <point x="864.0" y="508.8888888888889"/>
      <point x="864.0" y="384.55555555555554" type="curve" smooth="yes"/>
      <point x="864.0" y="213.77777777777777"/>
      <point x="758.5555555555555" y="123.44444444444446"/>
      <point x="574.3333333333334" y="123.44444444444446" type="curve" smooth="yes"/>
      <point x="387.8888888888889" y="123.44444444444446"/>
      <point x="302.77777777777777" y="235.22222222222223"/>
      <point x="302.22222222222223" y="376.55555555555554" type="curve" smooth="yes"/>
      <point x="301.22222222222223" y="490.1111111111111"/>
      <point x="329.8888888888889" y="605.7777777777778"/>
      <point x="601.7777777777778" y="744.0" type="curve"/>
      <point x="423.6666666666667" y="802.6666666666666" type="line"/>
      <point x="218.88888888888889" y="726.4444444444445"/>
      <point x="100.33333333333333" y="570.5555555555555"/>
      <point x="100.33333333333333" y="372.1111111111111" type="curve" smooth="yes"/>
      <point x="100.33333333333333" y="117.66666666666667"/>
      <point x="291.0" y="-31.555555555555557"/>
    </contour>
  </outline>
</glyph>
<glyph name="nine" format="2">
  <advance width="1244.0"/>
  <unicode hex="0039"/>
  <note>
nine
</note>
  <outline>
    <contour>
      <point x="288.44444444444446" y="-47.111111111111114" type="line"/>
      <point x="590.4444444444445" y="-35.666666666666664"/>
      <point x="737.1111111111111" y="36.111111111111114"/>
      <point x="834.2222222222222" y="117.66666666666666" type="curve" smooth="yes"/>
      <point x="916.6666666666666" y="187.22222222222223"/>
      <point x="977.8888888888889" y="282.55555555555554"/>
      <point x="1016.6666666666666" y="351.77777777777777" type="curve" smooth="yes"/>
      <point x="1138.0" y="567.4444444444445"/>
      <point x="1138.6666666666667" y="814.1111111111111"/>
      <point x="1138.6666666666667" y="907.1111111111111" type="curve" smooth="yes"/>
      <point x="1138.6666666666667" y="1319.5555555555557"/>
      <point x="915.0" y="1458.111111111111"/>
      <point x="620.2222222222222" y="1459.0" type="curve" smooth="yes"/>
      <point x="295.8888888888889" y="1459.888888888889"/>
      <point x="101.88888888888889" y="1265.4444444444443"/>
      <point x="101.88888888888889" y="970.5555555555555" type="curve" smooth="yes"/>
      <point x="101.88888888888889" y="668.1111111111111"/>
      <point x="292.8888888888889" y="474.22222222222223"/>
      <point x="590.0" y="474.22222222222223" type="curve" smooth="yes"/>
      <point x="712.7777777777778" y="474.22222222222223"/>
      <point x="868.1111111111111" y="532.6666666666666"/>
      <point x="1003.0" y="746.1111111111111" type="curve"/>
      <point x="877.6666666666666" y="718.8888888888889" type="line"/>
      <point x="879.1111111111111" y="627.2222222222222"/>
      <point x="885.1111111111111" y="554.5555555555555"/>
      <point x="816.7777777777778" y="444.0" type="curve" smooth="yes"/>
      <point x="755.1111111111111" y="324.1111111111111"/>
      <point x="630.6666666666666" y="199.88888888888889"/>
      <point x="317.6666666666667" y="188.77777777777777" type="curve"/>
    </contour>
    <contour>
      <point x="596.1111111111111" y="680.1111111111111" type="curve" smooth="yes"/>
      <point x="428.22222222222223" y="680.1111111111111"/>
      <point x="380.1111111111111" y="820.8888888888889"/>
      <point x="380.1111111111111" y="970.8888888888889" type="curve" smooth="yes"/>
      <point x="380.1111111111111" y="1176.888888888889"/>
      <point x="482.22222222222223" y="1270.6666666666667"/>
      <point x="612.6666666666666" y="1269.7777777777778" type="curve" smooth="yes"/>
      <point x="767.6666666666666" y="1269.3333333333333"/>
      <point x="850.0" y="1127.111111111111"/>
      <point x="849.1111111111111" y="960.3333333333334" type="curve" smooth="yes"/>
      <point x="848.2222222222222" y="750.6666666666666"/>
      <point x="715.3333333333334" y="680.1111111111111"/>
    </contour>
  </outline>
</glyph>
<glyph name="greater" format="2">
  <advance width="1160.888888888889"/>
  <unicode hex="003E"/>
  <note>
greater
</note>
  <outline>
    <contour>
      <point x="141.11111111111111" y="189.77777777777777" type="line"/>
      <point x="1047.7777777777778" y="577.8888888888889" type="line"/>
      <point x="1047.7777777777778" y="785.3333333333334" type="line"/>
      <point x="141.11111111111111" y="1172.4444444444443" type="line"/>
      <point x="141.11111111111111" y="933.5555555555555" type="line"/>
      <point x="737.7777777777778" y="682.4444444444445" type="line"/>
      <point x="141.11111111111111" y="429.22222222222223" type="line"/>
    </contour>
  </outline>
</glyph>
<glyph name="question" format="2">
  <advance width="1176.0"/>
  <unicode hex="003F"/>
  <note>
question
</note>
  <outline>
    <contour>
      <point x="485.77777777777777" y="490.22222222222223" type="curve"/>
      <point x="628.0" y="490.22222222222223" type="line"/>
      <point x="619.3333333333334" y="517.4444444444445"/>
      <point x="608.3333333333334" y="596.1111111111111"/>
      <point x="608.3333333333334" y="632.4444444444445" type="curve" smooth="yes"/>
      <point x="608.3333333333334" y="864.7777777777778"/>
      <point x="1055.0" y="813.5555555555555"/>
      <point x="1055.0" y="1140.111111111111" type="curve" smooth="yes"/>
      <point x="1055.0" y="1346.0"/>
      <point x="871.1111111111111" y="1462.5555555555557"/>
      <point x="548.8888888888889" y="1462.5555555555557" type="curve" smooth="yes"/>
      <point x="253.66666666666666" y="1462.5555555555557"/>
      <point x="119.0" y="1364.5555555555557"/>
      <point x="119.0" y="1149.888888888889" type="curve" smooth="yes"/>
      <point x="119.0" y="1131.2222222222222"/>
      <point x="119.0" y="1117.4444444444443"/>
      <point x="119.0" y="1080.111111111111" type="curve"/>
      <point x="348.77777777777777" y="1080.111111111111" type="line"/>
      <point x="336.8888888888889" y="1106.7777777777778"/>
      <point x="335.33333333333337" y="1158.2222222222222"/>
      <point x="335.33333333333337" y="1168.5555555555557" type="curve" smooth="yes"/>
      <point x="335.33333333333337" y="1252.6666666666667"/>
      <point x="429.55555555555554" y="1297.2222222222222"/>
      <point x="547.4444444444445" y="1297.2222222222222" type="curve" smooth="yes"/>
      <point x="684.8888888888889" y="1297.2222222222222"/>
      <point x="792.0" y="1264.888888888889"/>
      <point x="792.0" y="1130.4444444444443" type="curve" smooth="yes"/>
      <point x="792.0" y="894.2222222222222"/>
      <point x="462.44444444444446" y="958.8888888888889"/>
      <point x="462.44444444444446" y="621.4444444444445" type="curve" smooth="yes"/>
      <point x="462.44444444444446" y="561.8888888888889"/>
      <point x="473.22222222222223" y="530.7777777777778"/>
    </contour>
    <contour>
      <point x="557.3333333333334" y="-24.333333333333336" type="curve" smooth="yes"/>
      <point x="651.8888888888889" y="-24.333333333333336"/>
      <point x="718.2222222222222" y="47.333333333333336"/>
      <point x="718.2222222222222" y="145.0" type="curve" smooth="yes"/>
      <point x="718.2222222222222" y="242.22222222222223"/>
      <point x="651.8888888888889" y="313.44444444444446"/>
      <point x="557.3333333333334" y="313.44444444444446" type="curve" smooth="yes"/>
      <point x="462.77777777777777" y="313.44444444444446"/>
      <point x="396.44444444444446" y="242.22222222222223"/>
      <point x="396.44444444444446" y="145.0" type="curve" smooth="yes"/>
      <point x="396.44444444444446" y="47.333333333333336"/>
      <point x="462.77777777777777" y="-24.333333333333336"/>
    </contour>
  </outline>
</glyph>
<glyph name="at" format="2">
  <advance width="1863.111111111111"/>
  <unicode hex="0040"/>
  <note>
at
</note>
  <outline>
    <contour>
      <point x="964.2222222222222" y="-40.44444444444444" type="curve" smooth="yes"/>
      <point x="1292.5555555555557" y="-40.44444444444444"/>
      <point x="1587.2222222222222" y="138.77777777777777"/>
      <point x="1731.4444444444443" y="429.22222222222223" type="curve"/>
      <point x="1535.7777777777778" y="429.44444444444446" type="line"/>
      <point x="1418.888888888889" y="236.88888888888889"/>
      <point x="1206.888888888889" y="119.33333333333334"/>
      <point x="963.3333333333334" y="119.33333333333334" type="curve" smooth="yes"/>
      <point x="603.3333333333334" y="119.33333333333334"/>
      <point x="308.6666666666667" y="386.3333333333333"/>
      <point x="308.6666666666667" y="711.3333333333334" type="curve" smooth="yes"/>
      <point x="308.6666666666667" y="1036.3333333333333"/>
      <point x="603.3333333333334" y="1302.7777777777778"/>
      <point x="963.3333333333334" y="1302.7777777777778" type="curve" smooth="yes"/>
      <point x="1279.2222222222222" y="1302.7777777777778"/>
      <point x="1510.6666666666667" y="1101.6666666666667"/>
      <point x="1510.6666666666667" y="827.6666666666666" type="curve" smooth="yes"/>
      <point x="1510.6666666666667" y="735.1111111111111"/>
      <point x="1484.6666666666667" y="651.1111111111111"/>
      <point x="1436.4444444444443" y="588.0" type="curve" smooth="yes"/>
      <point x="1411.5555555555557" y="553.1111111111111"/>
      <point x="1363.5555555555557" y="477.22222222222223"/>
      <point x="1313.111111111111" y="425.55555555555554" type="curve" smooth="yes"/>
      <point x="1288.3333333333333" y="433.3333333333333"/>
      <point x="1263.3333333333333" y="443.22222222222223"/>
      <point x="1259.6666666666667" y="468.0" type="curve"/>
      <point x="1431.3333333333333" y="1110.5555555555557" type="line"/>
      <point x="1153.888888888889" y="1110.5555555555557" type="line"/>
      <point x="1143.4444444444443" y="1088.111111111111" type="line"/>
      <point x="1107.111111111111" y="1117.3333333333333"/>
      <point x="1050.4444444444443" y="1130.5555555555557"/>
      <point x="972.3333333333334" y="1130.5555555555557" type="curve" smooth="yes"/>
      <point x="679.1111111111111" y="1130.5555555555557"/>
      <point x="435.22222222222223" y="858.0"/>
      <point x="435.22222222222223" y="566.7777777777778" type="curve" smooth="yes"/>
      <point x="435.22222222222223" y="369.44444444444446"/>
      <point x="562.2222222222222" y="246.0"/>
      <point x="772.0" y="246.0" type="curve" smooth="yes"/>
      <point x="879.6666666666666" y="246.0"/>
      <point x="951.6666666666666" y="270.22222222222223"/>
      <point x="1031.111111111111" y="342.77777777777777" type="curve"/>
      <point x="1074.6666666666667" y="284.0"/>
      <point x="1114.111111111111" y="259.0"/>
      <point x="1207.111111111111" y="259.0" type="curve" smooth="yes"/>
      <point x="1285.5555555555557" y="259.0"/>
      <point x="1361.6666666666667" y="288.22222222222223"/>
      <point x="1437.2222222222222" y="343.8888888888889" type="curve" smooth="yes"/>
      <point x="1516.7777777777778" y="402.1111111111111"/>
      <point x="1564.0" y="455.8888888888889"/>
      <point x="1610.6666666666667" y="539.5555555555555" type="curve" smooth="yes"/>
      <point x="1659.3333333333333" y="628.1111111111111"/>
      <point x="1682.5555555555557" y="719.8888888888889"/>
      <point x="1682.5555555555557" y="824.4444444444445" type="curve" smooth="yes"/>
      <point x="1682.5555555555557" y="1205.6666666666667"/>
      <point x="1388.888888888889" y="1462.111111111111"/>
      <point x="964.2222222222222" y="1462.111111111111" type="curve" smooth="yes"/>
      <point x="505.22222222222223" y="1462.111111111111"/>
      <point x="137.77777777777777" y="1129.111111111111"/>
      <point x="137.77777777777777" y="711.3333333333334" type="curve" smooth="yes"/>
      <point x="137.77777777777777" y="292.0"/>
      <point x="503.6666666666667" y="-40.44444444444444"/>
    </contour>
    <contour>
      <point x="810.1111111111111" y="408.3333333333333" type="curve" smooth="yes"/>
      <point x="748.3333333333334" y="408.3333333333333"/>
      <point x="718.3333333333334" y="451.8888888888889"/>
      <point x="718.3333333333334" y="551.0" type="curve" smooth="yes"/>
      <point x="718.3333333333334" y="750.2222222222222"/>
      <point x="854.0" y="971.4444444444445"/>
      <point x="989.7777777777778" y="971.4444444444445" type="curve" smooth="yes"/>
      <point x="1042.5555555555557" y="971.4444444444445"/>
      <point x="1056.4444444444443" y="934.1111111111111"/>
      <point x="1056.4444444444443" y="844.8888888888889" type="curve" smooth="yes"/>
      <point x="1056.4444444444443" y="656.5555555555555"/>
      <point x="938.3333333333334" y="408.3333333333333"/>
    </contour>
  </outline>
</glyph>
<glyph name="A" format="2">
  <advance width="1636.2222222222222"/>
  <unicode hex="0041"/>
  <note>
A
</note>
  <anchor x="817.3333333333334" y="32.22222222222223" name="bottom"/>
  <anchor x="1271.5555555555557" y="0.0" name="ogonek"/>
  <anchor x="817.3333333333334" y="1430.0" name="top"/>
  <outline>
    <contour>
      <point x="100.33333333333333" y="0.0" type="line"/>
      <point x="270.44444444444446" y="0.0" type="line"/>
      <point x="760.0" y="1037.5555555555557" type="line"/>
      <point x="725.1111111111111" y="1056.0" type="line"/>
      <point x="1206.2222222222222" y="0.0" type="line"/>
      <point x="1535.888888888889" y="0.0" type="line"/>
      <point x="815.7777777777778" y="1475.888888888889" type="line"/>
    </contour>
    <contour>
      <point x="326.3333333333333" y="362.77777777777777" type="line"/>
      <point x="1156.3333333333333" y="362.77777777777777" type="line"/>
      <point x="1088.7777777777778" y="536.3333333333334" type="line"/>
      <point x="400.6666666666667" y="536.3333333333334" type="line"/>
    </contour>
  </outline>
</glyph>
<glyph name="B" format="2">
  <advance width="1368.111111111111"/>
  <unicode hex="0042"/>
  <note>
B
</note>
  <anchor x="663.4444444444445" y="32.22222222222223" name="bottom"/>
  <anchor x="663.4444444444445" y="1430.0" name="top"/>
  <outline>
    <contour>
      <point x="139.33333333333334" y="0.0" type="line"/>
      <point x="610.7777777777778" y="0.0" type="line" smooth="yes"/>
      <point x="1053.7777777777778" y="0.0"/>
      <point x="1261.7777777777778" y="136.0"/>
      <point x="1261.7777777777778" y="431.77777777777777" type="curve" smooth="yes"/>
      <point x="1261.7777777777778" y="640.3333333333334"/>
      <point x="1139.7777777777778" y="770.1111111111111"/>
      <point x="918.5555555555555" y="808.5555555555555" type="curve"/>
      <point x="905.6666666666667" y="707.6666666666666" type="line"/>
      <point x="1101.0" y="764.5555555555555"/>
      <point x="1193.888888888889" y="867.0"/>
      <point x="1193.888888888889" y="1028.7777777777778" type="curve" smooth="yes"/>
      <point x="1193.888888888889" y="1291.0"/>
      <point x="988.6666666666667" y="1435.2222222222222"/>
      <point x="615.2222222222222" y="1435.2222222222222" type="curve" smooth="yes"/>
      <point x="139.33333333333334" y="1435.2222222222222" type="line"/>
    </contour>
    <contour>
      <point x="449.44444444444446" y="11.444444444444445" type="line"/>
      <point x="449.44444444444446" y="803.6666666666666" type="line"/>
      <point x="338.6666666666667" y="675.1111111111111" type="line"/>
      <point x="658.3333333333334" y="675.1111111111111" type="line" smooth="yes"/>
      <point x="821.1111111111111" y="675.1111111111111"/>
      <point x="924.3333333333334" y="580.6666666666666"/>
      <point x="924.3333333333334" y="433.0" type="curve" smooth="yes"/>
      <point x="924.3333333333334" y="269.0"/>
      <point x="797.8888888888889" y="163.66666666666666"/>
      <point x="601.0" y="163.66666666666666" type="curve" smooth="yes"/>
      <point x="191.11111111111111" y="163.66666666666666" type="line"/>
    </contour>
    <contour>
      <point x="449.44444444444446" y="708.3333333333334" type="line"/>
      <point x="449.44444444444446" y="1413.3333333333333" type="line"/>
      <point x="181.88888888888889" y="1271.5555555555557" type="line"/>
      <point x="610.7777777777778" y="1271.5555555555557" type="line" smooth="yes"/>
      <point x="809.1111111111111" y="1271.5555555555557"/>
      <point x="864.3333333333334" y="1130.6666666666667"/>
      <point x="864.3333333333334" y="1012.8888888888889" type="curve" smooth="yes"/>
      <point x="864.3333333333334" y="881.7777777777778"/>
      <point x="792.1111111111111" y="838.4444444444445"/>
      <point x="615.2222222222222" y="838.4444444444445" type="curve" smooth="yes"/>
      <point x="367.33333333333337" y="838.4444444444445" type="line"/>
    </contour>
  </outline>
</glyph>
<glyph name="C" format="2">
  <advance width="1656.2222222222222"/>
  <unicode hex="0043"/>
  <note>
C
</note>
  <anchor x="800.4444444444445" y="32.22222222222223" name="bottom"/>
  <anchor x="850.44" y="1430.0" name="top"/>
  <outline>
    <contour>
      <point x="863.4444444444445" y="-35.55555555555556" type="curve" smooth="yes"/>
      <point x="1176.4444444444443" y="-35.55555555555556"/>
      <point x="1427.888888888889" y="125.55555555555556"/>
      <point x="1553.888888888889" y="419.0" type="curve"/>
      <point x="1245.7777777777778" y="419.0" type="line"/>
      <point x="1168.5555555555557" y="232.66666666666666"/>
      <point x="1034.888888888889" y="133.22222222222223"/>
      <point x="860.6666666666666" y="133.22222222222223" type="curve" smooth="yes"/>
      <point x="589.8888888888889" y="133.22222222222223"/>
      <point x="411.44444444444446" y="360.6666666666667"/>
      <point x="411.44444444444446" y="711.2222222222222" type="curve" smooth="yes"/>
      <point x="411.44444444444446" y="1062.3333333333333"/>
      <point x="590.0" y="1292.4444444444443"/>
      <point x="859.3333333333334" y="1292.4444444444443" type="curve" smooth="yes"/>
      <point x="1035.888888888889" y="1292.4444444444443"/>
      <point x="1173.4444444444443" y="1192.111111111111"/>
      <point x="1242.5555555555557" y="1007.6666666666666" type="curve"/>
      <point x="1539.7777777777778" y="1007.6666666666666" type="line"/>
      <point x="1461.0" y="1277.0"/>
      <point x="1168.4444444444443" y="1460.2222222222222"/>
      <point x="858.2222222222222" y="1460.2222222222222" type="curve" smooth="yes"/>
      <point x="430.6666666666667" y="1460.2222222222222"/>
      <point x="108.77777777777777" y="1133.0"/>
      <point x="108.77777777777777" y="712.8888888888889" type="curve" smooth="yes"/>
      <point x="108.77777777777777" y="289.44444444444446"/>
      <point x="428.8888888888889" y="-35.55555555555556"/>
    </contour>
  </outline>
</glyph>
<glyph name="D" format="2">
  <advance width="1537.0"/>
  <unicode hex="0044"/>
  <note>
D
</note>
  <anchor x="779.2222222222222" y="-4.888888888888889" name="bottom"/>
  <anchor x="296.55555555555554" y="715.0" name="center"/>
  <anchor x="779.2222222222222" y="1430.0" name="top"/>
  <outline>
    <contour>
      <point x="139.33333333333334" y="0.5555555555555556" type="line"/>
      <point x="586.3333333333334" y="0.5555555555555556" type="line" smooth="yes"/>
      <point x="892.3333333333333" y="0.5555555555555556"/>
      <point x="989.4444444444445" y="18.0"/>
      <point x="1156.111111111111" y="130.22222222222223" type="curve" smooth="yes"/>
      <point x="1298.6666666666667" y="224.88888888888889"/>
      <point x="1427.2222222222222" y="424.0"/>
      <point x="1427.2222222222222" y="717.1111111111111" type="curve" smooth="yes"/>
      <point x="1427.2222222222222" y="960.6666666666666"/>
      <point x="1332.2222222222222" y="1167.111111111111"/>
      <point x="1198.888888888889" y="1275.6666666666667" type="curve" smooth="yes"/>
      <point x="1025.888888888889" y="1416.5555555555557"/>
      <point x="920.2222222222222" y="1434.6666666666667"/>
      <point x="522.7777777777778" y="1434.6666666666667" type="curve" smooth="yes"/>
      <point x="139.33333333333334" y="1434.6666666666667" type="line"/>
    </contour>
    <contour>
      <point x="457.8888888888889" y="4.0" type="line"/>
      <point x="457.8888888888889" y="1431.2222222222222" type="line"/>
      <point x="196.44444444444446" y="1271.0" type="line"/>
      <point x="546.8888888888889" y="1271.0" type="line" smooth="yes"/>
      <point x="943.5555555555555" y="1271.0"/>
      <point x="1122.2222222222222" y="1121.0"/>
      <point x="1122.2222222222222" y="723.6666666666666" type="curve" smooth="yes"/>
      <point x="1122.2222222222222" y="322.0"/>
      <point x="937.8888888888889" y="164.22222222222223"/>
      <point x="545.6666666666666" y="164.22222222222223" type="curve" smooth="yes"/>
      <point x="196.44444444444446" y="164.22222222222223" type="line"/>
    </contour>
  </outline>
</glyph>
<glyph name="E" format="2">
  <advance width="1244.0"/>
  <unicode hex="0045"/>
  <note>
E
</note>
  <anchor x="601.3333333333334" y="32.22222222222223" name="bottom"/>
  <anchor x="1032.6666666666667" y="0.0" name="ogonek"/>
  <anchor x="648.6666666666666" y="1430.0" name="top"/>
  <anchor x="18.0" y="1430.0" name="topleft"/>
  <outline>
    <contour>
      <point x="139.33333333333334" y="0.0" type="line"/>
      <point x="1128.3333333333333" y="0.0" type="line"/>
      <point x="1128.3333333333333" y="163.66666666666666" type="line"/>
      <point x="275.8888888888889" y="163.66666666666666" type="line"/>
      <point x="449.44444444444446" y="9.222222222222221" type="line"/>
      <point x="449.44444444444446" y="807.1111111111111" type="line"/>
      <point x="227.11111111111111" y="648.7777777777778" type="line"/>
      <point x="1128.3333333333333" y="648.7777777777778" type="line"/>
      <point x="1128.3333333333333" y="812.4444444444445" type="line"/>
      <point x="275.8888888888889" y="812.4444444444445" type="line"/>
      <point x="449.44444444444446" y="658.0" type="line"/>
      <point x="449.44444444444446" y="1424.2222222222222" type="line"/>
      <point x="188.88888888888889" y="1271.5555555555557" type="line"/>
      <point x="1128.3333333333333" y="1271.5555555555557" type="line"/>
      <point x="1128.3333333333333" y="1435.2222222222222" type="line"/>
      <point x="139.33333333333334" y="1435.2222222222222" type="line"/>
    </contour>
  </outline>
</glyph>
<glyph name="F" format="2">
  <advance width="1188.0"/>
  <unicode hex="0046"/>
  <note>
F
</note>
  <anchor x="569.4444444444445" y="32.22222222222223" name="bottom"/>
  <anchor x="569.4444444444445" y="1430.0" name="top"/>
  <outline>
    <contour>
      <point x="139.33333333333334" y="0.0" type="line"/>
      <point x="449.44444444444446" y="0.0" type="line"/>
      <point x="449.44444444444446" y="788.7777777777778" type="line"/>
      <point x="192.44444444444446" y="635.2222222222222" type="line"/>
      <point x="1077.0" y="635.2222222222222" type="line"/>
      <point x="1077.0" y="797.3333333333334" type="line"/>
      <point x="186.22222222222223" y="797.3333333333334" type="line"/>
      <point x="449.44444444444446" y="638.7777777777778" type="line"/>
      <point x="449.44444444444446" y="1413.7777777777778" type="line"/>
      <point x="188.88888888888889" y="1271.5555555555557" type="line"/>
      <point x="1077.0" y="1271.5555555555557" type="line"/>
      <point x="1077.0" y="1435.2222222222222" type="line"/>
      <point x="139.33333333333334" y="1435.2222222222222" type="line"/>
    </contour>
  </outline>
</glyph>
<glyph name="G" format="2">
  <advance width="1721.6666666666667"/>
  <unicode hex="0047"/>
  <note>
G
</note>
  <anchor x="853.7777777777778" y="32.22222222222223" name="bottom"/>
  <anchor x="853.7777777777778" y="1430.0" name="top"/>
  <outline>
    <contour>
      <point x="866.6666666666666" y="-35.55555555555556" type="curve" smooth="yes"/>
      <point x="1283.7777777777778" y="-35.55555555555556"/>
      <point x="1591.7777777777778" y="250.77777777777777"/>
      <point x="1617.888888888889" y="658.6666666666666" type="curve"/>
      <point x="1306.3333333333333" y="658.6666666666666" type="line"/>
      <point x="1290.6666666666667" y="333.55555555555554"/>
      <point x="1117.6666666666667" y="126.55555555555556"/>
      <point x="864.5555555555555" y="124.33333333333334" type="curve"/>
      <point x="596.6666666666667" y="127.0"/>
      <point x="419.77777777777777" y="358.8888888888889"/>
      <point x="419.77777777777777" y="710.2222222222222" type="curve" smooth="yes"/>
      <point x="419.77777777777777" y="1062.5555555555557"/>
      <point x="598.1111111111111" y="1299.0"/>
      <point x="865.1111111111111" y="1300.3333333333333" type="curve"/>
      <point x="1041.6666666666667" y="1299.4444444444443"/>
      <point x="1175.111111111111" y="1200.111111111111"/>
      <point x="1248.6666666666667" y="1017.5555555555555" type="curve"/>
      <point x="1559.7777777777778" y="1017.5555555555555" type="line"/>
      <point x="1460.6666666666667" y="1279.7777777777778"/>
      <point x="1168.6666666666667" y="1460.2222222222222"/>
      <point x="864.5555555555555" y="1460.2222222222222" type="curve" smooth="yes"/>
      <point x="437.22222222222223" y="1460.2222222222222"/>
      <point x="109.33333333333333" y="1133.0"/>
      <point x="109.33333333333333" y="713.4444444444445" type="curve" smooth="yes"/>
      <point x="109.33333333333333" y="278.3333333333333"/>
      <point x="423.22222222222223" y="-35.55555555555556"/>
    </contour>
    <contour>
      <point x="961.1111111111111" y="494.55555555555554" type="line"/>
      <point x="1489.5555555555557" y="494.55555555555554" type="line"/>
      <point x="1489.5555555555557" y="658.2222222222222" type="line"/>
      <point x="961.1111111111111" y="658.2222222222222" type="line"/>
    </contour>
  </outline>
</glyph>
<glyph name="H" format="2">
  <advance width="1590.4444444444443"/>
  <unicode hex="0048"/>
  <note>
H
</note>
  <anchor x="795.4444444444445" y="32.22222222222223" name="bottom"/>
  <anchor x="795.4444444444445" y="715.0" name="center"/>
  <anchor x="795.4444444444445" y="1430.0" name="top"/>
  <anchor x="18.0" y="1430.0" name="topleft"/>
  <outline>
    <contour>
      <point x="139.33333333333334" y="0.0" type="line"/>
      <point x="442.44444444444446" y="0.0" type="line"/>
      <point x="442.44444444444446" y="824.6666666666666" type="line"/>
      <point x="182.22222222222223" y="652.7777777777778" type="line"/>
      <point x="1404.3333333333333" y="652.7777777777778" type="line"/>
      <point x="1148.0" y="824.6666666666666" type="line"/>
      <point x="1148.0" y="0.0" type="line"/>
      <point x="1451.111111111111" y="0.0" type="line"/>
      <point x="1451.111111111111" y="1435.2222222222222" type="line"/>
      <point x="1148.0" y="1435.2222222222222" type="line"/>
      <point x="1148.0" y="646.6666666666666" type="line"/>
      <point x="1404.3333333333333" y="818.5555555555555" type="line"/>
      <point x="182.22222222222223" y="818.5555555555555" type="line"/>
      <point x="442.44444444444446" y="646.6666666666666" type="line"/>
      <point x="442.44444444444446" y="1435.2222222222222" type="line"/>
      <point x="139.33333333333334" y="1435.2222222222222" type="line"/>
    </contour>
  </outline>
</glyph>
<glyph name="I" format="2">
  <advance width="588.3333333333334"/>
  <unicode hex="0049"/>
  <note>
I
</note>
  <anchor x="294.6666666666667" y="32.22222222222223" name="bottom"/>
  <anchor x="340.22222222222223" y="0.0" name="ogonek"/>
  <anchor x="294.6666666666667" y="1430.0" name="top"/>
  <anchor x="16.444444444444443" y="1430.0" name="topleft"/>
  <outline>
    <contour>
      <point x="139.33333333333334" y="0.0" type="line"/>
      <point x="449.44444444444446" y="0.0" type="line"/>
      <point x="449.44444444444446" y="1435.2222222222222" type="line"/>
      <point x="139.33333333333334" y="1435.2222222222222" type="line"/>
    </contour>
  </outline>
</glyph>
<glyph name="J" format="2">
  <advance width="988.7777777777778"/>
  <unicode hex="004A"/>
  <note>
J
</note>
  <anchor x="525.2222222222222" y="32.22222222222223" name="bottom"/>
  <anchor x="525.2222222222222" y="1430.0" name="top"/>
  <outline>
    <contour>
      <point x="105.44444444444444" y="-20.555555555555557" type="line"/>
      <point x="177.22222222222223" y="-88.0"/>
      <point x="328.55555555555554" y="-152.77777777777777"/>
      <point x="470.55555555555554" y="-152.77777777777777" type="curve" smooth="yes"/>
      <point x="719.8888888888889" y="-152.77777777777777"/>
      <point x="854.1111111111111" y="45.66666666666666"/>
      <point x="854.1111111111111" y="368.22222222222223" type="curve" smooth="yes"/>
      <point x="854.1111111111111" y="1435.2222222222222" type="line"/>
      <point x="544.5555555555555" y="1435.2222222222222" type="line"/>
      <point x="544.5555555555555" y="346.0" type="line" smooth="yes"/>
      <point x="544.5555555555555" y="80.22222222222223"/>
      <point x="544.1111111111111" y="24.8888888888889"/>
      <point x="437.8888888888889" y="24.8888888888889" type="curve" smooth="yes"/>
      <point x="306.55555555555554" y="24.8888888888889"/>
      <point x="187.0" y="106.11111111111111"/>
      <point x="105.44444444444444" y="170.66666666666669" type="curve"/>
    </contour>
  </outline>
</glyph>
<glyph name="K" format="2">
  <advance width="1565.6666666666667"/>
  <unicode hex="004B"/>
  <note>
K
</note>
  <anchor x="722.2222222222222" y="32.22222222222223" name="bottom"/>
  <anchor x="722.2222222222222" y="1430.0" name="top"/>
  <outline>
    <contour>
      <point x="139.33333333333334" y="0.0" type="line"/>
      <point x="449.44444444444446" y="0.0" type="line"/>
      <point x="449.44444444444446" y="1435.2222222222222" type="line"/>
      <point x="139.33333333333334" y="1435.2222222222222" type="line"/>
    </contour>
    <contour>
      <point x="436.8888888888889" y="453.3333333333333" type="line"/>
      <point x="1367.888888888889" y="1435.2222222222222" type="line"/>
      <point x="1105.6666666666667" y="1435.2222222222222" type="line"/>
      <point x="277.1111111111111" y="548.4444444444445" type="line"/>
    </contour>
    <contour>
      <point x="1107.7777777777778" y="0.0" type="line"/>
      <point x="1465.7777777777778" y="0.0" type="line"/>
      <point x="773.2222222222222" y="887.2222222222222" type="line"/>
      <point x="554.2222222222222" y="710.0" type="line"/>
    </contour>
  </outline>
</glyph>
<glyph name="L" format="2">
  <advance width="1250.4444444444443"/>
  <unicode hex="004C"/>
  <note>
L
</note>
  <anchor x="625.4444444444445" y="32.22222222222223" name="bottom"/>
  <anchor x="280.33333333333337" y="715.0" name="center"/>
  <anchor x="866.2222222222222" y="803.2222222222222" name="dot"/>
  <anchor x="1174.2222222222222" y="10.0" name="ogonek"/>
  <anchor x="440.1111111111111" y="1430.0" name="top"/>
  <anchor x="-49.77777777777778" y="1430.0" name="topleft"/>
  <anchor x="882.3333333333333" y="1430.0" name="topright"/>
  <outline>
    <contour>
      <point x="139.33333333333334" y="0.0" type="line"/>
      <point x="1146.5555555555557" y="0.0" type="line"/>
      <point x="1146.5555555555557" y="147.0" type="line"/>
      <point x="193.55555555555554" y="147.0" type="line"/>
      <point x="452.8888888888889" y="20.77777777777778" type="line"/>
      <point x="452.8888888888889" y="1433.888888888889" type="line"/>
      <point x="139.33333333333334" y="1433.888888888889" type="line"/>
    </contour>
  </outline>
</glyph>
<glyph name="M" format="2">
  <advance width="1825.6666666666667"/>
  <unicode hex="004D"/>
  <note>
M
</note>
  <anchor x="913.1111111111111" y="32.22222222222223" name="bottom"/>
  <anchor x="913.1111111111111" y="1430.0" name="top"/>
  <outline>
    <contour>
      <point x="139.33333333333334" y="0.0" type="line"/>
      <point x="384.22222222222223" y="0.0" type="line"/>
      <point x="384.22222222222223" y="1201.888888888889" type="line"/>
      <point x="232.44444444444446" y="1159.888888888889" type="line"/>
      <point x="884.8888888888889" y="15.0" type="line"/>
      <point x="1514.888888888889" y="1230.3333333333333" type="line"/>
      <point x="1384.5555555555557" y="1147.5555555555557" type="line"/>
      <point x="1384.5555555555557" y="0.0" type="line"/>
      <point x="1686.3333333333333" y="0.0" type="line"/>
      <point x="1686.3333333333333" y="1435.2222222222222" type="line"/>
      <point x="1345.5555555555557" y="1435.2222222222222" type="line"/>
      <point x="770.3333333333334" y="333.0" type="line"/>
      <point x="1013.5555555555555" y="369.55555555555554" type="line"/>
      <point x="411.77777777777777" y="1435.2222222222222" type="line"/>
      <point x="139.33333333333334" y="1435.2222222222222" type="line"/>
    </contour>
  </outline>
</glyph>
<glyph name="N" format="2">
  <advance width="1587.6666666666667"/>
  <unicode hex="004E"/>
  <note>
N
</note>
  <anchor x="794.3333333333334" y="32.22222222222223" name="bottom"/>
  <anchor x="794.3333333333334" y="1430.0" name="top"/>
  <outline>
    <contour>
      <point x="148.77777777777777" y="0.0" type="line"/>
      <point x="391.0" y="0.0" type="line"/>
      <point x="391.0" y="1066.6666666666667" type="line"/>
      <point x="229.0" y="1131.3333333333333" type="line"/>
      <point x="1190.7777777777778" y="0.0" type="line"/>
      <point x="1448.3333333333333" y="0.0" type="line"/>
      <point x="1448.3333333333333" y="1435.2222222222222" type="line"/>
      <point x="1204.0" y="1435.2222222222222" type="line"/>
      <point x="1204.0" y="269.8888888888889" type="line"/>
      <point x="1343.5555555555557" y="299.3333333333333" type="line"/>
      <point x="395.8888888888889" y="1435.2222222222222" type="line"/>
      <point x="139.33333333333334" y="1435.2222222222222" type="line"/>
    </contour>
  </outline>
</glyph>
<glyph name="O" format="2">
  <advance width="1725.5555555555557"/>
  <unicode hex="004F"/>
  <note>
O
</note>
  <anchor x="863.0" y="-4.888888888888889" name="bottom"/>
  <anchor x="863.0" y="715.0" name="center"/>
  <anchor x="1025.5555555555557" y="0.0" name="ogonek"/>
  <anchor x="863.0" y="1430.0" name="top"/>
  <anchor x="46.66666666666667" y="1430.0" name="topleft"/>
  <anchor x="1436.0" y="1430.0" name="topright"/>
  <outline>
    <contour>
      <point x="863.0" y="-35.55555555555556" type="curve" smooth="yes"/>
      <point x="1299.0" y="-35.55555555555556"/>
      <point x="1616.7777777777778" y="283.6666666666667"/>
      <point x="1616.7777777777778" y="711.5555555555555" type="curve" smooth="yes"/>
      <point x="1616.7777777777778" y="1139.3333333333333"/>
      <point x="1298.2222222222222" y="1460.7777777777778"/>
      <point x="863.5555555555555" y="1460.7777777777778" type="curve" smooth="yes"/>
      <point x="429.77777777777777" y="1460.7777777777778"/>
      <point x="109.33333333333333" y="1138.888888888889"/>
      <point x="109.33333333333333" y="711.0" type="curve" smooth="yes"/>
      <point x="109.33333333333333" y="283.6666666666667"/>
      <point x="427.44444444444446" y="-35.55555555555556"/>
    </contour>
    <contour>
      <point x="863.0" y="125.88888888888889" type="curve"/>
      <point x="597.2222222222222" y="128.55555555555554"/>
      <point x="420.3333333333333" y="362.6666666666667"/>
      <point x="420.3333333333333" y="712.0" type="curve" smooth="yes"/>
      <point x="420.3333333333333" y="1062.2222222222222"/>
      <point x="597.5555555555555" y="1298.0"/>
      <point x="863.5555555555555" y="1299.7777777777778" type="curve"/>
      <point x="1128.4444444444443" y="1298.0"/>
      <point x="1306.2222222222222" y="1061.6666666666667"/>
      <point x="1306.2222222222222" y="711.4444444444445" type="curve" smooth="yes"/>
      <point x="1306.2222222222222" y="361.6666666666667"/>
      <point x="1130.3333333333333" y="128.55555555555554"/>
    </contour>
  </outline>
</glyph>
<glyph name="P" format="2">
  <advance width="1268.3333333333333"/>
  <unicode hex="0050"/>
  <note>
P
</note>
  <anchor x="612.7777777777778" y="-3.3333333333333286" name="bottom"/>
  <anchor x="612.7777777777778" y="1430.0" name="top"/>
  <outline>
    <contour>
      <point x="139.33333333333334" y="0.0" type="line"/>
      <point x="441.1111111111111" y="0.0" type="line"/>
      <point x="441.1111111111111" y="622.2222222222222" type="line"/>
      <point x="291.33333333333337" y="507.3333333333333" type="line"/>
      <point x="629.2222222222222" y="507.3333333333333" type="line" smooth="yes"/>
      <point x="773.5555555555555" y="507.3333333333333"/>
      <point x="883.0" y="537.7777777777778"/>
      <point x="986.8888888888889" y="606.4444444444445" type="curve" smooth="yes"/>
      <point x="1089.888888888889" y="674.3333333333334"/>
      <point x="1161.5555555555557" y="824.1111111111111"/>
      <point x="1161.5555555555557" y="972.1111111111111" type="curve" smooth="yes"/>
      <point x="1161.5555555555557" y="1104.111111111111"/>
      <point x="1111.4444444444443" y="1223.4444444444443"/>
      <point x="1028.0" y="1294.5555555555557" type="curve" smooth="yes"/>
      <point x="912.1111111111111" y="1391.4444444444443"/>
      <point x="777.4444444444445" y="1435.2222222222222"/>
      <point x="590.5555555555555" y="1435.2222222222222" type="curve" smooth="yes"/>
      <point x="139.33333333333334" y="1435.2222222222222" type="line"/>
    </contour>
    <contour>
      <point x="441.1111111111111" y="532.2222222222222" type="line"/>
      <point x="441.1111111111111" y="1418.111111111111" type="line"/>
      <point x="178.33333333333334" y="1284.111111111111" type="line"/>
      <point x="582.1111111111111" y="1284.111111111111" type="line" smooth="yes"/>
      <point x="764.2222222222222" y="1284.111111111111"/>
      <point x="857.8888888888889" y="1171.6666666666667"/>
      <point x="857.8888888888889" y="955.5555555555555" type="curve" smooth="yes"/>
      <point x="857.8888888888889" y="821.5555555555555"/>
      <point x="782.5555555555555" y="667.8888888888889"/>
      <point x="582.1111111111111" y="667.8888888888889" type="curve" smooth="yes"/>
      <point x="355.1111111111111" y="667.8888888888889" type="line"/>
    </contour>
  </outline>
</glyph>
<glyph name="Q" format="2">
  <advance width="1725.5555555555557"/>
  <unicode hex="0051"/>
  <note>
Q
</note>
  <anchor x="824.2222222222222" y="84.88888888888889" name="bottom"/>
  <anchor x="824.2222222222222" y="1369.0" name="top"/>
  <anchor x="863.0" y="768.0457111111111" name="center"/>
  <anchor x="1025.5555555555557" y="51.77777777777778" name="ogonek"/>
  <anchor x="46.66666666666667" y="1484.3136444444444" name="topleft"/>
  <anchor x="1436.0" y="1484.3136444444444" name="topright"/>
  <outline>
    <contour>
      <point x="1103.3333333333333" y="-386.6666666666667" type="curve" smooth="yes"/>
      <point x="1261.3333333333333" y="-386.6666666666667"/>
      <point x="1292.5555555555557" y="-367.55555555555554"/>
      <point x="1281.5555555555557" y="-204.88888888888889" type="curve"/>
      <point x="1231.6666666666667" y="-204.88888888888889"/>
      <point x="1181.2222222222222" y="-204.88888888888889"/>
      <point x="1130.7777777777778" y="-204.88888888888889" type="curve" smooth="yes"/>
      <point x="1021.5555555555555" y="-204.88888888888889"/>
      <point x="963.0" y="-176.44444444444446"/>
      <point x="963.0" y="-125.0" type="curve" smooth="yes"/>
      <point x="963.0" y="111.55555555555556" type="line"/>
      <point x="665.8888888888889" y="111.55555555555556" type="line"/>
      <point x="665.8888888888889" y="-115.11111111111111" type="line" smooth="yes"/>
      <point x="665.8888888888889" y="-229.11111111111111"/>
      <point x="742.1111111111111" y="-311.1111111111111"/>
      <point x="846.3333333333334" y="-348.77777777777777" type="curve" smooth="yes"/>
      <point x="925.7777777777778" y="-377.77777777777777"/>
      <point x="984.6666666666666" y="-386.6666666666667"/>
    </contour>
    <component base="O" yScale="1.0017733333333334" yOffset="51.77777777777778"/>
  </outline>
</glyph>
<glyph name="R" format="2">
  <advance width="1322.888888888889"/>
  <unicode hex="0052"/>
  <note>
R
</note>
  <anchor x="648.1111111111111" y="32.22222222222223" name="bottom"/>
  <anchor x="648.1111111111111" y="1430.0" name="top"/>
  <outline>
    <contour>
      <point x="139.33333333333334" y="0.0" type="line"/>
      <point x="441.1111111111111" y="0.0" type="line"/>
      <point x="441.1111111111111" y="705.8888888888889" type="line"/>
      <point x="299.3333333333333" y="595.8888888888889" type="line"/>
      <point x="601.8888888888889" y="595.8888888888889" type="line"/>
      <point x="660.3333333333334" y="595.8888888888889" type="line"/>
      <point x="925.2222222222222" y="608.3333333333334"/>
      <point x="1161.5555555555557" y="727.2222222222222"/>
      <point x="1161.5555555555557" y="1006.7777777777778" type="curve" smooth="yes"/>
      <point x="1161.5555555555557" y="1287.7777777777778"/>
      <point x="924.2222222222222" y="1435.2222222222222"/>
      <point x="590.5555555555555" y="1435.2222222222222" type="curve" smooth="yes"/>
      <point x="139.33333333333334" y="1435.2222222222222" type="line"/>
    </contour>
    <contour>
      <point x="363.55555555555554" y="748.6666666666666" type="line"/>
      <point x="441.1111111111111" y="626.1111111111111" type="line"/>
      <point x="441.1111111111111" y="1412.3333333333333" type="line"/>
      <point x="182.33333333333334" y="1284.111111111111" type="line"/>
      <point x="582.1111111111111" y="1284.111111111111" type="line" smooth="yes"/>
      <point x="764.2222222222222" y="1284.111111111111"/>
      <point x="857.8888888888889" y="1206.7777777777778"/>
      <point x="857.8888888888889" y="1013.1111111111111" type="curve" smooth="yes"/>
      <point x="857.8888888888889" y="841.5555555555555"/>
      <point x="782.5555555555555" y="748.6666666666666"/>
      <point x="582.1111111111111" y="748.6666666666666" type="curve" smooth="yes"/>
    </contour>
    <contour>
      <point x="472.55555555555554" y="595.8888888888889" type="line"/>
      <point x="558.5555555555555" y="595.8888888888889"/>
      <point x="651.7777777777778" y="602.3333333333334"/>
      <point x="738.5555555555555" y="540.8888888888889" type="curve" smooth="yes"/>
      <point x="776.7777777777778" y="513.3333333333334"/>
      <point x="822.0" y="481.22222222222223"/>
      <point x="887.5555555555555" y="198.55555555555554" type="curve" smooth="yes"/>
      <point x="900.4444444444445" y="139.66666666666666"/>
      <point x="916.4444444444445" y="66.66666666666667"/>
      <point x="930.8888888888889" y="0.0" type="curve"/>
      <point x="1220.5555555555557" y="0.0" type="line"/>
      <point x="1195.6666666666667" y="93.33333333333333"/>
      <point x="1168.6666666666667" y="215.22222222222223"/>
      <point x="1156.3333333333333" y="273.55555555555554" type="curve" smooth="yes"/>
      <point x="1109.7777777777778" y="492.0"/>
      <point x="1046.6666666666667" y="561.0"/>
      <point x="1024.3333333333333" y="582.8888888888889" type="curve" smooth="yes"/>
      <point x="957.1111111111111" y="648.5555555555555"/>
      <point x="920.2222222222222" y="646.6666666666666"/>
      <point x="863.4444444444445" y="655.4444444444445" type="curve"/>
    </contour>
  </outline>
</glyph>
<glyph name="S" format="2">
  <advance width="1331.6666666666667"/>
  <unicode hex="0053"/>
  <note>
S
</note>
  <anchor x="666.3333333333334" y="32.22222222222223" name="bottom"/>
  <anchor x="666.3333333333334" y="1430.0" name="top"/>
  <outline>
    <contour>
      <point x="668.3333333333334" y="-37.0" type="curve" smooth="yes"/>
      <point x="1043.888888888889" y="-37.0"/>
      <point x="1224.3333333333333" y="118.44444444444444"/>
      <point x="1224.3333333333333" y="431.55555555555554" type="curve" smooth="yes"/>
      <point x="1224.3333333333333" y="670.6666666666666"/>
      <point x="1044.5555555555557" y="782.0"/>
      <point x="711.8888888888889" y="856.2222222222222" type="curve" smooth="yes"/>
      <point x="480.3333333333333" y="912.3333333333334"/>
      <point x="441.55555555555554" y="1000.8888888888889"/>
      <point x="441.55555555555554" y="1084.5555555555557" type="curve" smooth="yes"/>
      <point x="441.55555555555554" y="1250.5555555555557"/>
      <point x="537.1111111111111" y="1291.5555555555557"/>
      <point x="644.2222222222222" y="1291.5555555555557" type="curve" smooth="yes"/>
      <point x="845.2222222222222" y="1291.5555555555557"/>
      <point x="900.3333333333334" y="1151.7777777777778"/>
      <point x="894.5555555555555" y="1074.111111111111" type="curve"/>
      <point x="1186.4444444444443" y="1074.111111111111" type="line"/>
      <point x="1174.888888888889" y="1300.6666666666667"/>
      <point x="959.4444444444445" y="1465.111111111111"/>
      <point x="659.4444444444445" y="1465.111111111111" type="curve" smooth="yes"/>
      <point x="313.8888888888889" y="1465.111111111111"/>
      <point x="149.88888888888889" y="1315.888888888889"/>
      <point x="149.88888888888889" y="1041.5555555555557" type="curve" smooth="yes"/>
      <point x="149.88888888888889" y="836.0"/>
      <point x="318.22222222222223" y="703.8888888888889"/>
      <point x="612.0" y="629.1111111111111" type="curve" smooth="yes"/>
      <point x="824.3333333333334" y="574.0"/>
      <point x="943.1111111111111" y="537.2222222222222"/>
      <point x="943.1111111111111" y="374.77777777777777" type="curve" smooth="yes"/>
      <point x="943.1111111111111" y="230.0"/>
      <point x="846.5555555555555" y="142.22222222222223"/>
      <point x="680.1111111111111" y="142.22222222222223" type="curve" smooth="yes"/>
      <point x="499.44444444444446" y="142.22222222222223"/>
      <point x="397.66666666666663" y="265.66666666666663"/>
      <point x="389.33333333333337" y="403.0" type="curve"/>
      <point x="103.33333333333333" y="403.0" type="line"/>
      <point x="110.22222222222223" y="146.44444444444446"/>
      <point x="307.77777777777777" y="-37.0"/>
    </contour>
  </outline>
</glyph>
<glyph name="T" format="2">
  <advance width="1501.0"/>
  <unicode hex="0054"/>
  <note>
T
</note>
  <anchor x="751.0" y="32.22222222222223" name="bottom"/>
  <anchor x="751.0" y="715.0" name="center"/>
  <anchor x="751.0" y="1430.0" name="top"/>
  <outline>
    <contour>
      <point x="595.2222222222222" y="0.0" type="line"/>
      <point x="905.7777777777778" y="0.0" type="line"/>
      <point x="905.7777777777778" y="1405.0" type="line"/>
      <point x="622.6666666666666" y="1196.888888888889" type="line"/>
      <point x="1394.4444444444443" y="1196.888888888889" type="line"/>
      <point x="1394.4444444444443" y="1435.2222222222222" type="line"/>
      <point x="106.55555555555556" y="1435.2222222222222" type="line"/>
      <point x="106.55555555555556" y="1196.888888888889" type="line"/>
      <point x="878.3333333333334" y="1196.888888888889" type="line"/>
      <point x="595.2222222222222" y="1405.0" type="line"/>
    </contour>
  </outline>
</glyph>
<glyph name="U" format="2">
  <advance width="1560.3333333333333"/>
  <unicode hex="0055"/>
  <note>
U
</note>
  <anchor x="780.8888888888889" y="32.22222222222223" name="bottom"/>
  <anchor x="933.1111111111111" y="0.0" name="ogonek"/>
  <anchor x="780.8888888888889" y="1430.0" name="top"/>
  <anchor x="1429.111111111111" y="1430.0" name="topright"/>
  <outline>
    <contour>
      <point x="779.8888888888889" y="-37.55555555555556" type="curve" smooth="yes"/>
      <point x="1129.0" y="-37.55555555555556"/>
      <point x="1432.4444444444443" y="221.11111111111111"/>
      <point x="1432.4444444444443" y="519.8888888888889" type="curve" smooth="yes"/>
      <point x="1432.4444444444443" y="1435.2222222222222" type="line"/>
      <point x="1185.888888888889" y="1435.2222222222222" type="line"/>
      <point x="1179.111111111111" y="505.55555555555554" type="line" smooth="yes"/>
      <point x="1177.5555555555557" y="305.44444444444446"/>
      <point x="1035.7777777777778" y="127.11111111111111"/>
      <point x="781.0" y="127.11111111111111" type="curve" smooth="yes"/>
      <point x="555.3333333333334" y="127.11111111111111"/>
      <point x="410.33333333333337" y="262.1111111111111"/>
      <point x="410.33333333333337" y="531.1111111111111" type="curve" smooth="yes"/>
      <point x="410.33333333333337" y="1435.2222222222222" type="line"/>
      <point x="127.88888888888889" y="1435.2222222222222" type="line"/>
      <point x="127.88888888888889" y="539.2222222222222" type="line" smooth="yes"/>
      <point x="127.88888888888889" y="226.33333333333334"/>
      <point x="426.6666666666667" y="-37.55555555555556"/>
    </contour>
  </outline>
</glyph>
<glyph name="V" format="2">
  <advance width="1583.4444444444443"/>
  <unicode hex="0056"/>
  <note>
V
</note>
  <anchor x="792.2222222222222" y="32.22222222222223" name="bottom"/>
  <anchor x="792.2222222222222" y="1430.0" name="top"/>
  <outline>
    <contour>
      <point x="791.7777777777778" y="-28.666666666666668" type="line"/>
      <point x="1482.111111111111" y="1435.2222222222222" type="line"/>
      <point x="1267.7777777777778" y="1435.2222222222222" type="line"/>
      <point x="758.5555555555555" y="336.8888888888889" type="line"/>
      <point x="897.6666666666666" y="385.22222222222223" type="line"/>
      <point x="410.8888888888889" y="1435.2222222222222" type="line"/>
      <point x="101.33333333333333" y="1435.2222222222222" type="line"/>
    </contour>
  </outline>
</glyph>
<glyph name="X" format="2">
  <advance width="1598.6666666666667"/>
  <unicode hex="0058"/>
  <note>
X
</note>
  <anchor x="796.6666666666666" y="32.22222222222223" name="bottom"/>
  <anchor x="796.6666666666666" y="1430.0" name="top"/>
  <outline>
    <contour>
      <point x="1115.6666666666667" y="0.0" type="line"/>
      <point x="1497.888888888889" y="0.0" type="line"/>
      <point x="492.7777777777778" y="1427.4444444444443" type="line"/>
      <point x="110.66666666666666" y="1427.4444444444443" type="line"/>
    </contour>
    <contour>
      <point x="116.0" y="0.0" type="line"/>
      <point x="330.6666666666667" y="0.0" type="line"/>
      <point x="866.0" y="744.2222222222222" type="line"/>
      <point x="738.0" y="877.7777777777778" type="line"/>
    </contour>
    <contour>
      <point x="817.2222222222222" y="638.7777777777778" type="line"/>
      <point x="1379.888888888889" y="1435.2222222222222" type="line"/>
      <point x="1166.2222222222222" y="1435.2222222222222" type="line"/>
      <point x="687.6666666666666" y="772.3333333333334" type="line"/>
    </contour>
  </outline>
</glyph>
<glyph name="Y" format="2">
  <advance width="1420.111111111111"/>
  <unicode hex="0059"/>
  <note>
Y
</note>
  <anchor x="730.6666666666666" y="32.22222222222222" name="bottom"/>
  <anchor x="709.5555555555555" y="1430.0" name="top"/>
  <anchor x="-6.555555555555555" y="1430.0" name="topleft"/>
  <outline>
    <contour>
      <point x="575.4444444444445" y="0.0" type="line"/>
      <point x="885.0" y="0.0" type="line"/>
      <point x="885.0" y="600.6666666666666" type="line"/>
      <point x="1318.7777777777778" y="1435.2222222222222" type="line"/>
      <point x="1115.7777777777778" y="1435.2222222222222" type="line"/>
      <point x="649.7777777777778" y="502.1111111111111" type="line"/>
      <point x="855.7777777777778" y="713.7777777777778" type="line"/>
      <point x="460.44444444444446" y="1435.2222222222222" type="line"/>
      <point x="100.33333333333333" y="1435.2222222222222" type="line"/>
      <point x="575.4444444444445" y="598.0" type="line"/>
    </contour>
  </outline>
</glyph>
<glyph name="Z" format="2">
  <advance width="1464.2222222222222"/>
  <unicode hex="005A"/>
  <note>
Z
</note>
  <anchor x="732.1111111111111" y="32.22222222222223" name="bottom"/>
  <anchor x="732.1111111111111" y="715.0" name="center"/>
  <anchor x="732.1111111111111" y="1430.0" name="top"/>
  <outline>
    <contour>
      <point x="100.33333333333333" y="0.0" type="line"/>
      <point x="1327.888888888889" y="0.0" type="line"/>
      <point x="1327.4444444444443" y="215.8888888888889" type="line"/>
      <point x="248.66666666666666" y="215.8888888888889" type="line"/>
      <point x="424.8888888888889" y="17.22222222222222" type="line"/>
      <point x="1361.7777777777778" y="1435.2222222222222" type="line"/>
      <point x="173.55555555555554" y="1435.2222222222222" type="line"/>
      <point x="173.55555555555554" y="1219.3333333333333" type="line"/>
      <point x="1170.0" y="1219.3333333333333" type="line"/>
      <point x="1034.5555555555557" y="1414.7777777777778" type="line"/>
    </contour>
  </outline>
</glyph>
<glyph name="bracketleft" format="2">
  <advance width="705.4444444444445"/>
  <unicode hex="005B"/>
  <note>
bracketleft
</note>
  <outline>
    <contour>
      <point x="135.33333333333334" y="-384.3333333333333" type="line"/>
      <point x="601.8888888888889" y="-384.3333333333333" type="line"/>
      <point x="601.8888888888889" y="-190.55555555555554" type="line"/>
      <point x="342.22222222222223" y="-190.55555555555554" type="line"/>
      <point x="342.22222222222223" y="1271.888888888889" type="line"/>
      <point x="601.8888888888889" y="1271.888888888889" type="line"/>
      <point x="601.8888888888889" y="1464.6666666666667" type="line"/>
      <point x="135.33333333333334" y="1464.6666666666667" type="line"/>
    </contour>
  </outline>
</glyph>
<glyph name="bracketright" format="2">
  <advance width="705.4444444444445"/>
  <unicode hex="005D"/>
  <note>
bracketright
</note>
  <outline>
    <contour>
      <point x="103.55555555555556" y="-384.3333333333333" type="line"/>
      <point x="570.1111111111111" y="-384.3333333333333" type="line"/>
      <point x="570.1111111111111" y="1464.6666666666667" type="line"/>
      <point x="103.55555555555556" y="1464.6666666666667" type="line"/>
      <point x="103.55555555555556" y="1271.888888888889" type="line"/>
      <point x="363.6666666666667" y="1271.888888888889" type="line"/>
      <point x="363.6666666666667" y="-190.55555555555554" type="line"/>
      <point x="103.55555555555556" y="-190.55555555555554" type="line"/>
    </contour>
  </outline>
</glyph>
<glyph name="asciicircum" format="2">
  <advance width="1284.6666666666667"/>
  <unicode hex="005E"/>
  <note>
asciicircum
</note>
  <outline>
    <contour>
      <point x="131.33333333333334" y="767.0" type="line"/>
      <point x="375.0" y="767.0" type="line"/>
      <point x="724.4444444444445" y="1306.0" type="line"/>
      <point x="557.4444444444445" y="1307.4444444444443" type="line"/>
      <point x="909.6666666666666" y="767.0" type="line"/>
      <point x="1153.3333333333333" y="767.0" type="line"/>
      <point x="727.7777777777778" y="1437.888888888889" type="line"/>
      <point x="556.0" y="1437.888888888889" type="line"/>
    </contour>
  </outline>
</glyph>
<glyph name="underscore" format="2">
  <advance width="1684.4444444444443"/>
  <unicode hex="005F"/>
  <note>
underscore
</note>
  <outline>
    <contour>
      <point x="89.11111111111111" y="-403.33333333333337" type="line"/>
      <point x="1595.3333333333335" y="-403.33333333333337" type="line"/>
      <point x="1595.3333333333335" y="-211.77777777777777" type="line"/>
      <point x="89.11111111111111" y="-211.77777777777777" type="line"/>
    </contour>
  </outline>
</glyph>
<glyph name="a" format="2">
  <advance width="1333.6666666666667"/>
  <unicode hex="0061"/>
  <note>
a
</note>
  <anchor x="611.0" y="9.777777777777779" name="bottom"/>
  <anchor x="1110.888888888889" y="0.0" name="ogonek"/>
  <anchor x="621.0" y="1021.5555555555555" name="top"/>
  <outline>
    <contour>
      <point x="576.1111111111111" y="-38.44444444444444" type="curve" smooth="yes"/>
      <point x="817.5555555555555" y="-38.44444444444444"/>
      <point x="959.6666666666666" y="84.66666666666667"/>
      <point x="1013.5555555555555" y="341.8888888888889" type="curve"/>
      <point x="935.8888888888889" y="410.8888888888889" type="line"/>
      <point x="932.7777777777778" y="0.0" type="line"/>
      <point x="1226.3333333333333" y="0.0" type="line"/>
      <point x="1226.3333333333333" y="1009.3333333333334" type="line"/>
      <point x="930.1111111111111" y="1009.3333333333334" type="line"/>
      <point x="930.1111111111111" y="582.1111111111111" type="line"/>
      <point x="1008.7777777777778" y="642.5555555555555" type="line"/>
      <point x="960.2222222222222" y="902.3333333333334"/>
      <point x="810.3333333333334" y="1036.3333333333333"/>
      <point x="571.4444444444445" y="1036.3333333333333" type="curve" smooth="yes"/>
      <point x="275.8888888888889" y="1036.3333333333333"/>
      <point x="81.33333333333333" y="818.4444444444445"/>
      <point x="81.33333333333333" y="490.8888888888889" type="curve" smooth="yes"/>
      <point x="81.33333333333333" y="170.77777777777777"/>
      <point x="276.22222222222223" y="-38.44444444444444"/>
    </contour>
    <contour>
      <point x="619.7777777777778" y="135.0" type="curve" smooth="yes"/>
      <point x="452.77777777777777" y="135.0"/>
      <point x="362.1111111111111" y="248.88888888888889"/>
      <point x="362.1111111111111" y="496.6666666666667" type="curve" smooth="yes"/>
      <point x="362.1111111111111" y="745.0"/>
      <point x="452.22222222222223" y="862.4444444444445"/>
      <point x="615.6666666666666" y="862.4444444444445" type="curve" smooth="yes"/>
      <point x="779.5555555555555" y="862.4444444444445"/>
      <point x="893.1111111111111" y="697.5555555555555"/>
      <point x="893.1111111111111" y="487.77777777777777" type="curve" smooth="yes"/>
      <point x="893.1111111111111" y="289.1111111111111"/>
      <point x="784.5555555555555" y="135.0"/>
    </contour>
  </outline>
</glyph>
<glyph name="b" format="2">
  <advance width="1338.3333333333333"/>
  <unicode hex="0062"/>
  <note>
b
</note>
  <anchor x="674.5555555555555" y="47.33333333333333" name="bottom"/>
  <anchor x="674.5555555555555" y="1521.3333333333333" name="top"/>
  <outline>
    <contour>
      <point x="762.2222222222222" y="-31.666666666666668" type="curve" smooth="yes"/>
      <point x="1061.6666666666667" y="-31.666666666666668"/>
      <point x="1257.0" y="177.11111111111111"/>
      <point x="1257.0" y="494.55555555555554" type="curve" smooth="yes"/>
      <point x="1257.0" y="820.0"/>
      <point x="1062.888888888889" y="1036.3333333333333"/>
      <point x="766.8888888888889" y="1036.3333333333333" type="curve" smooth="yes"/>
      <point x="528.4444444444445" y="1036.3333333333333"/>
      <point x="377.6666666666667" y="902.4444444444445"/>
      <point x="329.1111111111111" y="645.2222222222222" type="curve"/>
      <point x="408.22222222222223" y="582.1111111111111" type="line"/>
      <point x="408.22222222222223" y="1521.3333333333333" type="line"/>
      <point x="112.88888888888889" y="1521.3333333333333" type="line"/>
      <point x="112.88888888888889" y="0.0" type="line"/>
      <point x="404.6666666666667" y="0.0" type="line"/>
      <point x="404.6666666666667" y="410.44444444444446" type="line"/>
      <point x="323.8888888888889" y="348.44444444444446" type="line"/>
      <point x="378.22222222222223" y="92.88888888888889"/>
      <point x="519.8888888888889" y="-31.666666666666668"/>
    </contour>
    <contour>
      <point x="718.5555555555555" y="140.22222222222223" type="curve" smooth="yes"/>
      <point x="553.7777777777778" y="140.22222222222223"/>
      <point x="445.22222222222223" y="294.77777777777777"/>
      <point x="445.22222222222223" y="491.8888888888889" type="curve" smooth="yes"/>
      <point x="445.22222222222223" y="701.1111111111111"/>
      <point x="558.7777777777778" y="864.4444444444445"/>
      <point x="722.6666666666667" y="864.4444444444445" type="curve" smooth="yes"/>
      <point x="885.6666666666666" y="864.4444444444445"/>
      <point x="976.2222222222222" y="747.5555555555555"/>
      <point x="976.2222222222222" y="500.3333333333333" type="curve" smooth="yes"/>
      <point x="976.2222222222222" y="254.66666666666666"/>
      <point x="885.5555555555555" y="140.22222222222223"/>
    </contour>
  </outline>
</glyph>
<glyph name="c" format="2">
  <advance width="1075.2222222222222"/>
  <unicode hex="0063"/>
  <note>
c
</note>
  <anchor x="538.1111111111111" y="-15.11111111111111" name="bottom"/>
  <anchor x="628.1111111111111" y="1021.5555555555555" name="top"/>
  <outline>
    <contour>
      <point x="627.1111111111111" y="-38.44444444444444" type="curve" smooth="yes"/>
      <point x="764.0" y="-38.44444444444444"/>
      <point x="886.3333333333334" y="-0.4444444444444444"/>
      <point x="989.1111111111111" y="84.88888888888889" type="curve"/>
      <point x="989.1111111111111" y="277.6666666666667" type="line"/>
      <point x="892.2222222222222" y="194.11111111111111"/>
      <point x="755.0" y="133.44444444444446"/>
      <point x="640.1111111111111" y="133.44444444444446" type="curve" smooth="yes"/>
      <point x="465.33333333333337" y="133.44444444444446"/>
      <point x="375.0" y="272.0"/>
      <point x="375.0" y="496.8888888888889" type="curve" smooth="yes"/>
      <point x="375.0" y="733.1111111111111"/>
      <point x="466.33333333333337" y="864.0"/>
      <point x="640.1111111111111" y="864.0" type="curve" smooth="yes"/>
      <point x="755.5555555555555" y="864.0"/>
      <point x="892.6666666666666" y="803.7777777777778"/>
      <point x="988.6666666666667" y="720.6666666666666" type="curve"/>
      <point x="988.6666666666667" y="912.5555555555555" type="line"/>
      <point x="885.8888888888889" y="997.8888888888889"/>
      <point x="761.1111111111111" y="1036.3333333333333"/>
      <point x="627.1111111111111" y="1036.3333333333333" type="curve" smooth="yes"/>
      <point x="312.77777777777777" y="1036.3333333333333"/>
      <point x="81.33333333333333" y="819.0"/>
      <point x="81.33333333333333" y="496.8888888888889" type="curve" smooth="yes"/>
      <point x="81.33333333333333" y="170.55555555555554"/>
      <point x="313.8888888888889" y="-38.44444444444444"/>
    </contour>
  </outline>
</glyph>
<glyph name="d" format="2">
  <advance width="1337.888888888889"/>
  <unicode hex="0064"/>
  <note>
d
</note>
  <anchor x="659.8888888888889" y="47.33333333333333" name="bottom"/>
  <anchor x="1074.4444444444443" y="1335.111111111111" name="center"/>
  <anchor x="664.7777777777778" y="1521.3333333333333" name="top"/>
  <anchor x="1357.111111111111" y="1521.3333333333333" name="topright"/>
  <outline>
    <contour>
      <point x="576.1111111111111" y="-31.666666666666668" type="curve" smooth="yes"/>
      <point x="818.0" y="-31.666666666666668"/>
      <point x="960.5555555555555" y="91.11111111111111"/>
      <point x="1014.8888888888889" y="347.55555555555554" type="curve"/>
      <point x="933.2222222222222" y="409.1111111111111" type="line"/>
      <point x="933.2222222222222" y="0.0" type="line"/>
      <point x="1225.0" y="0.0" type="line"/>
      <point x="1225.0" y="1521.3333333333333" type="line"/>
      <point x="930.5555555555555" y="1521.3333333333333" type="line"/>
      <point x="930.5555555555555" y="582.1111111111111" type="line"/>
      <point x="1009.2222222222222" y="644.7777777777778" type="line"/>
      <point x="960.6666666666666" y="903.3333333333334"/>
      <point x="810.3333333333334" y="1036.7777777777778"/>
      <point x="571.4444444444445" y="1036.7777777777778" type="curve" smooth="yes"/>
      <point x="275.8888888888889" y="1036.7777777777778"/>
      <point x="81.33333333333333" y="821.3333333333334"/>
      <point x="81.33333333333333" y="495.0" type="curve" smooth="yes"/>
      <point x="81.33333333333333" y="176.66666666666666"/>
      <point x="276.6666666666667" y="-31.666666666666668"/>
    </contour>
    <contour>
      <point x="619.7777777777778" y="140.66666666666666" type="curve" smooth="yes"/>
      <point x="452.77777777777777" y="140.66666666666666"/>
      <point x="362.1111111111111" y="254.22222222222223"/>
      <point x="362.1111111111111" y="500.3333333333333" type="curve" smooth="yes"/>
      <point x="362.1111111111111" y="748.8888888888889"/>
      <point x="452.22222222222223" y="864.4444444444445"/>
      <point x="615.6666666666666" y="864.4444444444445" type="curve" smooth="yes"/>
      <point x="780.0" y="864.4444444444445"/>
      <point x="893.1111111111111" y="700.6666666666666"/>
      <point x="893.1111111111111" y="490.55555555555554" type="curve" smooth="yes"/>
      <point x="893.1111111111111" y="293.0"/>
      <point x="784.5555555555555" y="140.66666666666666"/>
    </contour>
  </outline>
</glyph>
<glyph name="e" format="2">
  <advance width="1215.111111111111"/>
  <unicode hex="0065"/>
  <note>
e
</note>
  <anchor x="607.0" y="-27.333333333333332" name="bottom"/>
  <anchor x="791.6666666666666" y="10.0" name="ogonek"/>
  <anchor x="607.0" y="1021.5555555555555" name="top"/>
  <outline>
    <contour>
      <point x="615.2222222222222" y="-38.44444444444444" type="curve" smooth="yes"/>
      <point x="872.2222222222222" y="-38.44444444444444"/>
      <point x="1043.4444444444443" y="85.44444444444444"/>
      <point x="1111.3333333333333" y="298.55555555555554" type="curve"/>
      <point x="871.1111111111111" y="298.55555555555554" type="line"/>
      <point x="852.2222222222222" y="220.33333333333334"/>
      <point x="749.7777777777778" y="133.44444444444446"/>
      <point x="623.0" y="133.44444444444446" type="curve" smooth="yes"/>
      <point x="446.22222222222223" y="133.44444444444446"/>
      <point x="378.0" y="315.1111111111111"/>
      <point x="378.0" y="496.22222222222223" type="curve" smooth="yes"/>
      <point x="378.0" y="706.5555555555555"/>
      <point x="469.1111111111111" y="863.4444444444445"/>
      <point x="615.2222222222222" y="863.4444444444445" type="curve" smooth="yes"/>
      <point x="748.2222222222222" y="863.4444444444445"/>
      <point x="826.2222222222222" y="734.5555555555555"/>
      <point x="845.6666666666666" y="488.55555555555554" type="curve"/>
      <point x="1139.3333333333333" y="488.55555555555554" type="line"/>
      <point x="1107.6666666666667" y="843.4444444444445"/>
      <point x="914.7777777777778" y="1036.3333333333333"/>
      <point x="610.5555555555555" y="1036.3333333333333" type="curve" smooth="yes"/>
      <point x="285.3333333333333" y="1036.3333333333333"/>
      <point x="81.33333333333333" y="822.1111111111111"/>
      <point x="81.33333333333333" y="497.1111111111111" type="curve" smooth="yes"/>
      <point x="81.33333333333333" y="175.44444444444446"/>
      <point x="279.22222222222223" y="-38.44444444444444"/>
    </contour>
    <contour>
      <point x="352.55555555555554" y="487.55555555555554" type="line"/>
      <point x="1074.2222222222222" y="488.55555555555554" type="line"/>
      <point x="1073.3333333333333" y="631.4444444444445" type="line"/>
      <point x="295.66666666666663" y="631.4444444444445" type="line"/>
    </contour>
  </outline>
</glyph>
<glyph name="f" format="2">
  <advance width="1005.2222222222222"/>
  <unicode hex="0066"/>
  <note>
f
</note>
  <anchor x="503.1111111111111" y="47.33333333333333" name="bottom"/>
  <anchor x="503.1111111111111" y="1521.3333333333333" name="top"/>
  <outline>
    <contour>
      <point x="289.8888888888889" y="0.0" type="line"/>
      <point x="581.6666666666667" y="0.0" type="line"/>
      <point x="581.6666666666667" y="1012.6666666666666" type="line" smooth="yes"/>
      <point x="581.6666666666667" y="1198.888888888889"/>
      <point x="514.1111111111111" y="1376.888888888889"/>
      <point x="650.2222222222222" y="1376.888888888889" type="curve" smooth="yes"/>
      <point x="695.7777777777778" y="1376.888888888889"/>
      <point x="767.8888888888889" y="1368.4444444444443"/>
      <point x="767.8888888888889" y="1299.2222222222222" type="curve" smooth="yes"/>
      <point x="767.8888888888889" y="1279.111111111111"/>
      <point x="764.0" y="1252.888888888889"/>
      <point x="754.3333333333333" y="1214.5555555555557" type="curve"/>
      <point x="937.7777777777778" y="1214.5555555555557" type="line"/>
      <point x="949.5555555555555" y="1237.6666666666667"/>
      <point x="958.0" y="1292.888888888889"/>
      <point x="958.0" y="1326.5555555555557" type="curve" smooth="yes"/>
      <point x="958.0" y="1478.6666666666667"/>
      <point x="791.8888888888889" y="1561.2222222222222"/>
      <point x="617.1111111111111" y="1561.2222222222222" type="curve" smooth="yes"/>
      <point x="385.8888888888889" y="1561.2222222222222"/>
      <point x="289.8888888888889" y="1404.4444444444443"/>
      <point x="289.8888888888889" y="1098.3333333333333" type="curve" smooth="yes"/>
    </contour>
    <contour>
      <point x="77.0" y="792.5555555555555" type="line"/>
      <point x="833.2222222222222" y="792.5555555555555" type="line"/>
      <point x="833.2222222222222" y="964.0" type="line"/>
      <point x="77.0" y="964.0" type="line"/>
    </contour>
  </outline>
</glyph>
<glyph name="g" format="2">
  <advance width="1331.7777777777778"/>
  <unicode hex="0067"/>
  <note>
g
</note>
  <anchor x="665.6666666666666" y="-478.6666666666667" name="bottom"/>
  <anchor x="631.8888888888889" y="1021.5555555555555" name="top"/>
  <outline>
    <contour>
      <point x="651.4444444444445" y="-575.7777777777778" type="curve" smooth="yes"/>
      <point x="1032.5555555555557" y="-575.7777777777778"/>
      <point x="1222.0" y="-320.55555555555554"/>
      <point x="1222.0" y="127.22222222222223" type="curve" smooth="yes"/>
      <point x="1222.0" y="1009.3333333333334" type="line"/>
      <point x="926.2222222222222" y="1009.3333333333334" type="line"/>
      <point x="926.2222222222222" y="697.5555555555555" type="line"/>
      <point x="974.1111111111111" y="758.7777777777778" type="line"/>
      <point x="905.0" y="941.7777777777778"/>
      <point x="768.2222222222222" y="1036.3333333333333"/>
      <point x="569.3333333333334" y="1036.3333333333333" type="curve" smooth="yes"/>
      <point x="275.1111111111111" y="1036.3333333333333"/>
      <point x="81.88888888888889" y="818.4444444444445"/>
      <point x="81.88888888888889" y="490.8888888888889" type="curve" smooth="yes"/>
      <point x="81.88888888888889" y="170.33333333333334"/>
      <point x="276.3333333333333" y="-40.0"/>
      <point x="574.4444444444445" y="-40.0" type="curve" smooth="yes"/>
      <point x="777.6666666666666" y="-40.0"/>
      <point x="911.2222222222222" y="55.77777777777777"/>
      <point x="978.5555555555555" y="235.44444444444446" type="curve"/>
      <point x="931.5555555555555" y="295.6666666666667" type="line"/>
      <point x="929.3333333333334" y="67.11111111111111" type="line"/>
      <point x="929.3333333333334" y="-230.55555555555554"/>
      <point x="825.8888888888889" y="-403.8888888888889"/>
      <point x="626.0" y="-403.8888888888889" type="curve" smooth="yes"/>
      <point x="454.22222222222223" y="-403.8888888888889"/>
      <point x="398.8888888888889" y="-346.1111111111111"/>
      <point x="368.22222222222223" y="-238.22222222222223" type="curve"/>
      <point x="100.22222222222223" y="-238.22222222222223" type="line"/>
      <point x="179.66666666666669" y="-472.3333333333333"/>
      <point x="348.44444444444446" y="-575.7777777777778"/>
    </contour>
    <contour>
      <point x="608.2222222222222" y="133.44444444444446" type="curve" smooth="yes"/>
      <point x="448.8888888888889" y="133.44444444444446"/>
      <point x="363.1111111111111" y="248.44444444444446"/>
      <point x="363.1111111111111" y="496.6666666666667" type="curve" smooth="yes"/>
      <point x="363.1111111111111" y="745.4444444444445"/>
      <point x="449.22222222222223" y="863.4444444444445"/>
      <point x="604.1111111111111" y="863.4444444444445" type="curve" smooth="yes"/>
      <point x="760.4444444444445" y="863.4444444444445"/>
      <point x="868.8888888888889" y="698.4444444444445"/>
      <point x="868.8888888888889" y="487.77777777777777" type="curve" smooth="yes"/>
      <point x="868.8888888888889" y="289.55555555555554"/>
      <point x="765.4444444444445" y="133.44444444444446"/>
    </contour>
  </outline>
</glyph>
<glyph name="h" format="2">
  <advance width="1210.3333333333333"/>
  <unicode hex="0068"/>
  <note>
h
</note>
  <anchor x="602.3333333333334" y="0.0" name="bottom"/>
  <anchor x="275.8888888888889" y="1335.111111111111" name="center"/>
  <anchor x="602.3333333333334" y="1521.3333333333333" name="top"/>
  <outline>
    <contour>
      <point x="112.88888888888889" y="0.0" type="line"/>
      <point x="417.1111111111111" y="0.0" type="line"/>
      <point x="417.1111111111111" y="583.0" type="line" smooth="yes"/>
      <point x="417.1111111111111" y="726.0"/>
      <point x="505.55555555555554" y="859.7777777777778"/>
      <point x="630.8888888888889" y="859.7777777777778" type="curve" smooth="yes"/>
      <point x="740.0" y="859.7777777777778"/>
      <point x="808.2222222222222" y="773.2222222222222"/>
      <point x="808.2222222222222" y="552.3333333333334" type="curve" smooth="yes"/>
      <point x="808.2222222222222" y="0.0" type="line"/>
      <point x="1112.4444444444443" y="0.0" type="line"/>
      <point x="1112.4444444444443" y="623.5555555555555" type="line" smooth="yes"/>
      <point x="1112.4444444444443" y="881.3333333333334"/>
      <point x="963.6666666666667" y="1034.7777777777778"/>
      <point x="703.8888888888889" y="1034.7777777777778" type="curve" smooth="yes"/>
      <point x="501.22222222222223" y="1034.7777777777778"/>
      <point x="396.55555555555554" y="935.2222222222222"/>
      <point x="341.0" y="684.5555555555555" type="curve"/>
      <point x="415.6666666666667" y="486.2222222222222" type="line"/>
      <point x="418.7777777777778" y="1521.3333333333333" type="line"/>
      <point x="112.88888888888889" y="1521.3333333333333" type="line"/>
    </contour>
  </outline>
</glyph>
<glyph name="k" format="2">
  <advance width="1255.3333333333333"/>
  <unicode hex="006B"/>
  <note>
k
</note>
  <anchor x="620.3333333333333" y="0.0" name="bottom"/>
  <anchor x="632.7777777777778" y="1521.3333333333333" name="top"/>
  <outline>
    <contour>
      <point x="112.88888888888889" y="0.0" type="line"/>
      <point x="404.55555555555554" y="0.0" type="line"/>
      <point x="404.55555555555554" y="1521.3333333333333" type="line"/>
      <point x="112.88888888888889" y="1521.3333333333333" type="line"/>
    </contour>
    <contour>
      <point x="857.1111111111111" y="0.0" type="line"/>
      <point x="1184.4444444444443" y="0.0" type="line"/>
      <point x="656.0" y="641.3333333333334" type="line"/>
      <point x="488.55555555555554" y="432.55555555555554" type="line"/>
    </contour>
    <contour>
      <point x="346.44444444444446" y="263.22222222222223" type="line"/>
      <point x="1077.888888888889" y="1009.3333333333334" type="line"/>
      <point x="807.3333333333334" y="1009.3333333333334" type="line"/>
      <point x="379.0" y="560.5555555555555" type="line"/>
    </contour>
  </outline>
</glyph>
<glyph name="l" format="2">
  <advance width="516.5555555555555"/>
  <unicode hex="006C"/>
  <note>
l
</note>
  <anchor x="215.0" y="0.0" name="bottom"/>
  <anchor x="260.1111111111111" y="799.0" name="center"/>
  <anchor x="755.0" y="799.0" name="dot"/>
  <anchor x="343.8888888888889" y="1508.2222222222222" name="top"/>
  <anchor x="509.55555555555554" y="1470.5555555555557" name="topright"/>
  <outline>
    <contour>
      <point x="112.88888888888889" y="0.0" type="line"/>
      <point x="403.6666666666667" y="0.0" type="line"/>
      <point x="403.6666666666667" y="1521.3333333333333" type="line"/>
      <point x="112.88888888888889" y="1521.3333333333333" type="line"/>
    </contour>
  </outline>
</glyph>
<glyph name="m" format="2">
  <advance width="1871.6666666666667"/>
  <unicode hex="006D"/>
  <note>
m
</note>
  <anchor x="936.1111111111111" y="0.0" name="bottom"/>
  <anchor x="936.1111111111111" y="1021.5555555555555" name="top"/>
  <outline>
    <contour>
      <point x="106.88888888888889" y="0.0" type="line"/>
      <point x="408.0" y="0.0" type="line"/>
      <point x="408.0" y="583.0" type="line" smooth="yes"/>
      <point x="408.0" y="726.4444444444445"/>
      <point x="496.55555555555554" y="861.3333333333334"/>
      <point x="625.0" y="861.3333333333334" type="curve" smooth="yes"/>
      <point x="729.7777777777778" y="861.3333333333334"/>
      <point x="790.4444444444445" y="777.6666666666666"/>
      <point x="790.4444444444445" y="565.2222222222222" type="curve" smooth="yes"/>
      <point x="790.4444444444445" y="0.0" type="line"/>
      <point x="1091.5555555555557" y="0.0" type="line"/>
      <point x="1091.5555555555557" y="583.0" type="line" smooth="yes"/>
      <point x="1091.5555555555557" y="726.8888888888889"/>
      <point x="1175.111111111111" y="860.4444444444445"/>
      <point x="1304.0" y="860.4444444444445" type="curve" smooth="yes"/>
      <point x="1408.3333333333333" y="860.4444444444445"/>
      <point x="1472.2222222222222" y="777.6666666666666"/>
      <point x="1472.2222222222222" y="565.2222222222222" type="curve" smooth="yes"/>
      <point x="1472.2222222222222" y="0.4444444444444444" type="line"/>
      <point x="1773.3333333333333" y="0.4444444444444444" type="line"/>
      <point x="1773.3333333333333" y="641.7777777777778" type="line" smooth="yes"/>
      <point x="1773.3333333333333" y="888.2222222222222"/>
      <point x="1623.2222222222222" y="1036.3333333333333"/>
      <point x="1374.7777777777778" y="1036.3333333333333" type="curve" smooth="yes"/>
      <point x="1169.4444444444443" y="1036.3333333333333"/>
      <point x="1064.3333333333333" y="936.3333333333334"/>
      <point x="1012.2222222222222" y="690.2222222222222" type="curve"/>
      <point x="1079.7777777777778" y="719.5555555555555" type="line"/>
      <point x="1050.7777777777778" y="921.7777777777778"/>
      <point x="915.7777777777778" y="1036.3333333333333"/>
      <point x="695.7777777777778" y="1036.3333333333333" type="curve" smooth="yes"/>
      <point x="518.0" y="1036.3333333333333"/>
      <point x="414.6666666666667" y="958.2222222222222"/>
      <point x="358.8888888888889" y="779.6666666666666" type="curve"/>
      <point x="405.8888888888889" y="727.8888888888889" type="line"/>
      <point x="408.0" y="1009.3333333333334" type="line"/>
      <point x="106.88888888888889" y="1009.3333333333334" type="line"/>
    </contour>
  </outline>
</glyph>
<glyph name="n" format="2">
  <advance width="1204.3333333333333"/>
  <unicode hex="006E"/>
  <note>
n
</note>
  <anchor x="597.2222222222222" y="0.0" name="bottom"/>
  <anchor x="597.2222222222222" y="1021.5555555555555" name="top"/>
  <outline>
    <contour>
      <point x="106.88888888888889" y="0.0" type="line"/>
      <point x="411.1111111111111" y="0.0" type="line"/>
      <point x="411.1111111111111" y="583.0" type="line" smooth="yes"/>
      <point x="411.1111111111111" y="726.0"/>
      <point x="499.55555555555554" y="859.7777777777778"/>
      <point x="625.3333333333334" y="859.7777777777778" type="curve" smooth="yes"/>
      <point x="734.0" y="859.7777777777778"/>
      <point x="802.2222222222222" y="773.2222222222222"/>
      <point x="802.2222222222222" y="552.3333333333334" type="curve" smooth="yes"/>
      <point x="802.2222222222222" y="0.0" type="line"/>
      <point x="1106.4444444444443" y="0.0" type="line"/>
      <point x="1106.4444444444443" y="623.5555555555555" type="line" smooth="yes"/>
      <point x="1106.4444444444443" y="881.3333333333334"/>
      <point x="957.6666666666667" y="1036.3333333333333"/>
      <point x="697.8888888888889" y="1036.3333333333333" type="curve" smooth="yes"/>
      <point x="492.55555555555554" y="1036.3333333333333"/>
      <point x="387.0" y="932.1111111111111"/>
      <point x="335.0" y="685.0" type="curve"/>
      <point x="408.0" y="485.77777777777777" type="line"/>
      <point x="411.1111111111111" y="1009.3333333333334" type="line"/>
      <point x="106.88888888888889" y="1009.3333333333334" type="line"/>
    </contour>
  </outline>
</glyph>
<glyph name="o" format="2">
  <advance width="1241.4444444444443"/>
  <unicode hex="006F"/>
  <note>
o
</note>
  <anchor x="621.2222222222222" y="9.777777777777779" name="bottom"/>
  <anchor x="621.2222222222222" y="500.77777777777777" name="center"/>
  <anchor x="770.6666666666666" y="0.0" name="ogonek"/>
  <anchor x="621.2222222222222" y="1021.5555555555555" name="top"/>
  <anchor x="1242.0" y="1001.5555555555555" name="topright"/>
  <outline>
    <contour>
      <point x="620.7777777777778" y="-38.44444444444444" type="curve" smooth="yes"/>
      <point x="949.3333333333334" y="-38.44444444444444"/>
      <point x="1160.111111111111" y="170.66666666666666"/>
      <point x="1160.111111111111" y="492.44444444444446" type="curve" smooth="yes"/>
      <point x="1160.111111111111" y="816.5555555555555"/>
      <point x="943.8888888888889" y="1036.3333333333333"/>
      <point x="620.7777777777778" y="1036.3333333333333" type="curve" smooth="yes"/>
      <point x="297.1111111111111" y="1036.3333333333333"/>
      <point x="81.33333333333333" y="816.5555555555555"/>
      <point x="81.33333333333333" y="492.44444444444446" type="curve" smooth="yes"/>
      <point x="81.33333333333333" y="170.66666666666666"/>
      <point x="292.6666666666667" y="-38.44444444444444"/>
    </contour>
    <contour>
      <point x="620.7777777777778" y="133.33333333333334" type="curve" smooth="yes"/>
      <point x="485.66666666666663" y="133.33333333333334"/>
      <point x="392.44444444444446" y="283.6666666666667"/>
      <point x="392.44444444444446" y="494.1111111111111" type="curve" smooth="yes"/>
      <point x="392.44444444444446" y="706.3333333333334"/>
      <point x="487.55555555555554" y="865.0"/>
      <point x="620.7777777777778" y="865.0" type="curve" smooth="yes"/>
      <point x="754.5555555555555" y="865.0"/>
      <point x="850.6666666666666" y="699.7777777777778"/>
      <point x="850.6666666666666" y="492.44444444444446" type="curve" smooth="yes"/>
      <point x="850.6666666666666" y="283.8888888888889"/>
      <point x="756.7777777777778" y="133.33333333333334"/>
    </contour>
  </outline>
</glyph>
<glyph name="p" format="2">
  <advance width="1333.0"/>
  <unicode hex="0070"/>
  <note>
p
</note>
  <anchor x="671.4444444444445" y="47.33333333333333" name="bottom"/>
  <anchor x="671.4444444444445" y="1001.5555555555555" name="top"/>
  <outline>
    <contour>
      <point x="112.88888888888889" y="-526.0" type="line"/>
      <point x="408.22222222222223" y="-526.0" type="line"/>
      <point x="408.22222222222223" y="419.8888888888889" type="line"/>
      <point x="329.1111111111111" y="356.77777777777777" type="line"/>
      <point x="377.22222222222223" y="99.55555555555556"/>
      <point x="527.1111111111111" y="-34.888888888888886"/>
      <point x="764.2222222222222" y="-34.888888888888886" type="curve" smooth="yes"/>
      <point x="1058.888888888889" y="-34.888888888888886"/>
      <point x="1251.6666666666667" y="182.44444444444446"/>
      <point x="1251.6666666666667" y="507.44444444444446" type="curve" smooth="yes"/>
      <point x="1251.6666666666667" y="827.5555555555555"/>
      <point x="1057.6666666666667" y="1036.3333333333333"/>
      <point x="759.5555555555555" y="1036.3333333333333" type="curve" smooth="yes"/>
      <point x="519.0" y="1036.3333333333333"/>
      <point x="377.77777777777777" y="912.2222222222222"/>
      <point x="323.8888888888889" y="656.6666666666666" type="curve"/>
      <point x="404.6666666666667" y="595.1111111111111" type="line"/>
      <point x="404.6666666666667" y="1009.3333333333334" type="line"/>
      <point x="112.88888888888889" y="1009.3333333333334" type="line"/>
    </contour>
    <contour>
      <point x="720.0" y="137.44444444444446" type="curve" smooth="yes"/>
      <point x="557.8888888888889" y="137.44444444444446"/>
      <point x="445.22222222222223" y="301.3333333333333"/>
      <point x="445.22222222222223" y="510.55555555555554" type="curve" smooth="yes"/>
      <point x="445.22222222222223" y="710.7777777777778"/>
      <point x="552.8888888888889" y="864.4444444444445"/>
      <point x="715.8888888888889" y="864.4444444444445" type="curve" smooth="yes"/>
      <point x="881.5555555555555" y="864.4444444444445"/>
      <point x="970.8888888888889" y="750.8888888888889"/>
      <point x="970.8888888888889" y="502.1111111111111" type="curve" smooth="yes"/>
      <point x="970.8888888888889" y="254.44444444444446"/>
      <point x="882.1111111111111" y="137.44444444444446"/>
    </contour>
  </outline>
</glyph>
<glyph name="q" format="2">
  <advance width="1327.4444444444443"/>
  <unicode hex="0071"/>
  <note>
q
</note>
  <anchor x="664.1111111111111" y="47.33333333333333" name="bottom"/>
  <anchor x="664.1111111111111" y="1001.5555555555555" name="top"/>
  <outline>
    <contour>
      <point x="925.2222222222222" y="-526.0" type="line"/>
      <point x="1220.111111111111" y="-526.0" type="line"/>
      <point x="1220.111111111111" y="1009.3333333333334" type="line"/>
      <point x="928.3333333333334" y="1009.3333333333334" type="line"/>
      <point x="928.3333333333334" y="592.0" type="line"/>
      <point x="1009.5555555555555" y="653.5555555555555" type="line"/>
      <point x="955.6666666666666" y="909.5555555555555"/>
      <point x="814.4444444444445" y="1036.3333333333333"/>
      <point x="573.4444444444445" y="1036.3333333333333" type="curve" smooth="yes"/>
      <point x="275.3333333333333" y="1036.3333333333333"/>
      <point x="81.33333333333333" y="824.8888888888889"/>
      <point x="81.33333333333333" y="507.44444444444446" type="curve" smooth="yes"/>
      <point x="81.33333333333333" y="182.44444444444446"/>
      <point x="274.55555555555554" y="-34.888888888888886"/>
      <point x="568.7777777777778" y="-34.888888888888886" type="curve" smooth="yes"/>
      <point x="806.3333333333334" y="-34.888888888888886"/>
      <point x="955.7777777777778" y="99.11111111111111"/>
      <point x="1003.8888888888889" y="356.77777777777777" type="curve"/>
      <point x="925.2222222222222" y="419.8888888888889" type="line"/>
    </contour>
    <contour>
      <point x="613.0" y="137.44444444444446" type="curve" smooth="yes"/>
      <point x="451.33333333333337" y="137.44444444444446"/>
      <point x="362.1111111111111" y="254.44444444444446"/>
      <point x="362.1111111111111" y="502.1111111111111" type="curve" smooth="yes"/>
      <point x="362.1111111111111" y="747.7777777777778"/>
      <point x="451.44444444444446" y="864.4444444444445"/>
      <point x="617.1111111111111" y="864.4444444444445" type="curve" smooth="yes"/>
      <point x="780.5555555555555" y="864.4444444444445"/>
      <point x="888.2222222222222" y="707.6666666666666"/>
      <point x="888.2222222222222" y="510.55555555555554" type="curve" smooth="yes"/>
      <point x="888.2222222222222" y="301.3333333333333"/>
      <point x="775.5555555555555" y="137.44444444444446"/>
    </contour>
  </outline>
</glyph>
<glyph name="r" format="2">
  <advance width="1076.4444444444443"/>
  <unicode hex="0072"/>
  <note>
r
</note>
  <anchor x="226.0" y="0.0" name="bottom"/>
  <anchor x="698.0" y="1021.5555555555555" name="top"/>
  <outline>
    <contour>
      <point x="106.88888888888889" y="0.0" type="line"/>
      <point x="411.1111111111111" y="0.0" type="line"/>
      <point x="411.1111111111111" y="591.8888888888889" type="line" smooth="yes"/>
      <point x="411.1111111111111" y="727.7777777777778"/>
      <point x="498.22222222222223" y="860.3333333333334"/>
      <point x="617.3333333333334" y="860.3333333333334" type="curve" smooth="yes"/>
      <point x="665.7777777777778" y="860.3333333333334"/>
      <point x="797.6666666666666" y="858.2222222222222"/>
      <point x="766.8888888888889" y="729.5555555555555" type="curve" smooth="yes"/>
      <point x="764.2222222222222" y="712.7777777777778"/>
      <point x="753.0" y="671.0"/>
      <point x="733.8888888888889" y="648.4444444444445" type="curve"/>
      <point x="951.3333333333333" y="608.4444444444445" type="line"/>
      <point x="990.0" y="666.7777777777778"/>
      <point x="999.0" y="762.4444444444445"/>
      <point x="999.0" y="801.3333333333334" type="curve" smooth="yes"/>
      <point x="999.0" y="990.6666666666666"/>
      <point x="815.1111111111111" y="1036.3333333333333"/>
      <point x="690.3333333333334" y="1036.3333333333333" type="curve" smooth="yes"/>
      <point x="481.6666666666667" y="1036.3333333333333"/>
      <point x="403.44444444444446" y="917.8888888888889"/>
      <point x="349.22222222222223" y="673.8888888888889" type="curve"/>
      <point x="408.0" y="484.44444444444446" type="line"/>
      <point x="411.1111111111111" y="1009.3333333333334" type="line"/>
      <point x="106.88888888888889" y="1009.3333333333334" type="line"/>
    </contour>
  </outline>
</glyph>
<glyph name="s" format="2">
  <advance width="1018.8888888888889"/>
  <unicode hex="0073"/>
  <note>
s
</note>
  <anchor x="494.55555555555554" y="-4.888888888888889" name="bottom"/>
  <anchor x="509.66666666666663" y="1014.2222222222222" name="top"/>
  <outline>
    <contour>
      <point x="495.33333333333337" y="-30.77777777777778" type="curve" smooth="yes"/>
      <point x="790.8888888888889" y="-28.666666666666668"/>
      <point x="942.5555555555555" y="74.0"/>
      <point x="941.0" y="293.22222222222223" type="curve" smooth="yes"/>
      <point x="939.8888888888889" y="508.22222222222223"/>
      <point x="749.4444444444445" y="568.3333333333334"/>
      <point x="520.6666666666666" y="616.8888888888889" type="curve" smooth="yes"/>
      <point x="344.33333333333337" y="654.2222222222222"/>
      <point x="310.55555555555554" y="692.3333333333334"/>
      <point x="310.55555555555554" y="742.2222222222222" type="curve" smooth="yes"/>
      <point x="310.55555555555554" y="823.0"/>
      <point x="382.77777777777777" y="852.4444444444445"/>
      <point x="503.55555555555554" y="853.4444444444445" type="curve" smooth="yes"/>
      <point x="632.2222222222222" y="854.0"/>
      <point x="753.5555555555555" y="828.2222222222222"/>
      <point x="881.6666666666666" y="761.8888888888889" type="curve"/>
      <point x="880.1111111111111" y="941.3333333333334" type="line"/>
      <point x="752.6666666666666" y="1002.2222222222222"/>
      <point x="664.4444444444445" y="1036.888888888889"/>
      <point x="502.55555555555554" y="1036.3333333333333" type="curve" smooth="yes"/>
      <point x="263.0" y="1035.3333333333333"/>
      <point x="96.33333333333333" y="953.0"/>
      <point x="97.88888888888889" y="731.2222222222222" type="curve" smooth="yes"/>
      <point x="99.44444444444444" y="543.4444444444445"/>
      <point x="198.44444444444446" y="485.77777777777777"/>
      <point x="424.1111111111111" y="436.55555555555554" type="curve" smooth="yes"/>
      <point x="617.7777777777778" y="394.55555555555554"/>
      <point x="700.3333333333334" y="381.77777777777777"/>
      <point x="700.3333333333334" y="281.0" type="curve" smooth="yes"/>
      <point x="700.3333333333334" y="180.22222222222223"/>
      <point x="525.7777777777778" y="161.44444444444446"/>
      <point x="484.44444444444446" y="161.44444444444446" type="curve" smooth="yes"/>
      <point x="330.44444444444446" y="159.88888888888889"/>
      <point x="216.11111111111111" y="201.22222222222223"/>
      <point x="83.0" y="289.55555555555554" type="curve"/>
      <point x="85.11111111111111" y="88.11111111111111" type="line"/>
      <point x="188.77777777777777" y="2.4444444444444446"/>
      <point x="301.6666666666667" y="-32.333333333333336"/>
    </contour>
  </outline>
</glyph>
<glyph name="t" format="2">
  <advance width="850.1111111111111"/>
  <unicode hex="0074"/>
  <note>
t
</note>
  <anchor x="484.0" y="-10.0" name="bottom"/>
  <anchor x="431.1111111111111" y="534.1111111111111" name="center"/>
  <anchor x="444.0" y="1001.5555555555555" name="top"/>
  <anchor x="842.8888888888889" y="1416.6666666666667" name="topright"/>
  <outline>
    <contour>
      <point x="497.22222222222223" y="-30.666666666666668" type="curve" smooth="yes"/>
      <point x="584.0" y="-30.666666666666668"/>
      <point x="717.3333333333334" y="-10.88888888888889"/>
      <point x="772.6666666666666" y="8.88888888888889" type="curve"/>
      <point x="772.6666666666666" y="182.22222222222223" type="line"/>
      <point x="673.5555555555555" y="147.55555555555554"/>
      <point x="618.2222222222222" y="142.77777777777777"/>
      <point x="578.5555555555555" y="142.77777777777777" type="curve" smooth="yes"/>
      <point x="478.1111111111111" y="142.77777777777777"/>
      <point x="510.33333333333337" y="215.88888888888889"/>
      <point x="510.33333333333337" y="482.55555555555554" type="curve" smooth="yes"/>
      <point x="510.33333333333337" y="841.2222222222222" type="line"/>
      <point x="706.3333333333334" y="841.2222222222222" type="line"/>
      <point x="706.3333333333334" y="1012.0" type="line"/>
      <point x="510.33333333333337" y="1012.0" type="line"/>
      <point x="510.33333333333337" y="1313.0" type="line"/>
      <point x="373.3333333333333" y="1313.0" type="line"/>
      <point x="411.8888888888889" y="1116.0"/>
      <point x="303.6666666666667" y="1010.0"/>
      <point x="77.0" y="1012.0" type="curve"/>
      <point x="77.0" y="841.2222222222222" type="line"/>
      <point x="239.55555555555554" y="841.2222222222222" type="line"/>
      <point x="239.55555555555554" y="248.77777777777777" type="line" smooth="yes"/>
      <point x="239.55555555555554" y="89.55555555555554"/>
      <point x="293.22222222222223" y="-30.666666666666668"/>
    </contour>
  </outline>
</glyph>
<glyph name="u" format="2">
  <advance width="1235.111111111111"/>
  <unicode hex="0075"/>
  <note>
u
</note>
  <anchor x="548.5555555555555" y="-4.888888888888889" name="bottom"/>
  <anchor x="1009.0" y="0.0" name="ogonek"/>
  <anchor x="611.0" y="1009.3333333333334" name="top"/>
  <anchor x="1381.4444444444443" y="1009.3333333333334" name="topright"/>
  <outline>
    <contour>
      <point x="518.3333333333334" y="-25.88888888888889" type="curve" smooth="yes"/>
      <point x="714.3333333333334" y="-25.88888888888889"/>
      <point x="820.3333333333334" y="121.66666666666667"/>
      <point x="879.0" y="343.44444444444446" type="curve"/>
      <point x="827.1111111111111" y="531.5555555555555" type="line"/>
      <point x="824.4444444444445" y="0.0" type="line"/>
      <point x="1128.2222222222222" y="0.0" type="line"/>
      <point x="1128.2222222222222" y="1009.3333333333334" type="line"/>
      <point x="824.4444444444445" y="1009.3333333333334" type="line"/>
      <point x="824.4444444444445" y="453.0" type="line" smooth="yes"/>
      <point x="824.4444444444445" y="289.1111111111111"/>
      <point x="719.5555555555555" y="149.11111111111111"/>
      <point x="553.3333333333334" y="149.11111111111111" type="curve" smooth="yes"/>
      <point x="440.6666666666667" y="149.11111111111111"/>
      <point x="401.55555555555554" y="240.11111111111111"/>
      <point x="401.55555555555554" y="445.0" type="curve" smooth="yes"/>
      <point x="401.55555555555554" y="1009.3333333333334" type="line"/>
      <point x="97.33333333333333" y="1009.3333333333334" type="line"/>
      <point x="97.33333333333333" y="366.6666666666667" type="line" smooth="yes"/>
      <point x="97.33333333333333" y="124.0"/>
      <point x="277.6666666666667" y="-25.88888888888889"/>
    </contour>
  </outline>
</glyph>
<glyph name="v" format="2">
  <advance width="1283.0"/>
  <unicode hex="0076"/>
  <note>
v
</note>
  <anchor x="641.7777777777778" y="47.33333333333333" name="bottom"/>
  <anchor x="641.7777777777778" y="1001.5555555555555" name="top"/>
  <outline>
    <contour>
      <point x="603.5555555555555" y="-25.444444444444443" type="line"/>
      <point x="687.4444444444445" y="-25.444444444444443" type="line"/>
      <point x="1202.7777777777778" y="1009.3333333333334" type="line"/>
      <point x="1016.2222222222222" y="1009.3333333333334" type="line"/>
      <point x="683.0" y="310.77777777777777" type="line"/>
      <point x="740.8888888888889" y="316.6666666666667" type="line"/>
      <point x="399.0" y="1009.3333333333334" type="line"/>
      <point x="80.22222222222223" y="1009.3333333333334" type="line"/>
    </contour>
  </outline>
</glyph>
<glyph name="w" format="2">
  <advance width="1840.3333333333335"/>
  <unicode hex="0077"/>
  <note>
w
</note>
  <anchor x="920.6666666666666" y="0.0" name="bottom"/>
  <anchor x="920.6666666666666" y="1009.3333333333334" name="top"/>
  <outline>
    <contour>
      <point x="1159.0" y="-22.77777777777778" type="line"/>
      <point x="1243.888888888889" y="-22.77777777777778" type="line"/>
      <point x="1768.4444444444443" y="1009.3333333333334" type="line"/>
      <point x="1582.7777777777778" y="1009.3333333333334" type="line"/>
      <point x="1243.3333333333333" y="314.77777777777777" type="line"/>
      <point x="1333.111111111111" y="296.44444444444446" type="line"/>
      <point x="959.7777777777778" y="1009.3333333333334" type="line"/>
      <point x="641.4444444444445" y="1009.3333333333334" type="line"/>
    </contour>
    <contour>
      <point x="589.8888888888889" y="-22.77777777777778" type="line"/>
      <point x="674.2222222222222" y="-22.77777777777778" type="line"/>
      <point x="991.8888888888889" y="637.3333333333334" type="line"/>
      <point x="899.0" y="826.1111111111111" type="line"/>
      <point x="669.4444444444445" y="314.77777777777777" type="line"/>
      <point x="733.2222222222222" y="295.8888888888889" type="line"/>
      <point x="390.22222222222223" y="1009.3333333333334" type="line"/>
      <point x="71.88888888888889" y="1009.3333333333334" type="line"/>
    </contour>
    <contour>
      <point x="1032.111111111111" y="682.2222222222222" type="line"/>
      <point x="1195.0" y="1009.3333333333334" type="line"/>
      <point x="1005.6666666666666" y="1009.3333333333334" type="line"/>
      <point x="896.3333333333334" y="792.2222222222222" type="line"/>
    </contour>
  </outline>
</glyph>
<glyph name="x" format="2">
  <advance width="1261.0"/>
  <unicode hex="0078"/>
  <note>
x
</note>
  <anchor x="631.0" y="47.33333333333333" name="bottom"/>
  <anchor x="631.0" y="1001.5555555555555" name="top"/>
  <outline>
    <contour>
      <point x="832.5555555555555" y="0.0" type="line"/>
      <point x="1189.6666666666667" y="0.0" type="line"/>
      <point x="430.22222222222223" y="1009.3333333333334" type="line"/>
      <point x="73.11111111111111" y="1009.3333333333334" type="line"/>
    </contour>
    <contour>
      <point x="105.22222222222223" y="0.0" type="line"/>
      <point x="330.44444444444446" y="0.0" type="line"/>
      <point x="667.7777777777778" y="431.6666666666667" type="line"/>
      <point x="566.3333333333334" y="582.3333333333334" type="line"/>
    </contour>
    <contour>
      <point x="699.0" y="449.22222222222223" type="line"/>
      <point x="1143.888888888889" y="1009.3333333333334" type="line"/>
      <point x="918.3333333333334" y="1009.3333333333334" type="line"/>
      <point x="589.1111111111111" y="590.3333333333334" type="line"/>
    </contour>
  </outline>
</glyph>
<glyph name="y" format="2">
  <advance width="1211.2222222222222"/>
  <unicode hex="0079"/>
  <note>
y
</note>
  <anchor x="882.2222222222222" y="0.0" name="bottom"/>
  <anchor x="649.7777777777778" y="1009.3333333333334" name="top"/>
  <outline>
    <contour>
      <point x="343.77777777777777" y="-575.4444444444445" type="curve" smooth="yes"/>
      <point x="496.55555555555554" y="-575.4444444444445"/>
      <point x="547.5555555555555" y="-442.44444444444446"/>
      <point x="596.6666666666666" y="-299.77777777777777" type="curve" smooth="yes"/>
      <point x="634.1111111111111" y="-192.11111111111111"/>
      <point x="673.0" y="-80.22222222222223"/>
      <point x="717.6666666666666" y="27.66666666666667" type="curve"/>
      <point x="1138.888888888889" y="1009.3333333333334" type="line"/>
      <point x="952.7777777777778" y="1009.3333333333334" type="line"/>
      <point x="631.0" y="254.44444444444446" type="line"/>
      <point x="764.7777777777778" y="255.0" type="line"/>
      <point x="387.55555555555554" y="1009.3333333333334" type="line"/>
      <point x="71.33333333333333" y="1009.3333333333334" type="line"/>
      <point x="622.4444444444445" y="-78.22222222222223" type="line"/>
      <point x="589.6666666666666" y="158.22222222222223" type="line"/>
      <point x="490.1111111111111" y="-175.77777777777777" type="line" smooth="yes"/>
      <point x="451.8888888888889" y="-296.44444444444446"/>
      <point x="422.1111111111111" y="-451.22222222222223"/>
      <point x="339.1111111111111" y="-451.22222222222223" type="curve" smooth="yes"/>
      <point x="255.88888888888889" y="-451.22222222222223"/>
      <point x="239.0" y="-406.6666666666667"/>
      <point x="236.88888888888889" y="-384.6666666666667" type="curve"/>
      <point x="125.55555555555556" y="-384.6666666666667" type="line"/>
      <point x="132.66666666666666" y="-508.55555555555554"/>
      <point x="199.33333333333334" y="-575.4444444444445"/>
    </contour>
  </outline>
</glyph>
<glyph name="z" format="2">
  <advance width="1137.5555555555557"/>
  <unicode hex="007A"/>
  <note>
z
</note>
  <anchor x="569.3333333333334" y="0.0" name="bottom"/>
  <anchor x="569.3333333333334" y="504.8888888888889" name="center"/>
  <anchor x="569.3333333333334" y="1009.3333333333334" name="top"/>
  <outline>
    <contour>
      <point x="71.88888888888889" y="0.0" type="line"/>
      <point x="1046.111111111111" y="0.0" type="line"/>
      <point x="1046.111111111111" y="174.33333333333334" type="line"/>
      <point x="394.33333333333337" y="174.33333333333334" type="line"/>
      <point x="381.0" y="49.22222222222222" type="line"/>
      <point x="1060.5555555555557" y="1009.3333333333334" type="line"/>
      <point x="117.55555555555556" y="1009.3333333333334" type="line"/>
      <point x="117.55555555555556" y="836.5555555555555" type="line"/>
      <point x="733.0" y="836.5555555555555" type="line"/>
      <point x="751.0" y="959.6666666666666" type="line"/>
    </contour>
  </outline>
</glyph>
<glyph name="braceleft" format="2">
  <advance width="841.3333333333333"/>
  <unicode hex="007B"/>
  <note>
braceleft
</note>
  <outline>
    <contour>
      <point x="737.7777777777778" y="-378.6666666666667" type="curve"/>
      <point x="737.7777777777778" y="-181.66666666666669" type="line"/>
      <point x="548.0" y="-219.77777777777777"/>
      <point x="477.55555555555554" y="-156.55555555555554"/>
      <point x="477.55555555555554" y="59.666666666666664" type="curve" smooth="yes"/>
      <point x="477.55555555555554" y="355.55555555555554" type="line" smooth="yes"/>
      <point x="477.55555555555554" y="412.1111111111111"/>
      <point x="459.33333333333337" y="453.1111111111111"/>
      <point x="417.0" y="492.77777777777777" type="curve"/>
      <point x="459.33333333333337" y="533.3333333333334"/>
      <point x="477.55555555555554" y="573.3333333333334"/>
      <point x="477.55555555555554" y="629.0" type="curve" smooth="yes"/>
      <point x="477.55555555555554" y="1022.2222222222222" type="line" smooth="yes"/>
      <point x="477.55555555555554" y="1234.5555555555557"/>
      <point x="552.0" y="1301.6666666666667"/>
      <point x="737.7777777777778" y="1262.0" type="curve"/>
      <point x="737.7777777777778" y="1460.5555555555557" type="line"/>
      <point x="451.22222222222223" y="1491.3333333333333"/>
      <point x="271.22222222222223" y="1345.5555555555557"/>
      <point x="271.22222222222223" y="1086.5555555555557" type="curve" smooth="yes"/>
      <point x="271.22222222222223" y="629.0" type="line" smooth="yes"/>
      <point x="271.22222222222223" y="584.6666666666666"/>
      <point x="254.55555555555554" y="583.6666666666666"/>
      <point x="93.88888888888889" y="494.3333333333333" type="curve"/>
      <point x="253.22222222222223" y="402.55555555555554"/>
      <point x="271.22222222222223" y="399.8888888888889"/>
      <point x="271.22222222222223" y="355.55555555555554" type="curve" smooth="yes"/>
      <point x="271.22222222222223" y="-4.222222222222221" type="line" smooth="yes"/>
      <point x="271.22222222222223" y="-266.22222222222223"/>
      <point x="449.6666666666667" y="-409.55555555555554"/>
    </contour>
  </outline>
</glyph>
<glyph name="braceright" format="2">
  <advance width="841.7777777777778"/>
  <unicode hex="007D"/>
  <note>
braceright
</note>
  <outline>
    <contour>
      <point x="103.55555555555556" y="-378.6666666666667" type="line"/>
      <point x="392.1111111111111" y="-409.55555555555554"/>
      <point x="570.1111111111111" y="-266.22222222222223"/>
      <point x="570.1111111111111" y="-4.222222222222221" type="curve" smooth="yes"/>
      <point x="570.1111111111111" y="355.55555555555554" type="line" smooth="yes"/>
      <point x="570.1111111111111" y="400.44444444444446"/>
      <point x="587.0" y="401.55555555555554"/>
      <point x="747.8888888888889" y="493.3333333333333" type="curve"/>
      <point x="584.6666666666666" y="584.2222222222222"/>
      <point x="570.1111111111111" y="585.7777777777778"/>
      <point x="570.1111111111111" y="629.0" type="curve" smooth="yes"/>
      <point x="570.1111111111111" y="1086.5555555555557" type="line" smooth="yes"/>
      <point x="570.1111111111111" y="1345.5555555555557"/>
      <point x="390.55555555555554" y="1491.3333333333333"/>
      <point x="103.55555555555556" y="1460.5555555555557" type="curve"/>
      <point x="103.55555555555556" y="1262.0" type="line"/>
      <point x="290.77777777777777" y="1301.6666666666667"/>
      <point x="363.6666666666667" y="1235.111111111111"/>
      <point x="363.6666666666667" y="1022.2222222222222" type="curve" smooth="yes"/>
      <point x="363.6666666666667" y="629.0" type="line" smooth="yes"/>
      <point x="363.6666666666667" y="571.7777777777778"/>
      <point x="381.8888888888889" y="533.8888888888889"/>
      <point x="424.22222222222223" y="492.77777777777777" type="curve"/>
      <point x="381.8888888888889" y="452.55555555555554"/>
      <point x="363.6666666666667" y="412.6666666666667"/>
      <point x="363.6666666666667" y="355.55555555555554" type="curve" smooth="yes"/>
      <point x="363.6666666666667" y="59.666666666666664" type="line" smooth="yes"/>
      <point x="363.6666666666667" y="-156.55555555555554"/>
      <point x="293.22222222222223" y="-219.77777777777777"/>
      <point x="103.55555555555556" y="-181.66666666666669" type="curve"/>
    </contour>
  </outline>
</glyph>
<glyph name="asciitilde" format="2">
  <advance width="1476.111111111111"/>
  <unicode hex="007E"/>
  <note>
asciitilde
</note>
  <outline>
    <contour>
      <point x="942.1111111111111" y="513.0" type="curve" smooth="yes"/>
      <point x="1098.3333333333335" y="513.0"/>
      <point x="1281.111111111111" y="623.7777777777778"/>
      <point x="1343.3333333333333" y="654.4444444444445" type="curve"/>
      <point x="1217.2222222222222" y="851.5555555555555" type="line"/>
      <point x="1124.6666666666667" y="794.0"/>
      <point x="1027.0" y="760.1111111111111"/>
      <point x="941.7777777777778" y="760.1111111111111" type="curve" smooth="yes"/>
      <point x="865.4444444444445" y="760.1111111111111"/>
      <point x="813.2222222222222" y="794.5555555555555"/>
      <point x="771.1111111111111" y="816.2222222222222" type="curve" smooth="yes"/>
      <point x="674.3333333333334" y="866.4444444444445"/>
      <point x="598.1111111111111" y="892.8888888888889"/>
      <point x="524.3333333333334" y="892.8888888888889" type="curve" smooth="yes"/>
      <point x="418.3333333333333" y="892.8888888888889"/>
      <point x="258.3333333333333" y="823.6666666666666"/>
      <point x="132.77777777777777" y="717.7777777777778" type="curve"/>
      <point x="252.0" y="534.1111111111111" type="line"/>
      <point x="377.55555555555554" y="617.8888888888889"/>
      <point x="464.44444444444446" y="643.3333333333334"/>
      <point x="524.2222222222222" y="643.3333333333334" type="curve" smooth="yes"/>
      <point x="578.7777777777778" y="643.3333333333334"/>
      <point x="644.4444444444445" y="616.4444444444445"/>
      <point x="714.4444444444445" y="581.3333333333334" type="curve" smooth="yes"/>
      <point x="811.2222222222222" y="530.3333333333334"/>
      <point x="868.4444444444445" y="513.0"/>
    </contour>
  </outline>
</glyph>
<glyph name=".notdef" format="2">
  <advance width="1235.0"/>
  <unicode hex="007F"/>
  <note>
.notdef
</note>
  <outline>
    <contour>
      <point x="38.22222222222223" y="-341.44444444444446" type="line"/>
      <point x="1196.7777777777778" y="-341.44444444444446" type="line"/>
      <point x="1196.7777777777778" y="1416.7777777777778" type="line"/>
      <point x="38.22222222222223" y="1416.7777777777778" type="line"/>
    </contour>
    <contour>
      <point x="283.77777777777777" y="-112.0" type="line"/>
      <point x="283.77777777777777" y="1187.3333333333333" type="line"/>
      <point x="953.2222222222222" y="1187.3333333333333" type="line"/>
      <point x="953.2222222222222" y="-112.0" type="line"/>
    </contour>
  </outline>
</glyph>
<glyph name="Euro" format="2">
  <advance width="1861.5555555555557"/>
  <unicode hex="0080"/>
  <note>
Euro
</note>
  <outline>
    <contour>
      <point x="1106.2222222222222" y="-44.88888888888889" type="curve" smooth="yes"/>
      <point x="1399.888888888889" y="-44.88888888888889"/>
      <point x="1605.7777777777778" y="116.88888888888889"/>
      <point x="1718.2222222222222" y="370.44444444444446" type="curve"/>
      <point x="1472.6666666666667" y="370.44444444444446" type="line"/>
      <point x="1380.4444444444443" y="163.33333333333334"/>
      <point x="1219.888888888889" y="118.11111111111111"/>
      <point x="1115.3333333333333" y="118.11111111111111" type="curve" smooth="yes"/>
      <point x="851.8888888888889" y="118.11111111111111"/>
      <point x="687.8888888888889" y="393.6666666666667"/>
      <point x="687.8888888888889" y="701.4444444444445" type="curve" smooth="yes"/>
      <point x="687.8888888888889" y="1032.6666666666667"/>
      <point x="880.6666666666667" y="1284.7777777777778"/>
      <point x="1101.4444444444443" y="1284.7777777777778" type="curve" smooth="yes"/>
      <point x="1217.2222222222222" y="1284.7777777777778"/>
      <point x="1401.3333333333333" y="1216.4444444444443"/>
      <point x="1459.5555555555557" y="1023.6666666666666" type="curve"/>
      <point x="1701.7777777777778" y="1023.6666666666666" type="line"/>
      <point x="1609.6666666666667" y="1275.5555555555557"/>
      <point x="1402.6666666666667" y="1447.3333333333333"/>
      <point x="1106.6666666666667" y="1447.3333333333333" type="curve" smooth="yes"/>
      <point x="707.8888888888889" y="1447.3333333333333"/>
      <point x="397.0" y="1156.7777777777778"/>
      <point x="397.44444444444446" y="702.5555555555555" type="curve" smooth="yes"/>
      <point x="397.44444444444446" y="263.22222222222223"/>
      <point x="700.8888888888889" y="-44.88888888888889"/>
    </contour>
    <contour>
      <point x="143.33333333333334" y="477.3333333333333" type="line"/>
      <point x="1121.7777777777778" y="477.3333333333333" type="line"/>
      <point x="1163.3333333333333" y="641.0" type="line"/>
      <point x="188.0" y="641.0" type="line"/>
    </contour>
    <contour>
      <point x="192.33333333333334" y="753.6666666666666" type="line"/>
      <point x="1171.3333333333333" y="753.6666666666666" type="line"/>
      <point x="1212.2222222222222" y="916.8888888888889" type="line"/>
      <point x="237.44444444444446" y="916.8888888888889" type="line"/>
    </contour>
  </outline>
</glyph>
<glyph name="sterling" format="2">
  <advance width="1379.888888888889"/>
  <unicode hex="00A3"/>
  <note>
sterling
</note>
  <outline>
    <contour>
      <point x="410.6666666666667" y="117.88888888888889" type="curve" smooth="yes"/>
      <point x="584.5555555555555" y="117.88888888888889"/>
      <point x="793.0" y="283.77777777777777"/>
      <point x="793.0" y="488.22222222222223" type="curve" smooth="yes"/>
      <point x="793.0" y="632.3333333333334"/>
      <point x="715.6666666666666" y="706.3333333333334"/>
      <point x="585.8888888888889" y="806.6666666666666" type="curve" smooth="yes"/>
      <point x="441.66666666666663" y="918.3333333333334"/>
      <point x="442.44444444444446" y="1032.7777777777778"/>
      <point x="442.44444444444446" y="1109.2222222222222" type="curve" smooth="yes"/>
      <point x="442.44444444444446" y="1248.5555555555557"/>
      <point x="547.7777777777778" y="1306.888888888889"/>
      <point x="659.6666666666666" y="1306.888888888889" type="curve" smooth="yes"/>
      <point x="819.7777777777778" y="1306.888888888889"/>
      <point x="925.6666666666666" y="1169.2222222222222"/>
      <point x="925.1111111111111" y="1033.2222222222222" type="curve"/>
      <point x="1172.888888888889" y="1033.2222222222222" type="line"/>
      <point x="1162.0" y="1300.888888888889"/>
      <point x="979.5555555555555" y="1464.888888888889"/>
      <point x="674.4444444444445" y="1464.888888888889" type="curve" smooth="yes"/>
      <point x="368.77777777777777" y="1464.888888888889"/>
      <point x="167.55555555555554" y="1279.3333333333333"/>
      <point x="167.55555555555554" y="1037.5555555555557" type="curve" smooth="yes"/>
      <point x="167.55555555555554" y="855.5555555555555"/>
      <point x="277.0" y="764.3333333333334"/>
      <point x="406.77777777777777" y="679.5555555555555" type="curve" smooth="yes"/>
      <point x="516.5555555555555" y="607.5555555555555"/>
      <point x="513.6666666666666" y="549.0"/>
      <point x="513.6666666666666" y="478.77777777777777" type="curve" smooth="yes"/>
      <point x="513.6666666666666" y="360.1111111111111"/>
      <point x="327.0" y="247.0"/>
      <point x="162.88888888888889" y="246.88888888888889" type="curve"/>
      <point x="269.1111111111111" y="97.44444444444444"/>
      <point x="325.22222222222223" y="117.88888888888889"/>
    </contour>
    <contour>
      <point x="162.88888888888889" y="0.0" type="line"/>
      <point x="1231.888888888889" y="0.0" type="line"/>
      <point x="1231.888888888889" y="246.88888888888889" type="line"/>
      <point x="162.88888888888889" y="246.88888888888889" type="line"/>
    </contour>
    <contour>
      <point x="161.55555555555554" y="607.2222222222222" type="line"/>
      <point x="1057.7777777777778" y="607.2222222222222" type="line"/>
      <point x="1057.7777777777778" y="774.5555555555555" type="line"/>
      <point x="161.55555555555554" y="774.5555555555555" type="line"/>
    </contour>
  </outline>
</glyph>
<glyph name="currency" format="2">
  <advance width="1417.5555555555557"/>
  <unicode hex="00A4"/>
  <note>
currency
</note>
  <outline>
    <contour>
      <point x="264.0" y="151.77777777777777" type="line"/>
      <point x="422.55555555555554" y="310.3333333333333" type="line"/>
      <point x="503.0" y="253.88888888888889"/>
      <point x="602.0" y="220.66666666666666"/>
      <point x="708.5555555555555" y="220.66666666666666" type="curve" smooth="yes"/>
      <point x="815.1111111111111" y="220.66666666666666"/>
      <point x="914.1111111111111" y="253.88888888888889"/>
      <point x="994.5555555555555" y="310.3333333333333" type="curve"/>
      <point x="1153.5555555555557" y="151.77777777777777" type="line"/>
      <point x="1273.7777777777778" y="272.0" type="line"/>
      <point x="1115.2222222222222" y="431.0" type="line"/>
      <point x="1171.6666666666667" y="511.8888888888889"/>
      <point x="1204.888888888889" y="610.4444444444445"/>
      <point x="1204.888888888889" y="717.0" type="curve" smooth="yes"/>
      <point x="1204.888888888889" y="823.5555555555555"/>
      <point x="1171.6666666666667" y="922.5555555555555"/>
      <point x="1115.2222222222222" y="1003.0" type="curve"/>
      <point x="1273.7777777777778" y="1161.5555555555557" type="line"/>
      <point x="1153.111111111111" y="1282.2222222222222" type="line"/>
      <point x="994.5555555555555" y="1123.6666666666667" type="line"/>
      <point x="914.1111111111111" y="1180.111111111111"/>
      <point x="815.1111111111111" y="1213.3333333333333"/>
      <point x="708.5555555555555" y="1213.3333333333333" type="curve" smooth="yes"/>
      <point x="602.4444444444445" y="1213.3333333333333"/>
      <point x="503.44444444444446" y="1180.111111111111"/>
      <point x="422.55555555555554" y="1123.6666666666667" type="curve"/>
      <point x="264.0" y="1281.7777777777778" type="line"/>
      <point x="143.77777777777777" y="1161.5555555555557" type="line"/>
      <point x="302.3333333333333" y="1003.0" type="line"/>
      <point x="245.44444444444446" y="922.5555555555555"/>
      <point x="212.22222222222223" y="823.5555555555555"/>
      <point x="212.22222222222223" y="717.0" type="curve" smooth="yes"/>
      <point x="212.22222222222223" y="610.4444444444445"/>
      <point x="245.44444444444446" y="511.8888888888889"/>
      <point x="301.8888888888889" y="431.0" type="curve"/>
      <point x="143.77777777777777" y="272.44444444444446" type="line"/>
    </contour>
    <contour>
      <point x="708.5555555555555" y="399.22222222222223" type="curve" smooth="yes"/>
      <point x="532.7777777777778" y="399.22222222222223"/>
      <point x="390.77777777777777" y="541.2222222222222"/>
      <point x="390.77777777777777" y="717.0" type="curve" smooth="yes"/>
      <point x="390.77777777777777" y="892.7777777777778"/>
      <point x="532.7777777777778" y="1034.7777777777778"/>
      <point x="708.5555555555555" y="1034.7777777777778" type="curve" smooth="yes"/>
      <point x="884.3333333333334" y="1034.7777777777778"/>
      <point x="1026.3333333333333" y="892.7777777777778"/>
      <point x="1026.3333333333333" y="717.0" type="curve" smooth="yes"/>
      <point x="1026.3333333333333" y="541.2222222222222"/>
      <point x="884.3333333333334" y="399.22222222222223"/>
    </contour>
  </outline>
</glyph>
<glyph name="brokenbar" format="2">
  <advance width="582.0"/>
  <unicode hex="00A6"/>
  <note>
brokenbar
</note>
  <outline>
    <contour>
      <point x="171.33333333333334" y="-300.0" type="line"/>
      <point x="410.6666666666667" y="-300.0" type="line"/>
      <point x="410.6666666666667" y="476.1111111111111" type="line"/>
      <point x="171.33333333333334" y="476.1111111111111" type="line"/>
    </contour>
    <contour>
      <point x="171.33333333333334" y="915.8888888888889" type="line"/>
      <point x="410.6666666666667" y="915.8888888888889" type="line"/>
      <point x="410.6666666666667" y="1664.0" type="line"/>
      <point x="171.33333333333334" y="1664.0" type="line"/>
    </contour>
  </outline>
</glyph>
<glyph name="section" format="2">
  <advance width="1390.5555555555557"/>
  <unicode hex="00A7"/>
  <note>
section
</note>
  <outline>
    <contour>
      <point x="681.5555555555555" y="-426.22222222222223" type="curve" smooth="yes"/>
      <point x="994.0" y="-426.22222222222223"/>
      <point x="1182.6666666666667" y="-292.44444444444446"/>
      <point x="1182.6666666666667" y="-65.55555555555556" type="curve" smooth="yes"/>
      <point x="1182.6666666666667" y="133.22222222222223"/>
      <point x="1070.888888888889" y="228.88888888888889"/>
      <point x="793.1111111111111" y="272.3333333333333" type="curve"/>
      <point x="778.6666666666666" y="123.88888888888889" type="line"/>
      <point x="1106.4444444444443" y="177.88888888888889"/>
      <point x="1256.2222222222222" y="300.1111111111111"/>
      <point x="1256.2222222222222" y="530.0" type="curve" smooth="yes"/>
      <point x="1256.2222222222222" y="732.5555555555555"/>
      <point x="1138.4444444444443" y="857.7777777777778"/>
      <point x="861.4444444444445" y="944.8888888888889" type="curve" smooth="yes"/>
      <point x="617.2222222222222" y="1022.4444444444445"/>
      <point x="533.8888888888889" y="1062.5555555555557"/>
      <point x="533.8888888888889" y="1109.4444444444443" type="curve" smooth="yes"/>
      <point x="533.8888888888889" y="1226.3333333333333"/>
      <point x="586.3333333333334" y="1303.111111111111"/>
      <point x="690.0" y="1303.111111111111" type="curve" smooth="yes"/>
      <point x="810.4444444444445" y="1303.111111111111"/>
      <point x="848.7777777777778" y="1216.2222222222222"/>
      <point x="844.5555555555555" y="1017.3333333333334" type="curve"/>
      <point x="1173.111111111111" y="1017.3333333333334" type="line"/>
      <point x="1173.111111111111" y="1099.888888888889" type="line" smooth="yes"/>
      <point x="1173.111111111111" y="1339.7777777777778"/>
      <point x="1004.8888888888889" y="1470.6666666666667"/>
      <point x="702.0" y="1470.6666666666667" type="curve" smooth="yes"/>
      <point x="391.55555555555554" y="1470.6666666666667"/>
      <point x="192.88888888888889" y="1333.4444444444443"/>
      <point x="192.88888888888889" y="1111.4444444444443" type="curve" smooth="yes"/>
      <point x="192.88888888888889" y="928.2222222222222"/>
      <point x="295.77777777777777" y="847.6666666666666"/>
      <point x="653.3333333333334" y="759.6666666666666" type="curve"/>
      <point x="578.5555555555555" y="920.0" type="line"/>
      <point x="299.1111111111111" y="889.8888888888889"/>
      <point x="134.33333333333334" y="739.1111111111111"/>
      <point x="134.33333333333334" y="514.4444444444445" type="curve" smooth="yes"/>
      <point x="134.33333333333334" y="295.44444444444446"/>
      <point x="247.55555555555554" y="196.88888888888889"/>
      <point x="620.3333333333334" y="76.11111111111111" type="curve" smooth="yes"/>
      <point x="765.4444444444445" y="29.555555555555557"/>
      <point x="846.6666666666666" y="-17.444444444444443"/>
      <point x="846.6666666666666" y="-59.55555555555556" type="curve" smooth="yes"/>
      <point x="846.6666666666666" y="-179.88888888888889"/>
      <point x="794.8888888888889" y="-258.66666666666663"/>
      <point x="685.5555555555555" y="-258.66666666666663" type="curve" smooth="yes"/>
      <point x="554.8888888888889" y="-258.66666666666663"/>
      <point x="506.6666666666667" y="-160.11111111111111"/>
      <point x="513.4444444444445" y="34.55555555555556" type="curve"/>
      <point x="181.88888888888889" y="34.55555555555556" type="line"/>
      <point x="181.88888888888889" y="-48.44444444444444" type="line" smooth="yes"/>
      <point x="181.88888888888889" y="-279.8888888888889"/>
      <point x="378.1111111111111" y="-426.22222222222223"/>
    </contour>
    <contour>
      <point x="692.0" y="303.44444444444446" type="curve" smooth="yes"/>
      <point x="565.3333333333334" y="303.44444444444446"/>
      <point x="455.3333333333333" y="408.77777777777777"/>
      <point x="455.3333333333333" y="528.4444444444445" type="curve" smooth="yes"/>
      <point x="455.3333333333333" y="650.5555555555555"/>
      <point x="563.7777777777778" y="753.0"/>
      <point x="692.5555555555555" y="753.0" type="curve" smooth="yes"/>
      <point x="821.7777777777778" y="753.0"/>
      <point x="935.7777777777778" y="648.0"/>
      <point x="935.7777777777778" y="527.8888888888889" type="curve" smooth="yes"/>
      <point x="935.7777777777778" y="410.3333333333333"/>
      <point x="818.7777777777778" y="303.44444444444446"/>
    </contour>
  </outline>
</glyph>
<glyph name="copyright" format="2">
  <advance width="1824.6666666666667"/>
  <unicode hex="00A9"/>
  <note>
copyright
</note>
  <outline>
    <contour>
      <point x="910.7777777777778" y="-22.555555555555557" type="curve" smooth="yes"/>
      <point x="1114.2222222222222" y="-22.555555555555557"/>
      <point x="1310.111111111111" y="53.0"/>
      <point x="1459.6666666666667" y="190.0" type="curve" smooth="yes"/>
      <point x="1609.3333333333333" y="327.0"/>
      <point x="1686.3333333333333" y="503.3333333333333"/>
      <point x="1686.3333333333333" y="704.3333333333334" type="curve" smooth="yes"/>
      <point x="1686.3333333333333" y="908.5555555555555"/>
      <point x="1607.888888888889" y="1084.111111111111"/>
      <point x="1462.3333333333333" y="1219.2222222222222" type="curve" smooth="yes"/>
      <point x="1314.4444444444443" y="1356.5555555555557"/>
      <point x="1124.0" y="1431.2222222222222"/>
      <point x="910.7777777777778" y="1431.2222222222222" type="curve" smooth="yes"/>
      <point x="704.0" y="1431.2222222222222"/>
      <point x="520.7777777777778" y="1366.2222222222222"/>
      <point x="368.77777777777777" y="1220.6666666666667" type="curve" smooth="yes"/>
      <point x="222.22222222222223" y="1081.111111111111"/>
      <point x="137.77777777777777" y="901.8888888888889"/>
      <point x="137.77777777777777" y="704.3333333333334" type="curve" smooth="yes"/>
      <point x="137.77777777777777" y="510.44444444444446"/>
      <point x="216.55555555555554" y="330.1111111111111"/>
      <point x="368.22222222222223" y="189.55555555555554" type="curve" smooth="yes"/>
      <point x="515.5555555555555" y="52.888888888888886"/>
      <point x="706.7777777777778" y="-22.555555555555557"/>
    </contour>
    <contour>
      <point x="909.0" y="323.22222222222223" type="curve" smooth="yes"/>
      <point x="1122.0" y="323.22222222222223"/>
      <point x="1252.888888888889" y="447.33333333333337"/>
      <point x="1260.0" y="623.7777777777778" type="curve"/>
      <point x="1084.7777777777778" y="623.7777777777778" type="line"/>
      <point x="1076.888888888889" y="519.6666666666666"/>
      <point x="1018.4444444444445" y="468.0"/>
      <point x="915.4444444444445" y="468.0" type="curve" smooth="yes"/>
      <point x="779.3333333333334" y="468.0"/>
      <point x="722.5555555555555" y="550.1111111111111"/>
      <point x="722.5555555555555" y="702.3333333333334" type="curve" smooth="yes"/>
      <point x="722.5555555555555" y="851.2222222222222"/>
      <point x="774.4444444444445" y="943.6666666666666"/>
      <point x="915.4444444444445" y="943.6666666666666" type="curve" smooth="yes"/>
      <point x="1014.4444444444445" y="943.6666666666666"/>
      <point x="1062.6666666666667" y="896.4444444444445"/>
      <point x="1077.4444444444443" y="804.2222222222222" type="curve"/>
      <point x="1251.0" y="804.2222222222222" type="line"/>
      <point x="1243.4444444444443" y="968.6666666666666"/>
      <point x="1124.5555555555557" y="1087.4444444444443"/>
      <point x="917.4444444444445" y="1087.4444444444443" type="curve" smooth="yes"/>
      <point x="685.7777777777778" y="1087.4444444444443"/>
      <point x="530.8888888888889" y="938.2222222222222"/>
      <point x="530.8888888888889" y="701.8888888888889" type="curve" smooth="yes"/>
      <point x="530.8888888888889" y="472.6666666666667"/>
      <point x="675.2222222222222" y="323.22222222222223"/>
    </contour>
    <contour>
      <point x="910.7777777777778" y="145.88888888888889" type="curve" smooth="yes"/>
      <point x="749.7777777777778" y="145.88888888888889"/>
      <point x="598.6666666666666" y="208.11111111111111"/>
      <point x="482.8888888888889" y="314.77777777777777" type="curve" smooth="yes"/>
      <point x="361.3333333333333" y="426.22222222222223"/>
      <point x="306.6666666666667" y="562.2222222222222"/>
      <point x="306.6666666666667" y="704.3333333333334" type="curve" smooth="yes"/>
      <point x="306.6666666666667" y="857.4444444444445"/>
      <point x="363.3333333333333" y="987.5555555555555"/>
      <point x="485.0" y="1099.111111111111" type="curve" smooth="yes"/>
      <point x="601.2222222222222" y="1206.2222222222222"/>
      <point x="740.1111111111111" y="1264.888888888889"/>
      <point x="910.7777777777778" y="1264.888888888889" type="curve" smooth="yes"/>
      <point x="1077.0" y="1264.888888888889"/>
      <point x="1230.2222222222222" y="1201.888888888889"/>
      <point x="1345.0" y="1097.6666666666667" type="curve" smooth="yes"/>
      <point x="1465.111111111111" y="988.5555555555555"/>
      <point x="1519.0" y="851.5555555555555"/>
      <point x="1519.0" y="704.3333333333334" type="curve" smooth="yes"/>
      <point x="1519.0" y="548.1111111111111"/>
      <point x="1466.7777777777778" y="423.3333333333333"/>
      <point x="1348.111111111111" y="316.77777777777777" type="curve" smooth="yes"/>
      <point x="1231.3333333333333" y="212.11111111111111"/>
      <point x="1076.7777777777778" y="145.88888888888889"/>
    </contour>
  </outline>
</glyph>
<glyph name="ordfeminine" format="2">
  <advance width="918.1111111111111"/>
  <unicode hex="00AA"/>
  <note>
ordfeminine
</note>
  <outline>
    <contour>
      <point x="435.77777777777777" y="765.1111111111111" type="curve" smooth="yes"/>
      <point x="508.44444444444446" y="765.1111111111111"/>
      <point x="594.6666666666666" y="815.7777777777778"/>
      <point x="624.5555555555555" y="878.4444444444445" type="curve"/>
      <point x="624.5555555555555" y="772.1111111111111" type="line"/>
      <point x="787.8888888888889" y="772.1111111111111" type="line"/>
      <point x="787.8888888888889" y="1443.888888888889" type="line"/>
      <point x="622.5555555555555" y="1443.888888888889" type="line"/>
      <point x="622.5555555555555" y="1336.6666666666667" type="line"/>
      <point x="595.8888888888889" y="1404.0"/>
      <point x="508.55555555555554" y="1458.3333333333333"/>
      <point x="430.77777777777777" y="1458.3333333333333" type="curve" smooth="yes"/>
      <point x="230.66666666666666" y="1458.3333333333333"/>
      <point x="100.33333333333333" y="1318.2222222222222"/>
      <point x="100.33333333333333" y="1109.4444444444443" type="curve" smooth="yes"/>
      <point x="100.33333333333333" y="904.2222222222222"/>
      <point x="233.66666666666669" y="765.1111111111111"/>
    </contour>
    <contour>
      <point x="442.77777777777777" y="912.1111111111111" type="curve" smooth="yes"/>
      <point x="350.66666666666663" y="912.1111111111111"/>
      <point x="291.6666666666667" y="993.1111111111111"/>
      <point x="291.6666666666667" y="1119.888888888889" type="curve" smooth="yes"/>
      <point x="291.6666666666667" y="1236.6666666666667"/>
      <point x="349.22222222222223" y="1311.3333333333333"/>
      <point x="439.77777777777777" y="1311.3333333333333" type="curve" smooth="yes"/>
      <point x="526.0" y="1311.3333333333333"/>
      <point x="581.2222222222222" y="1232.7777777777778"/>
      <point x="581.2222222222222" y="1107.888888888889" type="curve" smooth="yes"/>
      <point x="581.2222222222222" y="987.5555555555555"/>
      <point x="527.0" y="912.1111111111111"/>
    </contour>
    <contour>
      <point x="100.22222222222223" y="580.4444444444445" type="line"/>
      <point x="816.3333333333334" y="580.4444444444445" type="line"/>
      <point x="816.3333333333334" y="688.6666666666666" type="line"/>
      <point x="100.22222222222223" y="688.6666666666666" type="line"/>
    </contour>
  </outline>
</glyph>
<glyph name="logicalnot" format="2">
  <advance width="1160.888888888889"/>
  <unicode hex="00AC"/>
  <note>
logicalnot
</note>
  <outline>
    <contour>
      <point x="1190.888888888889" y="308.22222222222223" type="line"/>
      <point x="1427.0" y="308.22222222222223" type="line"/>
      <point x="1427.0" y="891.6666666666666" type="line"/>
      <point x="142.55555555555554" y="891.6666666666666" type="line"/>
      <point x="142.55555555555554" y="663.8888888888889" type="line"/>
      <point x="1190.888888888889" y="663.8888888888889" type="line"/>
    </contour>
  </outline>
</glyph>
<glyph name="registered" format="2">
  <advance width="1824.6666666666667"/>
  <unicode hex="00AE"/>
  <note>
registered
</note>
  <outline>
    <contour>
      <point x="910.7777777777778" y="-22.555555555555557" type="curve" smooth="yes"/>
      <point x="1114.2222222222222" y="-22.555555555555557"/>
      <point x="1310.111111111111" y="53.0"/>
      <point x="1459.6666666666667" y="190.0" type="curve" smooth="yes"/>
      <point x="1609.3333333333333" y="327.0"/>
      <point x="1686.3333333333333" y="503.3333333333333"/>
      <point x="1686.3333333333333" y="704.3333333333334" type="curve" smooth="yes"/>
      <point x="1686.3333333333333" y="908.5555555555555"/>
      <point x="1607.888888888889" y="1084.111111111111"/>
      <point x="1462.3333333333333" y="1219.2222222222222" type="curve" smooth="yes"/>
      <point x="1314.4444444444443" y="1356.5555555555557"/>
      <point x="1124.0" y="1431.2222222222222"/>
      <point x="910.7777777777778" y="1431.2222222222222" type="curve" smooth="yes"/>
      <point x="704.0" y="1431.2222222222222"/>
      <point x="520.7777777777778" y="1366.2222222222222"/>
      <point x="368.77777777777777" y="1220.6666666666667" type="curve" smooth="yes"/>
      <point x="222.22222222222223" y="1081.111111111111"/>
      <point x="137.77777777777777" y="901.8888888888889"/>
      <point x="137.77777777777777" y="704.3333333333334" type="curve" smooth="yes"/>
      <point x="137.77777777777777" y="510.44444444444446"/>
      <point x="216.55555555555554" y="330.1111111111111"/>
      <point x="368.22222222222223" y="189.55555555555554" type="curve" smooth="yes"/>
      <point x="515.5555555555555" y="52.888888888888886"/>
      <point x="706.7777777777778" y="-22.555555555555557"/>
    </contour>
    <contour>
      <point x="910.7777777777778" y="145.88888888888889" type="curve" smooth="yes"/>
      <point x="749.7777777777778" y="145.88888888888889"/>
      <point x="598.6666666666666" y="208.11111111111111"/>
      <point x="482.8888888888889" y="314.77777777777777" type="curve" smooth="yes"/>
      <point x="361.3333333333333" y="426.22222222222223"/>
      <point x="306.6666666666667" y="562.2222222222222"/>
      <point x="306.6666666666667" y="704.3333333333334" type="curve" smooth="yes"/>
      <point x="306.6666666666667" y="857.4444444444445"/>
      <point x="363.3333333333333" y="987.5555555555555"/>
      <point x="485.0" y="1099.111111111111" type="curve" smooth="yes"/>
      <point x="601.2222222222222" y="1206.2222222222222"/>
      <point x="740.1111111111111" y="1264.888888888889"/>
      <point x="910.7777777777778" y="1264.888888888889" type="curve" smooth="yes"/>
      <point x="1077.0" y="1264.888888888889"/>
      <point x="1230.2222222222222" y="1201.888888888889"/>
      <point x="1345.0" y="1097.6666666666667" type="curve" smooth="yes"/>
      <point x="1465.111111111111" y="988.5555555555555"/>
      <point x="1519.0" y="851.5555555555555"/>
      <point x="1519.0" y="704.3333333333334" type="curve" smooth="yes"/>
      <point x="1519.0" y="548.1111111111111"/>
      <point x="1466.7777777777778" y="423.3333333333333"/>
      <point x="1348.111111111111" y="316.77777777777777" type="curve" smooth="yes"/>
      <point x="1231.3333333333333" y="212.11111111111111"/>
      <point x="1076.7777777777778" y="145.88888888888889"/>
    </contour>
    <contour>
      <point x="636.0" y="354.8888888888889" type="line"/>
      <point x="797.3333333333334" y="354.8888888888889" type="line"/>
      <point x="797.3333333333334" y="631.8888888888889" type="line"/>
      <point x="911.6666666666666" y="631.8888888888889" type="line"/>
      <point x="1059.6666666666667" y="354.8888888888889" type="line"/>
      <point x="1241.2222222222222" y="354.8888888888889" type="line"/>
      <point x="1068.888888888889" y="660.4444444444445" type="line"/>
      <point x="1154.0" y="705.6666666666666"/>
      <point x="1212.5555555555557" y="770.4444444444445"/>
      <point x="1212.5555555555557" y="860.7777777777778" type="curve" smooth="yes"/>
      <point x="1212.5555555555557" y="1004.7777777777778"/>
      <point x="1100.7777777777778" y="1080.888888888889"/>
      <point x="878.6666666666666" y="1080.888888888889" type="curve" smooth="yes"/>
      <point x="636.0" y="1080.888888888889" type="line"/>
    </contour>
    <contour>
      <point x="797.3333333333334" y="749.7777777777778" type="line"/>
      <point x="797.3333333333334" y="955.2222222222222" type="line"/>
      <point x="898.6666666666666" y="954.6666666666666" type="line" smooth="yes"/>
      <point x="1012.2222222222222" y="953.6666666666666"/>
      <point x="1057.5555555555557" y="931.3333333333334"/>
      <point x="1057.5555555555557" y="854.5555555555555" type="curve" smooth="yes"/>
      <point x="1057.5555555555557" y="788.4444444444445"/>
      <point x="1013.7777777777778" y="749.7777777777778"/>
      <point x="903.2222222222222" y="749.7777777777778" type="curve" smooth="yes"/>
    </contour>
  </outline>
</glyph>
<glyph name="degree" format="2">
  <advance width="878.7777777777778"/>
  <unicode hex="00B0"/>
  <note>
degree
</note>
  <outline>
    <contour>
      <point x="438.77777777777777" y="831.3333333333333" type="curve" smooth="yes"/>
      <point x="604.2222222222222" y="831.3333333333333"/>
      <point x="739.0" y="965.6666666666666"/>
      <point x="739.0" y="1131.2222222222222" type="curve" smooth="yes"/>
      <point x="739.0" y="1295.7777777777778"/>
      <point x="604.2222222222222" y="1430.111111111111"/>
      <point x="439.6666666666667" y="1430.111111111111" type="curve" smooth="yes"/>
      <point x="273.6666666666667" y="1430.111111111111"/>
      <point x="139.77777777777777" y="1296.2222222222222"/>
      <point x="139.77777777777777" y="1131.2222222222222" type="curve" smooth="yes"/>
      <point x="139.77777777777777" y="965.2222222222222"/>
      <point x="273.6666666666667" y="831.3333333333333"/>
    </contour>
    <contour>
      <point x="439.6666666666667" y="943.6666666666666" type="curve" smooth="yes"/>
      <point x="335.55555555555554" y="943.6666666666666"/>
      <point x="252.55555555555554" y="1027.111111111111"/>
      <point x="252.55555555555554" y="1131.2222222222222" type="curve" smooth="yes"/>
      <point x="252.55555555555554" y="1234.3333333333333"/>
      <point x="335.55555555555554" y="1317.3333333333333"/>
      <point x="439.6666666666667" y="1317.3333333333333" type="curve" smooth="yes"/>
      <point x="543.2222222222222" y="1317.3333333333333"/>
      <point x="626.2222222222222" y="1234.3333333333333"/>
      <point x="626.2222222222222" y="1131.2222222222222" type="curve" smooth="yes"/>
      <point x="626.2222222222222" y="1027.111111111111"/>
      <point x="543.2222222222222" y="943.6666666666666"/>
    </contour>
  </outline>
</glyph>
<glyph name="plusminus" format="2">
  <advance width="1160.888888888889"/>
  <unicode hex="00B1"/>
  <note>
plusminus
</note>
  <outline>
    <contour>
      <point x="468.55555555555554" y="319.0" type="line"/>
      <point x="672.8888888888889" y="319.0" type="line"/>
      <point x="672.8888888888889" y="526.6666666666666" type="line"/>
      <point x="988.5555555555555" y="526.6666666666666" type="line"/>
      <point x="988.5555555555555" y="808.2222222222222" type="line"/>
      <point x="672.8888888888889" y="808.2222222222222" type="line"/>
      <point x="672.8888888888889" y="1015.3333333333334" type="line"/>
      <point x="468.55555555555554" y="1015.3333333333334" type="line"/>
      <point x="468.55555555555554" y="808.2222222222222" type="line"/>
      <point x="152.88888888888889" y="808.2222222222222" type="line"/>
      <point x="152.88888888888889" y="526.6666666666666" type="line"/>
      <point x="468.55555555555554" y="526.6666666666666" type="line"/>
    </contour>
    <contour>
      <point x="152.33333333333334" y="41.0" type="line"/>
      <point x="987.5555555555555" y="41.0" type="line"/>
      <point x="987.5555555555555" y="322.1111111111111" type="line"/>
      <point x="152.33333333333334" y="322.1111111111111" type="line"/>
    </contour>
  </outline>
</glyph>
<glyph name="paragraph" format="2">
  <advance width="1338.7777777777778"/>
  <unicode hex="00B6"/>
  <note>
paragraph
</note>
  <outline>
    <contour>
      <point x="512.7777777777778" y="0.0" type="line"/>
      <point x="731.7777777777778" y="0.0" type="line"/>
      <point x="731.7777777777778" y="1252.4444444444443" type="line"/>
      <point x="859.8888888888889" y="1252.4444444444443" type="line"/>
      <point x="859.8888888888889" y="0.0" type="line"/>
      <point x="1077.3333333333333" y="0.0" type="line"/>
      <point x="1077.3333333333333" y="1252.4444444444443" type="line"/>
      <point x="1203.3333333333333" y="1252.4444444444443" type="line"/>
      <point x="1203.3333333333333" y="1448.2222222222222" type="line"/>
      <point x="596.5555555555555" y="1448.2222222222222" type="line" smooth="yes"/>
      <point x="327.3333333333333" y="1448.2222222222222"/>
      <point x="136.33333333333334" y="1268.5555555555557"/>
      <point x="136.33333333333334" y="1019.0" type="curve" smooth="yes"/>
      <point x="136.33333333333334" y="787.8888888888889"/>
      <point x="299.0" y="602.3333333333333"/>
      <point x="512.7777777777778" y="593.4444444444445" type="curve"/>
    </contour>
  </outline>
</glyph>
<glyph name="ordmasculine" format="2">
  <advance width="963.4444444444445"/>
  <unicode hex="00BA"/>
  <note>
ordmasculine
</note>
  <outline>
    <contour>
      <point x="481.44444444444446" y="766.0" type="curve" smooth="yes"/>
      <point x="697.1111111111111" y="766.0"/>
      <point x="848.6666666666667" y="900.7777777777778"/>
      <point x="848.6666666666667" y="1109.888888888889" type="curve" smooth="yes"/>
      <point x="848.6666666666667" y="1319.5555555555557"/>
      <point x="697.5555555555555" y="1457.3333333333333"/>
      <point x="481.44444444444446" y="1457.3333333333333" type="curve" smooth="yes"/>
      <point x="264.8888888888889" y="1457.3333333333333"/>
      <point x="115.66666666666666" y="1320.0"/>
      <point x="115.66666666666666" y="1109.888888888889" type="curve" smooth="yes"/>
      <point x="115.66666666666666" y="899.7777777777778"/>
      <point x="265.8888888888889" y="766.0"/>
    </contour>
    <contour>
      <point x="480.8888888888889" y="913.8888888888889" type="curve" smooth="yes"/>
      <point x="380.55555555555554" y="913.8888888888889"/>
      <point x="306.55555555555554" y="990.5555555555555"/>
      <point x="306.55555555555554" y="1109.888888888889" type="curve" smooth="yes"/>
      <point x="306.55555555555554" y="1229.7777777777778"/>
      <point x="381.0" y="1309.4444444444443"/>
      <point x="480.8888888888889" y="1309.4444444444443" type="curve" smooth="yes"/>
      <point x="580.7777777777778" y="1309.4444444444443"/>
      <point x="657.3333333333334" y="1229.7777777777778"/>
      <point x="657.3333333333334" y="1109.888888888889" type="curve" smooth="yes"/>
      <point x="657.3333333333334" y="990.5555555555555"/>
      <point x="580.7777777777778" y="913.8888888888889"/>
    </contour>
    <contour>
      <point x="121.0" y="580.4444444444445" type="line"/>
      <point x="841.5555555555555" y="580.4444444444445" type="line"/>
      <point x="841.5555555555555" y="688.6666666666666" type="line"/>
      <point x="121.0" y="688.6666666666666" type="line"/>
    </contour>
  </outline>
</glyph>
<glyph name="AE" format="2">
  <advance width="2170.4444444444443"/>
  <unicode hex="00C6"/>
  <note>
AE
</note>
  <anchor x="1130.888888888889" y="32.22222222222223" name="bottom"/>
  <anchor x="1130.888888888889" y="1430.0" name="top"/>
  <outline>
    <contour>
      <point x="100.33333333333333" y="0.0" type="line"/>
      <point x="307.22222222222223" y="0.0" type="line"/>
      <point x="1279.5555555555557" y="1435.2222222222222" type="line"/>
      <point x="1073.6666666666667" y="1435.2222222222222" type="line"/>
    </contour>
    <contour>
      <point x="566.3333333333334" y="414.77777777777777" type="line"/>
      <point x="1341.5555555555557" y="414.77777777777777" type="line"/>
      <point x="1341.5555555555557" y="578.8888888888889" type="line"/>
      <point x="566.3333333333334" y="578.8888888888889" type="line"/>
    </contour>
    <contour>
      <point x="1102.111111111111" y="0.0" type="line"/>
      <point x="2054.3333333333335" y="0.0" type="line"/>
      <point x="2054.3333333333335" y="163.66666666666669" type="line"/>
      <point x="1153.0" y="163.66666666666669" type="line"/>
      <point x="1412.2222222222222" y="11.444444444444445" type="line"/>
      <point x="1412.2222222222222" y="802.2222222222222" type="line"/>
      <point x="1249.0" y="647.2222222222222" type="line"/>
      <point x="2054.3333333333335" y="647.2222222222222" type="line"/>
      <point x="2054.3333333333335" y="810.8888888888889" type="line"/>
      <point x="1241.111111111111" y="810.8888888888889" type="line"/>
      <point x="1412.2222222222222" y="656.1111111111111" type="line"/>
      <point x="1412.2222222222222" y="1423.5555555555557" type="line"/>
      <point x="1128.6666666666667" y="1271.5555555555557" type="line"/>
      <point x="2054.3333333333335" y="1271.5555555555557" type="line"/>
      <point x="2054.3333333333335" y="1435.2222222222222" type="line"/>
      <point x="1102.111111111111" y="1435.2222222222222" type="line"/>
    </contour>
  </outline>
</glyph>
<glyph name="Thorn" format="2">
  <advance width="1282.888888888889"/>
  <unicode hex="00DE"/>
  <note>
Thorn
</note>
  <anchor x="642.2222222222222" y="32.22222222222223" name="bottom"/>
  <anchor x="642.2222222222222" y="1430.0" name="top"/>
  <outline>
    <contour>
      <point x="296.77777777777777" y="293.22222222222223" type="line"/>
      <point x="587.8888888888889" y="293.22222222222223" type="line" smooth="yes"/>
      <point x="766.6666666666667" y="293.22222222222223"/>
      <point x="928.8888888888889" y="335.6666666666667"/>
      <point x="1006.6666666666667" y="396.0" type="curve" smooth="yes"/>
      <point x="1131.5555555555557" y="492.55555555555554"/>
      <point x="1175.5555555555557" y="583.8888888888889"/>
      <point x="1175.5555555555557" y="746.0" type="curve" smooth="yes"/>
      <point x="1175.5555555555557" y="893.1111111111111"/>
      <point x="1141.111111111111" y="973.3333333333334"/>
      <point x="1037.888888888889" y="1067.4444444444443" type="curve" smooth="yes"/>
      <point x="959.5555555555555" y="1139.2222222222222"/>
      <point x="786.2222222222222" y="1189.7777777777778"/>
      <point x="588.8888888888889" y="1189.7777777777778" type="curve" smooth="yes"/>
      <point x="295.77777777777777" y="1189.7777777777778" type="line"/>
      <point x="295.77777777777777" y="1038.111111111111" type="line"/>
      <point x="514.1111111111111" y="1038.111111111111" type="line" smooth="yes"/>
      <point x="789.7777777777778" y="1038.111111111111"/>
      <point x="885.0" y="975.2222222222222"/>
      <point x="885.0" y="744.0" type="curve" smooth="yes"/>
      <point x="885.0" y="509.77777777777777"/>
      <point x="789.7777777777778" y="444.8888888888889"/>
      <point x="514.1111111111111" y="444.8888888888889" type="curve" smooth="yes"/>
      <point x="296.77777777777777" y="444.8888888888889" type="line"/>
    </contour>
    <contour>
      <point x="139.33333333333334" y="0.0" type="line"/>
      <point x="441.1111111111111" y="0.0" type="line"/>
      <point x="441.1111111111111" y="1435.2222222222222" type="line"/>
      <point x="139.33333333333334" y="1435.2222222222222" type="line"/>
    </contour>
  </outline>
</glyph>
<glyph name="germandbls" format="2">
  <advance width="1472.3333333333333"/>
  <unicode hex="00DF"/>
  <note>
germandbls
</note>
  <anchor x="736.4444444444445" y="47.33333333333333" name="bottom"/>
  <anchor x="736.4444444444445" y="1001.5555555555555" name="top"/>
  <outline>
    <contour>
      <point x="958.3333333333334" y="-33.77777777777778" type="curve" smooth="yes"/>
      <point x="1238.2222222222222" y="-33.77777777777778"/>
      <point x="1394.4444444444443" y="52.22222222222222"/>
      <point x="1394.4444444444443" y="296.3333333333333" type="curve" smooth="yes"/>
      <point x="1394.4444444444443" y="502.6666666666667"/>
      <point x="1266.3333333333333" y="564.6666666666666"/>
      <point x="1039.3333333333333" y="615.0" type="curve" smooth="yes"/>
      <point x="897.5555555555555" y="645.2222222222222"/>
      <point x="886.1111111111111" y="673.7777777777778"/>
      <point x="886.1111111111111" y="718.4444444444445" type="curve" smooth="yes"/>
      <point x="886.1111111111111" y="801.8888888888889"/>
      <point x="942.7777777777778" y="808.4444444444445"/>
      <point x="1038.2222222222222" y="869.7777777777778" type="curve" smooth="yes"/>
      <point x="1108.0" y="915.0"/>
      <point x="1226.2222222222222" y="971.7777777777778"/>
      <point x="1226.2222222222222" y="1153.4444444444443" type="curve" smooth="yes"/>
      <point x="1226.2222222222222" y="1401.888888888889"/>
      <point x="1047.3333333333335" y="1577.4444444444443"/>
      <point x="729.1111111111111" y="1577.4444444444443" type="curve" smooth="yes"/>
      <point x="456.22222222222223" y="1577.4444444444443"/>
      <point x="257.1111111111111" y="1366.7777777777778"/>
      <point x="257.1111111111111" y="1084.7777777777778" type="curve" smooth="yes"/>
      <point x="257.1111111111111" y="0.0" type="line"/>
      <point x="547.3333333333334" y="0.0" type="line"/>
      <point x="547.3333333333334" y="995.4444444444445" type="line" smooth="yes"/>
      <point x="547.3333333333334" y="1204.3333333333333"/>
      <point x="553.1111111111111" y="1404.0"/>
      <point x="740.7777777777778" y="1404.0" type="curve" smooth="yes"/>
      <point x="891.4444444444445" y="1404.0"/>
      <point x="989.7777777777778" y="1333.3333333333333"/>
      <point x="989.7777777777778" y="1149.4444444444443" type="curve" smooth="yes"/>
      <point x="989.7777777777778" y="1043.5555555555557"/>
      <point x="936.4444444444445" y="994.4444444444445"/>
      <point x="859.3333333333334" y="948.7777777777778" type="curve" smooth="yes"/>
      <point x="792.2222222222222" y="908.8888888888889"/>
      <point x="681.7777777777778" y="859.6666666666666"/>
      <point x="681.7777777777778" y="684.6666666666666" type="curve" smooth="yes"/>
      <point x="681.7777777777778" y="555.7777777777778"/>
      <point x="731.0" y="489.6666666666667"/>
      <point x="945.7777777777778" y="443.0" type="curve" smooth="yes"/>
      <point x="1042.6666666666667" y="423.1111111111111"/>
      <point x="1152.888888888889" y="407.77777777777777"/>
      <point x="1152.888888888889" y="284.1111111111111" type="curve" smooth="yes"/>
      <point x="1152.888888888889" y="184.44444444444446"/>
      <point x="1082.0" y="155.66666666666669"/>
      <point x="962.5555555555555" y="155.66666666666669" type="curve" smooth="yes"/>
      <point x="877.0" y="155.66666666666669"/>
      <point x="814.4444444444445" y="170.44444444444446"/>
      <point x="702.8888888888889" y="219.0" type="curve"/>
      <point x="690.3333333333334" y="36.333333333333336" type="line"/>
      <point x="789.1111111111111" y="-15.222222222222221"/>
      <point x="890.1111111111111" y="-33.77777777777778"/>
    </contour>
    <contour>
      <point x="77.0" y="838.4444444444445" type="line"/>
      <point x="425.1111111111111" y="838.4444444444445" type="line"/>
      <point x="425.1111111111111" y="1010.3333333333334" type="line"/>
      <point x="77.0" y="1010.3333333333334" type="line"/>
    </contour>
  </outline>
</glyph>
<glyph name="ae" format="2">
  <advance width="2147.6666666666665"/>
  <unicode hex="00E6"/>
  <note>
ae
</note>
  <anchor x="1049.5555555555557" y="47.33333333333333" name="bottom"/>
  <anchor x="1077.111111111111" y="1001.5555555555555" name="top"/>
  <outline>
    <contour>
      <point x="578.1111111111111" y="-33.22222222222222" type="curve" smooth="yes"/>
      <point x="819.2222222222222" y="-33.22222222222222"/>
      <point x="965.2222222222222" y="94.0"/>
      <point x="1021.6666666666666" y="347.0" type="curve"/>
      <point x="941.0" y="413.55555555555554" type="line"/>
      <point x="938.3333333333334" y="0.0" type="line"/>
      <point x="1199.0" y="0.0" type="line"/>
      <point x="1199.0" y="1009.3333333333334" type="line"/>
      <point x="934.6666666666666" y="1009.3333333333334" type="line"/>
      <point x="934.6666666666666" y="595.0" type="line"/>
      <point x="1017.0" y="658.1111111111111" type="line"/>
      <point x="966.2222222222222" y="916.7777777777778"/>
      <point x="802.7777777777778" y="1036.3333333333333"/>
      <point x="573.4444444444445" y="1036.3333333333333" type="curve" smooth="yes"/>
      <point x="266.8888888888889" y="1036.3333333333333"/>
      <point x="81.33333333333333" y="815.7777777777778"/>
      <point x="81.33333333333333" y="494.8888888888889" type="curve" smooth="yes"/>
      <point x="81.33333333333333" y="164.11111111111111"/>
      <point x="278.0" y="-33.22222222222222"/>
    </contour>
    <contour>
      <point x="603.5555555555555" y="140.22222222222223" type="curve" smooth="yes"/>
      <point x="457.3333333333333" y="140.22222222222223"/>
      <point x="376.22222222222223" y="252.55555555555554"/>
      <point x="376.22222222222223" y="500.22222222222223" type="curve" smooth="yes"/>
      <point x="376.22222222222223" y="745.2222222222222"/>
      <point x="452.77777777777777" y="863.4444444444445"/>
      <point x="598.8888888888889" y="863.4444444444445" type="curve" smooth="yes"/>
      <point x="759.7777777777778" y="863.4444444444445"/>
      <point x="872.5555555555555" y="713.1111111111111"/>
      <point x="872.5555555555555" y="500.1111111111111" type="curve" smooth="yes"/>
      <point x="872.5555555555555" y="291.77777777777777"/>
      <point x="770.7777777777778" y="140.22222222222223"/>
    </contour>
    <contour>
      <point x="1570.888888888889" y="-28.0" type="curve" smooth="yes"/>
      <point x="1822.5555555555557" y="-28.0"/>
      <point x="1979.0" y="107.33333333333333"/>
      <point x="2065.222222222222" y="400.8888888888889" type="curve"/>
      <point x="1851.5555555555557" y="400.8888888888889" type="line"/>
      <point x="1880.111111111111" y="295.55555555555554"/>
      <point x="1725.111111111111" y="143.8888888888889"/>
      <point x="1578.2222222222222" y="143.8888888888889" type="curve" smooth="yes"/>
      <point x="1435.888888888889" y="143.8888888888889"/>
      <point x="1345.4444444444443" y="306.22222222222223"/>
      <point x="1345.4444444444443" y="499.8888888888889" type="curve" smooth="yes"/>
      <point x="1345.4444444444443" y="689.8888888888889"/>
      <point x="1428.0" y="863.4444444444445"/>
      <point x="1570.888888888889" y="863.4444444444445" type="curve" smooth="yes"/>
      <point x="1693.888888888889" y="863.4444444444445"/>
      <point x="1772.2222222222222" y="738.2222222222222"/>
      <point x="1791.6666666666667" y="492.22222222222223" type="curve"/>
      <point x="2071.8888888888887" y="492.22222222222223" type="line"/>
      <point x="2040.7777777777778" y="847.5555555555555"/>
      <point x="1855.0" y="1036.3333333333333"/>
      <point x="1566.7777777777778" y="1036.3333333333333" type="curve" smooth="yes"/>
      <point x="1257.3333333333333" y="1036.3333333333333"/>
      <point x="1062.7777777777778" y="815.5555555555555"/>
      <point x="1062.7777777777778" y="500.77777777777777" type="curve" smooth="yes"/>
      <point x="1062.7777777777778" y="179.77777777777777"/>
      <point x="1259.888888888889" y="-28.0"/>
    </contour>
    <contour>
      <point x="1318.4444444444443" y="491.22222222222223" type="line"/>
      <point x="2008.3333333333335" y="492.22222222222223" type="line"/>
      <point x="2007.4444444444443" y="657.5555555555555" type="line"/>
      <point x="1269.7777777777778" y="657.5555555555555" type="line"/>
    </contour>
  </outline>
</glyph>
